<?xml version="1.0" encoding="UTF-8" standalone="no"?>
<svg width="41px" height="41px" viewBox="0 0 41 41" version="1.1" xmlns="http://www.w3.org/2000/svg" xmlns:xlink="http://www.w3.org/1999/xlink">
    <!-- Generator: Sketch 40.3 (33839) - http://www.bohemiancoding.com/sketch -->
    <title>instagram</title>
    <desc>Created with Sketch.</desc>
    <defs>
        <circle id="path-1" cx="20.5" cy="20.5" r="20.5"></circle>
        <mask id="mask-2" maskContentUnits="userSpaceOnUse" maskUnits="objectBoundingBox" x="0" y="0" width="41" height="41" fill="white">
            <use xlink:href="#path-1"></use>
        </mask>
    </defs>
    <g id="Page-1" stroke="none" stroke-width="1" fill="none" fill-rule="evenodd">
        <g id="1.-HOMEPAGE-desktop" transform="translate(-340.000000, -9798.000000)">
            <g id="Group" transform="translate(199.000000, 9798.000000)">
                <g id="instagram" transform="translate(141.000000, 0.000000)">
                    <rect id="Rectangle" x="0" y="0" width="41" height="41"></rect>
                    <use id="Oval" stroke="#FFFFFF" mask="url(#mask-2)" stroke-width="3.72" xlink:href="#path-1"></use>
                    <path d="M20.4999797,12.0968842 C23.2368609,12.0968842 23.5610178,12.1073002 24.6418389,12.1566134 C25.6412038,12.202224 26.1839335,12.3692053 26.5451566,12.5095362 C27.0235595,12.6954778 27.3650492,12.9176313 27.723709,13.276291 C28.0823687,13.6349508 28.3045222,13.9764405 28.4904231,14.4548434 C28.6307947,14.8160665 28.797776,15.3587962 28.8433866,16.3581204 C28.8926998,17.4389822 28.9031158,17.7631391 28.9031158,20.5000203 C28.9031158,23.2369016 28.8926998,23.5610584 28.8433866,24.6418796 C28.797776,25.6412445 28.6307947,26.1839742 28.4904231,26.5451973 C28.3045222,27.0236002 28.0823687,27.3650899 27.723709,27.7237497 C27.3650492,28.0824094 27.0235595,28.3045628 26.5451566,28.4904638 C26.1839335,28.6308354 25.6412038,28.7978167 24.6418389,28.8434273 C23.5611805,28.8927405 23.2370237,28.9031565 20.4999797,28.9031565 C17.7629356,28.9031565 17.4387788,28.8927405 16.3581204,28.8434273 C15.3587555,28.7978167 14.8160258,28.6308354 14.4548434,28.4904638 C13.9763998,28.3045628 13.6349101,28.0824094 13.2762503,27.7237497 C12.9175906,27.3650899 12.6954372,27.0236002 12.5095362,26.5451973 C12.3691646,26.1839742 12.2021833,25.6412445 12.1565727,24.6419203 C12.1072595,23.5610584 12.0968435,23.2369016 12.0968435,20.5000203 C12.0968435,17.7631391 12.1072595,17.4389822 12.1565727,16.3581611 C12.2021833,15.3587962 12.3691646,14.8160665 12.5095362,14.4548434 C12.6954372,13.9764405 12.9175906,13.6349508 13.2762503,13.276291 C13.6349101,12.9176313 13.9763998,12.6954778 14.4548434,12.5095362 C14.8160258,12.3692053 15.3587555,12.202224 16.3580797,12.1566134 C17.4389416,12.1073002 17.7630984,12.0968842 20.4999797,12.0968842 M20.4999797,10.25 C17.7162264,10.25 17.3672096,10.2617994 16.2739381,10.3116822 C15.1829044,10.3614836 14.437836,10.5347307 13.7858198,10.7881321 C13.1117917,11.0500778 12.5401739,11.4005594 11.9703463,11.970387 C11.4005187,12.5402146 11.0500371,13.1118324 10.7880914,13.7858605 C10.53469,14.4378767 10.3614429,15.1829451 10.3116415,16.2739788 C10.2617587,17.3672096 10.25,17.7162671 10.25,20.5000203 C10.25,23.2837736 10.2617587,23.6328311 10.3116415,24.7260619 C10.3614429,25.8170956 10.53469,26.562164 10.7880914,27.2141802 C11.0500371,27.8881676 11.4005187,28.4598261 11.9703463,29.0296537 C12.5401739,29.5994813 13.1117917,29.9499629 13.7858198,30.2119086 C14.437836,30.46531 15.1829044,30.6385571 16.2739381,30.6883585 C17.3672096,30.7382413 17.7162264,30.75 20.4999797,30.75 C23.2837329,30.75 23.6327904,30.7382413 24.7260212,30.6883585 C25.8170549,30.6385571 26.5621233,30.46531 27.2141395,30.2119086 C27.8881676,29.9499629 28.4597854,29.5994813 29.029613,29.0296537 C29.5994406,28.4598261 29.9499222,27.8882083 30.2118679,27.2141802 C30.4652693,26.562164 30.6385164,25.8170956 30.6883178,24.7260619 C30.7382006,23.6328311 30.75,23.2837736 30.75,20.5000203 C30.75,17.7162671 30.7382006,17.3672096 30.6883178,16.2739788 C30.6385164,15.1829451 30.4652693,14.4378767 30.2118679,13.7858605 C29.9499222,13.1118324 29.5994406,12.5402146 29.029613,11.970387 C28.4597854,11.4005594 27.8881676,11.0500778 27.2141395,10.7881321 C26.5621233,10.5347307 25.8170549,10.3614836 24.7260212,10.3116822 C23.6327904,10.2617994 23.2837329,10.25 20.4999797,10.25 Z M20.5203373,15.2529762 C17.611267,15.2529762 15.2529762,17.611267 15.2529762,20.5203373 C15.2529762,23.4294076 17.611267,25.7876984 20.5203373,25.7876984 C23.4294076,25.7876984 25.7876984,23.4294076 25.7876984,20.5203373 C25.7876984,17.611267 23.4294076,15.2529762 20.5203373,15.2529762 Z M20.5203373,23.9395108 C18.6320027,23.9395108 17.1011638,22.4086719 17.1011638,20.5203373 C17.1011638,18.6320027 18.6320027,17.1011638 20.5203373,17.1011638 C22.4086719,17.1011638 23.9395108,18.6320027 23.9395108,20.5203373 C23.9395108,22.4086719 22.4086719,23.9395108 20.5203373,23.9395108 Z M27.1706349,15.0089084 C27.1706349,15.6828336 26.6243422,16.2291667 25.950417,16.2291667 C25.2764918,16.2291667 24.7301587,15.6828336 24.7301587,15.0089084 C24.7301587,14.3349832 25.2764918,13.7886905 25.950417,13.7886905 C26.6243422,13.7886905 27.1706349,14.3349832 27.1706349,15.0089084 Z" id="Shape" fill="#FFFFFF"></path>
                </g>
            </g>
        </g>
    </g>
</svg>