<?xml version="1.0" encoding="UTF-8" standalone="no"?>
<svg width="519px" height="87px" viewBox="0 0 519 87" version="1.1" xmlns="http://www.w3.org/2000/svg" xmlns:xlink="http://www.w3.org/1999/xlink">
    <!-- Generator: Sketch 40.3 (33839) - http://www.bohemiancoding.com/sketch -->
    <title>Page 1</title>
    <desc>Created with Sketch.</desc>
    <defs>
        <polygon id="path-1" points="1.37512446e-20 0.0764790698 1.37512446e-20 83.6875256 67.8184352 83.6875256 67.8184352 0.0764790698 0 0.0764790698"></polygon>
        <polygon id="path-3" points="0 86.9236221 518.799604 86.9236221 518.799604 0 0 0"></polygon>
    </defs>
    <g id="Page-1" stroke="none" stroke-width="1" fill="none" fill-rule="evenodd">
        <g id="1.-HOMEPAGE-desktop" transform="translate(-204.000000, -46.000000)">
            <g id="Page-1" transform="translate(204.000000, 46.000000)">
                <g id="Group-3" transform="translate(0.000000, 1.946878)">
                    <mask id="mask-2" fill="white">
                        <use xlink:href="#path-1"></use>
                    </mask>
                    <g id="Clip-2"></g>
                    <path d="M53.9388633,58.9233802 L53.9388633,59.1565605 C53.9388633,62.8115721 52.5066669,65.6552581 49.6813384,67.6087116 C46.9128311,69.5232174 42.9510804,70.4938744 37.9061771,70.4938744 L13.6313853,70.4938744 L13.6313853,57.0078628 L14.1585026,56.8682581 C35.3669836,51.2694035 47.3049982,50.2436128 51.7309572,53.6401535 C53.237224,54.7959384 53.9388633,56.4747349 53.9388633,58.9233802 L53.9388633,58.9233802 Z M49.2775026,24.0060314 C49.2775026,31.581607 42.612183,35.2325721 13.6313853,43.5026302 L13.6313853,13.2701302 L34.6805642,13.2701302 C39.2506053,13.2701302 42.9957255,14.2463512 45.5110745,16.0930779 C47.9756903,17.9018686 49.2775026,20.5578977 49.2775026,23.773357 L49.2775026,24.0060314 Z M52.3838927,40.189043 C59.6331507,36.3655953 63.1575818,30.2892523 63.1575818,21.6190953 L63.1575818,21.3864209 C63.1575818,15.8249965 61.3093736,11.2797523 57.5079396,7.48918256 C52.5746493,2.57064767 45.364963,0.0764790698 36.0792768,0.0764790698 L-0.000101466276,0.0764790698 L-0.000101466276,83.6875256 L37.2760716,83.6875256 C46.588139,83.6875256 54.2894293,81.6561767 59.5484264,77.814014 C65.0362299,73.8039209 67.8184352,68.0487698 67.8184352,60.7083977 L67.8184352,60.4661128 C67.8184352,50.1495314 63.0556082,43.8870488 52.3838927,40.189043 L52.3838927,40.189043 Z" id="Fill-1" fill="#FF6161" mask="url(#mask-2)"></path>
                </g>
                <path d="M252.607903,30.6735698 L249.614141,30.673064 C245.409378,30.6725581 241.439003,30.6710407 237.43971,30.6917791 C237.128716,30.6938023 236.769018,30.9193953 236.550865,31.1424593 C235.082648,32.641186 233.621026,34.1464884 232.159405,35.6517907 C229.698848,38.1859186 227.154073,40.8055291 224.619446,43.3507849 C223.299877,44.6760174 221.888481,45.9516802 220.522745,47.1863721 C219.951997,47.7017965 219.381757,48.2177267 218.817604,48.7371977 L218.817604,0 L205.97451,0 L205.97451,85.5948488 L218.865293,85.5948488 L218.865293,63.0254302 C223.695595,63.0755058 227.354977,64.0926977 230.373091,66.2241977 C236.109994,70.2757674 239.449757,76.9550407 240.031666,85.5402209 L240.038261,85.6343023 L252.033097,85.6343023 L252.026501,85.526564 C251.531853,77.6444651 249.72271,71.2504709 246.497097,65.9788779 C242.976217,60.2252442 237.880581,55.9713488 230.921009,52.9754128 L247.673091,35.7484012 L252.607903,30.6735698 Z" id="Fill-4" fill="#FF6161"></path>
                <path d="M375.359064,65.9787767 C371.838184,60.225143 366.742548,55.9707419 359.782976,52.9753116 L381.302958,30.8454453 L381.46987,30.6734686 L378.476108,30.6729628 C374.272867,30.6729628 370.301477,30.6709395 366.301677,30.6916779 C365.990175,30.6937012 365.630985,30.9192942 365.41334,31.1423581 C363.946137,32.6400733 362.48553,34.1438581 361.024923,35.6481488 C358.563351,38.1832884 356.017562,40.8044163 353.48192,43.3511895 C352.162859,44.6749047 350.75197,45.9500616 349.387756,47.1837419 C348.816501,47.7001779 348.245246,48.216614 347.679571,48.7370965 L347.679571,0.000404651163 L334.836477,0.000404651163 L334.836477,85.5947477 L347.72726,85.5947477 L347.72726,63.0253291 C352.557562,63.0754047 356.216944,64.0925965 359.236073,66.2240965 C364.972469,70.2756663 368.312231,76.9549395 368.89414,85.5401198 L368.900735,85.6342012 L380.895064,85.6342012 L380.887961,85.5264628 C380.393821,77.6438581 378.584677,71.249864 375.359064,65.9787767" id="Fill-6" fill="#FF6161"></path>
                <mask id="mask-4" fill="white">
                    <use xlink:href="#path-3"></use>
                </mask>
                <g id="Clip-9"></g>
                <polygon id="Fill-8" fill="#FF6161" mask="url(#mask-4)" points="73.5894311 85.504814 86.7161232 85.504814 86.7161232 2.55587791 73.5894311 2.55587791"></polygon>
                <path d="M103.046714,0.546481395 C100.422796,0.546481395 98.1448786,1.49134186 96.2758698,3.35425465 C94.4073683,5.21666163 93.4601806,7.5282314 93.4601806,10.2227023 C93.4601806,12.8407953 94.4073683,15.1119 96.2758698,16.9738012 C98.1423419,18.8362081 100.420767,19.7805628 103.046714,19.7805628 C105.749269,19.7805628 108.067266,18.8362081 109.935767,16.9738012 C111.804269,15.1098767 112.751964,12.8387721 112.751964,10.2227023 C112.751964,7.53025465 111.804269,5.21868488 109.935767,3.35425465 C108.064729,1.49134186 105.747239,0.546481395 103.046714,0.546481395" id="Fill-10" fill="#FF6161" mask="url(#mask-4)"></path>
                <polygon id="Fill-11" fill="#FF6161" mask="url(#mask-4)" points="96.5426246 85.504814 109.669317 85.504814 109.669317 30.2168198 96.5426246 30.2168198"></polygon>
                <path d="M147.696848,74.308875 L144.139947,74.308875 C142.882273,74.308875 141.75346,74.1915262 140.784457,73.9593576 C139.818499,73.7282006 138.97785,73.2426192 138.285343,72.5157645 C137.588777,71.7853692 137.058616,70.7105145 136.709572,69.3210436 C136.357484,67.922468 136.179411,66.0287006 136.179411,63.6923459 L136.179411,41.1765436 L148.865739,41.1765436 L148.865739,30.2170727 L136.179411,30.2170727 L136.179411,13.5494913 L123.052718,13.5494913 L123.052718,30.2170727 L113.685859,30.2170727 L113.685859,41.1765436 L123.052718,41.1765436 L123.052718,66.7267238 C123.052718,71.3711076 123.694493,75.0453401 124.959777,77.6462355 C126.226076,80.252189 127.813516,82.2142413 129.677452,83.4777645 C131.534284,84.7397703 133.523531,85.5207471 135.589891,85.7994506 C137.645598,86.0746134 139.484674,86.214218 141.057402,86.214218 C142.940616,86.214218 144.778677,86.1342994 146.520346,85.9769913 C148.261507,85.8181657 149.659713,85.6588343 150.676405,85.5035494 L150.762651,85.4903983 L150.762651,73.9097878 L150.625164,73.960875 C150.006727,74.192032 149.02149,74.308875 147.696848,74.308875" id="Fill-12" fill="#FF6161" mask="url(#mask-4)"></path>
                <polygon id="Fill-13" fill="#FF6161" mask="url(#mask-4)" points="200.569808 30.2171233 153.338271 30.2171233 153.338271 41.8857453 178.752022 41.8857453 152.641705 85.3518558 152.549878 85.5051174 200.492693 85.5051174 200.492693 73.8359895 174.485872 73.8359895 200.478488 30.3703849"></polygon>
                <polygon id="Fill-14" fill="#FF6161" mask="url(#mask-4)" points="258.258053 85.504814 271.384745 85.504814 271.384745 30.2168198 258.258053 30.2168198"></polygon>
                <path d="M264.762092,0.546481395 C262.138174,0.546481395 259.860256,1.49134186 257.991247,3.35425465 C256.122746,5.21666163 255.175558,7.5282314 255.175558,10.2227023 C255.175558,12.8407953 256.122746,15.1119 257.991247,16.9738012 C259.857719,18.8362081 262.136145,19.7805628 264.762092,19.7805628 C267.465153,19.7805628 269.782643,18.8362081 271.651145,16.9738012 C273.519646,15.1098767 274.466834,12.8387721 274.466834,10.2227023 C274.466834,7.52974884 273.519646,5.21868488 271.650637,3.35425465 C269.780106,1.49134186 267.462617,0.546481395 264.762092,0.546481395" id="Fill-15" fill="#FF6161" mask="url(#mask-4)"></path>
                <path d="M317.292908,66.4603622 C316.431459,69.1897343 315.104787,71.3616994 313.349928,72.9165715 C311.600142,74.4679029 308.810834,75.2549494 305.059119,75.2549494 C302.320037,75.2549494 299.94116,74.7810017 297.988949,73.8462576 C296.033694,72.9110076 294.410233,71.6479901 293.162705,70.0916006 C291.913148,68.535211 290.982195,66.678368 290.39572,64.5721587 C289.807723,62.4624087 289.509412,60.2044552 289.509412,57.8610192 C289.509412,55.518089 289.807723,53.280368 290.395213,51.2100715 C290.982195,49.1443273 291.913148,47.2864727 293.16372,45.6891122 C294.415306,44.0902343 295.959623,42.8069843 297.754562,41.8747692 C299.5495,40.9405308 301.727474,40.467089 304.228617,40.467089 C308.604858,40.467089 311.792421,41.3922227 313.702523,43.2171994 C315.612119,45.0436936 316.778474,47.4695773 317.170133,50.4275773 L317.181295,50.515589 L330.304943,50.515589 L330.295304,50.4053215 C330.057872,47.7280483 329.397327,45.0730308 328.331424,42.514118 C327.263491,39.953182 325.660324,37.6350366 323.565553,35.6239203 C321.470274,33.6148273 318.786491,31.957275 315.588782,30.6967866 C312.387521,29.4373099 308.485635,28.7984669 303.991694,28.7984669 C299.493694,28.7984669 295.489327,29.6173797 292.091221,31.2319378 C288.694638,32.8470017 285.791688,35.0230134 283.463037,37.6997808 C281.133371,40.3760424 279.351623,43.5090541 278.167512,47.0128273 C276.9834,50.5135657 276.383227,54.1630134 276.383227,57.8610192 C276.383227,61.6389436 276.9834,65.3091297 278.167512,68.7683913 C279.351623,72.2342285 281.133371,75.3480192 283.463037,78.0227634 C285.791688,80.7010483 288.714424,82.8770599 292.151087,84.4906064 C295.589779,86.1051645 299.613424,86.9235715 304.110409,86.9235715 C308.128981,86.9235715 311.709726,86.4051122 314.753714,85.3813448 C317.792629,84.3590948 320.43684,82.9008331 322.612784,81.0480366 C324.785177,79.198275 326.528368,77.0000076 327.795174,74.5154494 C329.058937,72.0319029 329.939664,69.3369262 330.412497,66.5074029 L330.432283,66.3890424 L317.31523,66.3890424 L317.292908,66.4603622 Z" id="Fill-16" fill="#FF6161" mask="url(#mask-4)"></path>
                <path d="M398.181569,42.0978331 C400.836941,39.838868 404.206129,38.694211 408.193754,38.694211 C412.099698,38.694211 415.326833,39.8970366 417.786375,42.2713273 C420.224103,44.6263971 421.470109,47.9278448 421.489894,52.0856355 L394.186334,52.0856355 C394.206628,47.696182 395.550548,44.3360599 398.181569,42.0978331 M426.819411,35.9790017 C424.490252,33.7357169 421.726818,31.9582866 418.606223,30.6972924 C415.482076,29.4373099 412.098683,28.7984669 408.5499,28.7984669 C404.209173,28.7984669 400.285979,29.5369552 396.889903,30.9936994 C393.490783,32.4529727 390.606097,34.510118 388.317525,37.1079785 C386.027431,39.7048273 384.245683,42.8181122 383.021493,46.3618448 C381.798317,49.8984959 381.17785,53.766961 381.17785,57.8610192 C381.17785,61.8726297 381.758238,65.7011355 382.90227,69.2403157 C384.046302,72.7830366 385.787971,75.8973331 388.080094,78.4962052 C390.372217,81.0976064 393.276689,83.1744785 396.71183,84.6691587 C400.149507,86.1648506 404.252296,86.9235715 408.90554,86.9235715 C412.454323,86.9235715 415.696677,86.4243331 418.542299,85.4400192 C421.383355,84.4567169 423.906314,83.1193448 426.040657,81.4643215 C428.176522,79.8082866 429.92022,77.8705134 431.223047,75.7031006 C432.525874,73.5387227 433.38783,71.2397983 433.78507,68.8715773 L433.804856,68.7532169 L420.574161,68.7532169 L420.548795,68.8169494 C419.767504,70.7628157 418.54027,72.4593157 416.901082,73.8609262 C415.26849,75.2564669 412.578111,75.9641006 408.90554,75.9641006 C406.241035,75.9641006 403.979859,75.5887866 402.185935,74.8487808 C400.39049,74.1107983 398.90756,73.0860192 397.776718,71.8022634 C396.643848,70.5174959 395.793053,68.9985366 395.248686,67.287368 C394.7099,65.6019959 394.355783,63.777525 394.194959,61.8630192 L433.651642,61.8630192 L433.666355,61.7790541 C433.980393,59.9738041 434.160496,58.3981936 434.201082,57.0952169 C434.241161,55.765432 434.26044,54.6627576 434.26044,53.723461 C434.26044,50.1807401 433.599894,46.8666471 432.296053,43.8722285 C430.992718,40.8798331 429.150091,38.2243099 426.819411,35.9790017" id="Fill-17" fill="#FF6161" mask="url(#mask-4)"></path>
                <path d="M474.254032,42.3843262 L474.254032,30.3687157 L474.191123,30.3429192 C472.836548,29.7890529 471.108577,29.5078203 469.054393,29.5078203 C467.238146,29.5078203 465.413783,29.7678087 463.631528,30.2796924 C461.853331,30.7935994 460.170006,31.5128669 458.628226,32.4182738 C457.086953,33.3246924 455.724261,34.3641401 454.576677,35.5067738 C453.540199,36.5406576 452.703102,37.6372622 452.082636,38.7718029 L452.082636,30.2169715 L438.956451,30.2169715 L438.956451,85.5049657 L452.082636,85.5049657 L452.082636,61.6436983 C452.082636,54.7666517 453.549331,49.679175 456.442642,46.5218843 C459.332909,43.3666169 463.576228,41.7672331 469.054393,41.7672331 C470.059416,41.7672331 470.913255,41.8066866 471.591557,41.8850878 C472.260727,41.9639948 473.115073,42.1223145 474.129736,42.3560006 L474.254032,42.3843262 Z" id="Fill-18" fill="#FF6161" mask="url(#mask-4)"></path>
                <path d="M517.544162,63.7258308 C516.711124,62.0657494 515.56557,60.6226622 514.138954,59.4380459 C512.717918,58.2569703 511.074165,57.2579878 509.25386,56.4679064 C507.41732,55.6732727 505.540701,54.9170808 503.676259,54.2195634 C501.154822,53.2782436 498.921042,52.4623657 497.034784,51.7962087 C495.161716,51.1361215 493.568696,50.5008192 492.301382,49.9090169 C491.053854,49.3258134 490.108188,48.6586448 489.490259,47.9257203 C488.876895,47.2013948 488.566408,46.2489471 488.566408,45.0941738 C488.566408,43.1695517 489.328927,41.687011 490.832657,40.686511 C492.352115,39.6784238 494.227719,39.1670459 496.408229,39.1670459 C499.523751,39.1670459 501.792537,39.9313308 503.150156,41.4381506 C504.509804,42.9505343 505.19876,45.0157727 505.19876,47.5767087 L505.19876,47.6778715 L517.969813,47.6778715 L517.969813,47.5767087 C517.969813,44.8964006 517.40769,42.3764355 516.299678,40.0861099 C515.189637,37.7962901 513.665613,35.7968076 511.769716,34.1433017 C509.873311,32.4887843 507.608584,31.1701273 505.039458,30.2237494 C502.470839,29.2778773 499.687112,28.7983657 496.763869,28.7983657 C493.927379,28.7983657 491.225839,29.1377669 488.734842,29.8069587 C486.246889,30.4766564 484.021226,31.5155983 482.120763,32.8969762 C480.221314,34.2773424 478.695769,35.9789006 477.586235,37.9525866 C476.476701,39.9267785 475.913564,42.2504878 475.913564,44.8579587 C475.913564,47.2266855 476.235212,49.2666331 476.869376,50.922668 C477.50354,52.5842669 478.42942,53.9889122 479.621649,55.0976564 C480.806775,56.2013424 482.230347,57.1816099 483.853807,58.0101331 C485.464584,58.8335983 487.242781,59.6105285 489.139693,60.3201855 C492.01271,61.4051564 494.566616,62.3201738 496.731907,63.0399471 C498.840883,63.7404994 500.631763,64.434982 502.055842,65.1041738 C503.459628,65.7657785 504.526546,66.4936448 505.225141,67.2670343 C505.915619,68.0333424 506.266185,69.0444645 506.266185,70.2725808 C506.266185,72.5861738 505.406259,74.2265285 503.71025,75.1486273 C501.994455,76.0818541 499.857068,76.5547901 497.356939,76.5547901 C494.308892,76.5547901 491.756001,75.8259122 489.768784,74.3873773 C487.790699,72.9574413 486.787704,70.4192669 486.787704,66.8446797 L486.787704,66.7435169 L474.016652,66.7435169 L474.016652,66.8446797 C474.016652,70.0788541 474.63864,72.977168 475.86486,75.4591971 C477.09108,77.9447669 478.77542,80.0641273 480.871713,81.7586041 C482.964962,83.4535866 485.388992,84.752011 488.077848,85.6179645 C490.763153,86.4844238 493.64581,86.9234703 496.64566,86.9234703 C499.636886,86.9234703 502.517514,86.5840692 505.206877,85.915889 C507.893197,85.2472029 510.277655,84.2077552 512.293789,82.8278948 C514.311954,81.4475285 515.918672,79.6660517 517.068285,77.5315169 C518.216883,75.396982 518.799807,72.8754994 518.799807,70.0368715 C518.799807,67.5103308 518.3772,65.3874297 517.544162,63.7258308" id="Fill-19" fill="#FF6161" mask="url(#mask-4)"></path>
            </g>
        </g>
    </g>
</svg>