<?xml version="1.0" encoding="UTF-8" standalone="no"?>
<svg width="58px" height="43px" viewBox="0 0 58 43" version="1.1" xmlns="http://www.w3.org/2000/svg" xmlns:xlink="http://www.w3.org/1999/xlink">
    <!-- Generator: Sketch 40.3 (33839) - http://www.bohemiancoding.com/sketch -->
    <title>Group 6 Copy</title>
    <desc>Created with Sketch.</desc>
    <defs>
        <polygon id="path-1" points="9.22895611 0 9.22895611 41.1543662 2.94892516e-05 41.1543662 2.94892516e-05 4.62529682e-15 9.22895611 4.62529682e-15"></polygon>
        <polygon id="path-3" points="9.22895611 2.38031816e-13 9.22895611 41.1543662 2.94892513e-05 41.1543662 2.94892513e-05 2.42657113e-13 9.22895611 2.42657113e-13"></polygon>
    </defs>
    <g id="Page-1" stroke="none" stroke-width="1" fill="none" fill-rule="evenodd">
        <g id="1.-HOMEPAGE-desktop" transform="translate(-1766.000000, -1227.000000)">
            <g id="Group-6-Copy" transform="translate(1766.000000, 1227.000000)">
                <rect id="Rectangle" fill="#FF6161" x="12.5405405" y="9.55555556" width="32.9189189" height="4.58666685"></rect>
                <rect id="Rectangle-Copy" fill="#FF6161" x="12.5405405" y="19.1111111" width="32.9189189" height="4.58666685"></rect>
                <rect id="Rectangle-Copy-2" fill="#FF6161" x="12.5405405" y="28.6666667" width="32.9189189" height="4.58666685"></rect>
                <g id="Page-1-Copy-61" transform="translate(0.626874, 0.796296)">
                    <mask id="mask-2" fill="white">
                        <use xlink:href="#path-1"></use>
                    </mask>
                    <g id="Clip-2"></g>
                    <polyline id="Stroke-1" stroke="#FF6161" stroke-width="7.57764" mask="url(#mask-2)" points="9.53681209 41.1543662 0.307855983 41.1543662 0.307855983 0 9.53681209 0"></polyline>
                </g>
                <g id="Page-1-Copy-62" transform="translate(53.000000, 21.203704) rotate(-180.000000) translate(-53.000000, -21.203704) translate(48.000000, 0.203704)">
                    <mask id="mask-4" fill="white">
                        <use xlink:href="#path-3"></use>
                    </mask>
                    <g id="Clip-2"></g>
                    <polyline id="Stroke-1" stroke="#FF6161" stroke-width="7.57764" mask="url(#mask-4)" points="9.53681209 41.1543662 0.307855983 41.1543662 0.307855983 1.17239551e-13 9.53681209 1.17239551e-13"></polyline>
                </g>
            </g>
        </g>
    </g>
</svg>