<?xml version="1.0" encoding="UTF-8" standalone="no"?>
<svg width="41px" height="41px" viewBox="0 0 41 41" version="1.1" xmlns="http://www.w3.org/2000/svg" xmlns:xlink="http://www.w3.org/1999/xlink">
    <!-- Generator: Sketch 40.3 (33839) - http://www.bohemiancoding.com/sketch -->
    <title>youtube-play</title>
    <desc>Created with Sketch.</desc>
    <defs>
        <circle id="path-1" cx="20.5" cy="20.5" r="20.5"></circle>
        <mask id="mask-2" maskContentUnits="userSpaceOnUse" maskUnits="objectBoundingBox" x="0" y="0" width="41" height="41" fill="white">
            <use xlink:href="#path-1"></use>
        </mask>
    </defs>
    <g id="Page-1" stroke="none" stroke-width="1" fill="none" fill-rule="evenodd">
        <g id="1.-HOMEPAGE-desktop" transform="translate(-273.000000, -9798.000000)">
            <g id="Group" transform="translate(199.000000, 9798.000000)">
                <g id="youtube-play" transform="translate(74.000000, 0.000000)">
                    <rect id="Rectangle" x="0" y="0" width="41" height="41"></rect>
                    <use id="Oval" stroke="#FFFFFF" mask="url(#mask-2)" stroke-width="3.72" xlink:href="#path-1"></use>
                    <path d="M29.8181818,23.8211676 L29.8181818,17.1788324 C29.8181818,17.1788324 29.8181818,13.9772727 26.6065648,13.9772727 L14.3923394,13.9772727 C14.3923394,13.9772727 11.1818182,13.9772727 11.1818182,17.1788324 L11.1818182,23.8211676 C11.1818182,23.8211676 11.1818182,27.0227273 14.3923394,27.0227273 L26.6065648,27.0227273 C26.6065648,27.0227273 29.8181818,27.0227273 29.8181818,23.8211676 M24.1181369,20.5092846 L18.0170508,24.0811373 L18.0170508,16.9363397 L24.1181369,20.5092846" id="Shape" fill="#FFFFFF"></path>
                </g>
            </g>
        </g>
    </g>
</svg>