<?xml version="1.0" standalone="no"?>
<!DOCTYPE svg PUBLIC "-//W3C//DTD SVG 1.1//EN" "http://www.w3.org/Graphics/SVG/1.1/DTD/svg11.dtd" >
<svg>
<metadata>
Created by FontForge 20090914 at Tue Nov 21 10:06:43 2017
 By www-data
&#194;&#169; 2014 Apple Inc. All rights reserved.
</metadata>
<defs>
<font id=".HelveticaNeueDeskInterface-Regular" horiz-adv-x="0" >
  <font-face 
    font-family="SFNS Display"
    font-weight="400"
    font-stretch="normal"
    units-per-em="2048"
    panose-1="0 0 5 0 0 0 0 0 0 0"
    ascent="1638"
    descent="-410"
    x-height="1078"
    cap-height="1443"
    bbox="-545 -907.999 2564 2125"
    underline-thickness="50"
    underline-position="-25"
    unicode-range="U+0020-U+FB02"
  />
<missing-glyph horiz-adv-x="1293" 
d="M120 1365h1053v-1365h-1053v1365zM501 313c0 -32 11 -57.834 33 -77.501s51 -29.5 87 -29.5c37.333 0 67 9.83301 89 29.5s33 45.5 33 77.5c0 32.667 -11 58.834 -33 78.501s-51.667 29.5 -89 29.5c-36 0 -65 -10 -87 -30s-33 -46 -33 -78zM508 887.999
c0.666992 40 12.165 71.665 34.498 94.998s52.5 35 90.5 35c36 0 65 -9.83301 87 -29.5s33 -46.5 33 -80.5c0 -12.667 -1.5 -24.167 -4.5 -34.5s-8.33301 -20.666 -16 -30.999s-18.167 -21.333 -31.5 -33s-30.333 -24.834 -51 -39.501c-46 -32.667 -78 -66.167 -96 -100.5
s-25.333 -74.5 -22 -120.5l1 -18h166v15c0 16 1.33301 29.833 4 41.5s7.66699 23 15 34s18 22.5 32 34.5s32.667 26.333 56 43c24 17.333 44.5 34.333 61.5 51s30.833 33.667 41.5 51s18.334 35.5 23.001 54.5s7 39.5 7 61.5c0 38 -7 72.333 -21 103s-34 56.834 -60 78.501
s-57.167 38.5 -93.5 50.5s-76.833 18 -121.5 18c-47.333 0 -90.166 -6.5 -128.499 -19.5s-70.666 -31.667 -96.999 -56s-46.333 -53.666 -60 -87.999s-19.834 -72.833 -18.501 -115.5h169z" />
    <glyph glyph-name=".notdef" horiz-adv-x="1293" 
d="M120 1365h1053v-1365h-1053v1365zM501 313c0 -32 11 -57.834 33 -77.501s51 -29.5 87 -29.5c37.333 0 67 9.83301 89 29.5s33 45.5 33 77.5c0 32.667 -11 58.834 -33 78.501s-51.667 29.5 -89 29.5c-36 0 -65 -10 -87 -30s-33 -46 -33 -78zM508 887.999
c0.666992 40 12.165 71.665 34.498 94.998s52.5 35 90.5 35c36 0 65 -9.83301 87 -29.5s33 -46.5 33 -80.5c0 -12.667 -1.5 -24.167 -4.5 -34.5s-8.33301 -20.666 -16 -30.999s-18.167 -21.333 -31.5 -33s-30.333 -24.834 -51 -39.501c-46 -32.667 -78 -66.167 -96 -100.5
s-25.333 -74.5 -22 -120.5l1 -18h166v15c0 16 1.33301 29.833 4 41.5s7.66699 23 15 34s18 22.5 32 34.5s32.667 26.333 56 43c24 17.333 44.5 34.333 61.5 51s30.833 33.667 41.5 51s18.334 35.5 23.001 54.5s7 39.5 7 61.5c0 38 -7 72.333 -21 103s-34 56.834 -60 78.501
s-57.167 38.5 -93.5 50.5s-76.833 18 -121.5 18c-47.333 0 -90.166 -6.5 -128.499 -19.5s-70.666 -31.667 -96.999 -56s-46.333 -53.666 -60 -87.999s-19.834 -72.833 -18.501 -115.5h169z" />
    <glyph glyph-name="space" unicode=" " horiz-adv-x="490" 
 />
    <glyph glyph-name="exclam" unicode="!" horiz-adv-x="546" 
d="M363 1443l-12 -964h-156l-12 964h180zM273 -10c-16 0 -31.001 3.00098 -45.001 9.00098s-26 14 -36 24s-18 22 -24 36s-9 29 -9 45s3 31 9 45s14 26.167 24 36.5s22 18.333 36 24s29 8.5 45 8.5c32.667 0 59.834 -10.833 81.501 -32.5s32.5 -48.834 32.5 -81.501
c0 -16 -2.83301 -31 -8.5 -45s-13.667 -26 -24 -36s-22.5 -18 -36.5 -24s-29 -9 -45 -9z" />
    <glyph glyph-name="quotedbl" unicode="&#x22;" horiz-adv-x="807" 
d="M135 934v509h160v-509h-160zM512 934v509h160v-509h-160z" />
    <glyph glyph-name="numbersign" unicode="#" horiz-adv-x="1206" 
d="M946 901l-71 -344h219l-28 -144h-220l-84 -413h-143l84 413h-308l-84 -413h-142l83 413h-216l28 144h219l69 344h-205l29 143h205l83 399h142l-80 -399h306l83 399h143l-82 -399h231l-28 -143h-233zM423 554h310l71 349h-310z" />
    <glyph glyph-name="dollar" unicode="$" horiz-adv-x="1239" 
d="M554 -137l-0.00195312 133.995c-67.333 4.66699 -128.666 17.667 -183.999 39s-102.5 49.333 -141.5 84s-69.333 75.167 -91 121.5s-32.5 97.5 -32.5 153.5h171c5.33301 -67.333 32.333 -122.166 81 -164.499s114.334 -68.5 197.001 -78.5v520l-80 22
c-107.333 28 -189.833 73.833 -247.5 137.5s-86.5 142.167 -86.5 235.5c0 54.667 9.66699 104.667 29 150s46.833 85 82.5 119s79 61.667 130 83s108.5 35 172.5 41v140h134v-139c62.667 -5.33301 119.5 -18.666 170.5 -39.999s94.667 -49 131 -83
s64.833 -73.833 85.5 -119.5s32 -95.5 34 -149.5h-170c-1.33301 30.667 -8.16602 59.5 -20.499 86.5s-29.333 50.833 -51 71.5s-47.834 37.834 -78.501 51.501s-64.334 22.834 -101.001 27.501v-489l85 -21c122.667 -32.667 213.5 -80.167 272.5 -142.5
s88.5 -144.166 88.5 -245.499c0 -59.333 -10 -113 -30 -161s-49.167 -89.5 -87.5 -124.5s-85.166 -63 -140.499 -84s-118 -34.5 -188 -40.5v-135h-134zM960.998 393.995c0 66 -21.8311 119.332 -65.498 159.999s-112.834 71 -207.501 91v-496
c87.333 4.66699 154.666 28.334 201.999 71.001s71 100.667 71 174zM312 1076.99c0 -60 20.499 -109.333 61.499 -148s101.167 -66.334 180.5 -83.001v460c-35.333 -2 -67.666 -9.16699 -96.999 -21.5s-54.833 -28.666 -76.5 -48.999s-38.5 -44 -50.5 -71
s-18 -56.167 -18 -87.5z" />
    <glyph glyph-name="percent" unicode="%" horiz-adv-x="1508" 
d="M137 0l1056 1443h172l-1054 -1443h-174zM1458 344c0 -54.667 -7.16699 -104.167 -21.5 -148.5s-34.666 -82.166 -60.999 -113.499s-58 -55.5 -95 -72.5s-78.5 -25.5 -124.5 -25.5s-87.5 8.5 -124.5 25.5s-68.833 41.167 -95.5 72.5s-47.167 69.166 -61.5 113.499
s-21.5 93.833 -21.5 148.5c0 54 7.16699 103.167 21.5 147.5s34.833 82.166 61.5 113.499s58.5 55.5 95.5 72.5s78.5 25.5 124.5 25.5s87.5 -8.5 124.5 -25.5s68.667 -41.167 95 -72.5s46.666 -69.166 60.999 -113.499s21.5 -93.5 21.5 -147.5zM1156 106
c22 0 41.833 5.5 59.5 16.5s32.5 26.833 44.5 47.5s21.333 45.667 28 75s10 62.333 10 99c0 74.667 -12.333 132.667 -37 174s-59.667 62 -105 62c-44 0 -78.833 -21.167 -104.5 -63.5s-38.5 -99.833 -38.5 -172.5c0 -36.667 3.33301 -69.667 10 -99
s16.167 -54.333 28.5 -75s27.333 -36.5 45 -47.5s37.5 -16.5 59.5 -16.5zM655 1102c0 -54.667 -7.16699 -104.167 -21.5 -148.5s-34.666 -82.166 -60.999 -113.499s-58 -55.5 -95 -72.5s-78.5 -25.5 -124.5 -25.5s-87.5 8.5 -124.5 25.5s-68.833 41.167 -95.5 72.5
s-47.167 69.166 -61.5 113.499s-21.5 93.833 -21.5 148.5c0 54 7.16699 103.167 21.5 147.5s34.833 82.166 61.5 113.499s58.5 55.5 95.5 72.5s78.5 25.5 124.5 25.5s87.5 -8.5 124.5 -25.5s68.667 -41.167 95 -72.5s46.666 -69.166 60.999 -113.499s21.5 -93.5 21.5 -147.5
zM353 864c22 0 41.833 5.5 59.5 16.5s32.5 26.833 44.5 47.5s21.333 45.667 28 75s10 62.333 10 99c0 74.667 -12.333 132.667 -37 174s-59.667 62 -105 62c-44 0 -78.833 -21.167 -104.5 -63.5s-38.5 -99.833 -38.5 -172.5c0 -36.667 3.33301 -69.667 10 -99
s16.167 -54.333 28.5 -75s27.333 -36.5 45 -47.5s37.5 -16.5 59.5 -16.5z" />
    <glyph glyph-name="ampersand" unicode="&#x26;" horiz-adv-x="1370" 
d="M1027 145c-61.333 -54 -132 -95.6621 -212 -124.995s-163 -44 -249 -44c-71.333 0 -136.666 10 -195.999 30s-110.333 48 -153 84s-75.834 79 -99.501 129s-35.5 105 -35.5 165c0 85.333 23.167 160.666 69.5 225.999s117.5 123.333 213.5 174
c14.667 7.33301 26.5 13.5 35.5 18.5s15.5 8.16699 19.5 9.5c-32 34 -59.333 65.667 -82 95s-41.167 57.5 -55.5 84.5s-24.833 53.167 -31.5 78.5s-10 51 -10 77c0 46 9.16699 88.5 27.5 127.5s43.833 72.667 76.5 101s71.167 50.666 115.5 66.999s92.5 24.5 144.5 24.5
c52.667 0 101.334 -8 146.001 -24s83.334 -38.333 116.001 -67s58 -62.667 76 -102s27 -82.333 27 -129c0 -36.667 -5.83301 -71.167 -17.5 -103.5s-29.834 -63.333 -54.501 -93s-56.667 -58.834 -96 -87.501s-86.333 -57.334 -141 -86.001l357 -385
c23.333 44 40.666 96.667 51.999 158s17 136.666 17 225.999v43h166v-44c0 -110.667 -9.83301 -206.667 -29.5 -288s-49.5 -153.333 -89.5 -216l253 -269h-226zM468 679.005c-37.333 -22.667 -69.167 -45.001 -95.5 -67.001s-47.833 -44.333 -64.5 -67
s-28.834 -46.167 -36.501 -70.5s-11.5 -50.5 -11.5 -78.5c0 -40 7.83301 -76.667 23.5 -110s37.5 -61.833 65.5 -85.5s61.833 -42 101.5 -55s83.5 -19.5 131.5 -19.5c32 0 64.167 3.16699 96.5 9.5s63.333 15.333 93 27s57.334 25.667 83.001 42s48.167 34.833 67.5 55.5
l-406 445l-25.5 -13c-10.333 -5.33301 -17.833 -9.66602 -22.5 -12.999zM564.999 876.004c43.333 22 80 43.167 110 63.5s54.5 41 73.5 62s32.667 42.667 41 65s12.5 46.5 12.5 72.5c0 27.333 -4.66699 52.5 -14 75.5s-22.666 42.667 -39.999 59s-38 29.166 -62 38.499
s-50.667 14 -80 14c-28.667 0 -54.834 -4.66699 -78.501 -14s-44.167 -22.333 -61.5 -39s-30.833 -36.667 -40.5 -60s-14.5 -48.666 -14.5 -75.999c0 -20 2.83301 -39.5 8.5 -58.5s14.5 -38.833 26.5 -59.5s27.833 -42.667 47.5 -66s43.5 -49 71.5 -77z" />
    <glyph glyph-name="quotesingle" unicode="'" horiz-adv-x="430" 
d="M135 934v509h160v-509h-160z" />
    <glyph glyph-name="parenleft" unicode="(" horiz-adv-x="636" 
d="M445 -277c-28 34.667 -57.8291 78.168 -89.4961 130.501s-60.834 114.5 -87.501 186.5s-48.834 154.333 -66.501 247s-26.5 196.667 -26.5 312c0 116 8.5 217.5 25.5 304.5s39 163.5 66 229.5s57.167 123.833 90.5 173.5s66 94.834 98 135.501h146
c-21.333 -24.667 -46.333 -60.834 -75 -108.501s-55.834 -106.667 -81.501 -177s-47.5 -151.833 -65.5 -244.5s-27 -196.334 -27 -311.001s8.5 -217.334 25.5 -308.001s38 -171.667 63 -243s51.667 -133.666 80 -186.999s54.166 -100 77.499 -140h-153z" />
    <glyph glyph-name="parenright" unicode=")" horiz-adv-x="636" 
d="M37 -277l77.002 139.999c28.667 53.333 55.5 115.666 80.5 186.999s46 152.333 63 243s25.5 193.334 25.5 308.001s-8.83301 218.334 -26.5 311.001s-39.334 174.167 -65.001 244.5s-52.834 129.333 -81.501 177s-53.667 83.834 -75 108.501h146
c32 -40.667 64.5 -85.834 97.5 -135.501s63 -107.5 90 -173.5s49.167 -142.5 66.5 -229.5s26 -188.5 26 -304.5c0 -115.333 -8.83301 -219.333 -26.5 -312s-40 -175 -67 -247s-56.333 -134.167 -88 -186.5s-61.5 -95.833 -89.5 -130.5h-153v0z" />
    <glyph glyph-name="asterisk" unicode="*" horiz-adv-x="988" 
d="M545 1045l16 -291h-134l16 292l-245 -161l-65 116l259 132l-259 131l65 118l245 -163l-16 294h134l-16 -294l245 163l65 -118l-258 -131l258 -132l-65 -116z" />
    <glyph glyph-name="plus" unicode="+" horiz-adv-x="1238" 
d="M700 30h-162v458h-427v162h427v447h162v-447h427v-162h-427v-458z" />
    <glyph glyph-name="comma" unicode="," horiz-adv-x="538" 
d="M99 -257l100 459h185l-150 -459h-135z" />
    <glyph glyph-name="hyphen" unicode="-" horiz-adv-x="878" 
d="M111 488v162h656v-162h-656z" />
    <glyph glyph-name="period" unicode="." horiz-adv-x="520" 
d="M260 -10c-16 0 -31.001 3.00098 -45.001 9.00098s-26 14 -36 24s-18 22 -24 36s-9 29 -9 45s3 31 9 45s14 26.167 24 36.5s22 18.333 36 24s29 8.5 45 8.5c32.667 0 59.834 -10.833 81.501 -32.5s32.5 -48.834 32.5 -81.501c0 -16 -2.83301 -31 -8.5 -45
s-13.667 -26 -24 -36s-22.5 -18 -36.5 -24s-29 -9 -45 -9z" />
    <glyph glyph-name="slash" unicode="/" horiz-adv-x="590" 
d="M0 -329l441 1773h149l-444 -1773h-146z" />
    <glyph glyph-name="zero" unicode="0" horiz-adv-x="1242" 
d="M622 -24c-84 0 -159 17.501 -225 52.501s-121.833 84.833 -167.5 149.5s-80.334 143 -104.001 235s-35.5 195 -35.5 309c0 112.667 12 215 36 307s58.833 170.333 104.5 235s101.334 114.667 167.001 150s140.5 53 224.5 53s158.833 -17.5 224.5 -52.5
s121.167 -84.833 166.5 -149.5s79.833 -142.834 103.5 -234.501s35.5 -194.167 35.5 -307.5c0 -114 -11.833 -217 -35.5 -309s-58.167 -170.5 -103.5 -235.5s-100.833 -115 -166.5 -150s-140.5 -52.5 -224.5 -52.5zM622 133.001c56 0 105.832 13.833 149.499 41.5
s80.167 67 109.5 118s51.666 112.833 66.999 185.5s23 154 23 244c0 88.667 -7.66699 169.167 -23 241.5s-37.833 134 -67.5 185s-66.167 90.5 -109.5 118.5s-93 42 -149 42s-105.667 -14 -149 -42s-80 -67.667 -110 -119s-52.833 -113 -68.5 -185s-23.5 -152 -23.5 -240
c0 -90 7.66699 -171.333 23 -244s37.833 -134.667 67.5 -186s66.334 -90.833 110.001 -118.5s93.834 -41.5 150.501 -41.5z" />
    <glyph glyph-name="one" unicode="1" horiz-adv-x="908" 
d="M485 1252h-4l-382 -275v190l384 276h176v-1443h-174v1252z" />
    <glyph glyph-name="two" unicode="2" horiz-adv-x="1159" 
d="M108 1027c0 62.667 12 121 36 175s57.333 100.5 100 139.5s93 69.667 151 92s121 33.5 189 33.5c64.667 0 125 -10.333 181 -31s104.667 -48.834 146 -84.501s74 -77.5 98 -125.5s36 -99.667 36 -155c0 -40 -5 -78.5 -15 -115.5s-27.167 -75.833 -51.5 -116.5
s-56.666 -85 -96.999 -133s-90.5 -103 -150.5 -165l-365 -377v-4h703v-160h-952v124l508 535c48.667 50.667 88.5 94.5 119.5 131.5s55.5 70.5 73.5 100.5s30.333 58.167 37 84.5s10 54.5 10 84.5c0 34.667 -7.5 67.167 -22.5 97.5s-35.333 56.833 -61 79.5
s-55.834 40.5 -90.501 53.5s-72 19.5 -112 19.5c-42 0 -81.167 -7.16699 -117.5 -21.5s-67.833 -34.166 -94.5 -59.499s-47.5 -55.333 -62.5 -90s-22.5 -72 -22.5 -112v-1h-174v1v0z" />
    <glyph glyph-name="three" unicode="3" horiz-adv-x="1212" 
d="M411 818l173 -0.00195312c41.333 0 79.333 6.33301 114 19s64.5 30.167 89.5 52.5s44.333 49 58 80s20.5 64.833 20.5 101.5c0 36 -6 68.667 -18 98s-29.833 54.5 -53.5 75.5s-52.834 37.333 -87.501 49s-75 17.5 -121 17.5c-41.333 0 -79.166 -5.66699 -113.499 -17
s-64 -27.666 -89 -48.999s-45.167 -47.166 -60.5 -77.499s-25 -64.5 -29 -102.5h-173c4.66699 61.333 19.334 116.666 44.001 165.999s57.5 91.5 98.5 126.5s89.333 62 145 81s117.5 28.5 185.5 28.5c64.667 0 124.5 -9.16699 179.5 -27.5s102.833 -44 143.5 -77
s72.5 -72.333 95.5 -118s34.5 -95.5 34.5 -149.5c0 -45.333 -7 -87.166 -21 -125.499s-33.833 -72.333 -59.5 -102s-56.834 -54.334 -93.501 -74.001s-77.334 -33.5 -122.001 -41.5v-4c54.667 -3.33301 104 -14 148 -32s81.5 -42.167 112.5 -72.5s55 -66.333 72 -108
s25.5 -87.834 25.5 -138.501c0 -62 -13.167 -118.833 -39.5 -170.5s-62.5 -96 -108.5 -133s-100 -65.833 -162 -86.5s-128.333 -31 -199 -31c-75.333 0 -143.666 10 -204.999 30s-113.833 47.833 -157.5 83.5s-78 78.334 -103 128.001s-39.167 104.5 -42.5 164.5h173
c4 -37.333 14.5 -71.333 31.5 -102s39.667 -57 68 -79s62.166 -39 101.499 -51s83.333 -18 132 -18c48 0 92 6.33301 132 19s74.5 30.5 103.5 53.5s51.667 50.333 68 82s24.5 66.5 24.5 104.5c0 42.667 -7.66699 81 -23 115s-37.5 62.833 -66.5 86.5
s-64.167 41.834 -105.5 54.501s-87.666 19 -138.999 19h-181v152z" />
    <glyph glyph-name="four" unicode="4" horiz-adv-x="1239" 
d="M803 300l-725 -0.000976562v163c30.667 56.667 65 116.834 103 180.501l132 212l172.5 260.5l225.5 327h266v-985h204v-158h-204v-300h-174v300zM256 457.999h547v835h-3l-184 -266l-147.5 -220.5l-117.5 -185l-95 -159.5v-4z" />
    <glyph glyph-name="five" unicode="5" horiz-adv-x="1198" 
d="M613 -24c-69.333 0 -133.331 10.1689 -191.998 30.502s-109.834 49 -153.501 86s-78.5 81.167 -104.5 132.5s-41 107.666 -45 168.999h177c4 -38.667 14.833 -73.834 32.5 -105.501s40.5 -59 68.5 -82s60.667 -40.833 98 -53.5s77.666 -19 120.999 -19
c48.667 0 93.5 8.16699 134.5 24.5s76 39 105 68s51.667 63.667 68 104s24.5 84.833 24.5 133.5s-8.16699 93.334 -24.5 134.001s-39 75.667 -68 105s-63.667 52.333 -104 69s-84.5 25 -132.5 25c-68 0 -129 -14.333 -183 -43s-96 -68.334 -126 -119.001h-169l79 808h826
v-160h-678l-44 -470h4c32.667 44 77.334 78.167 134.001 102.5s119.667 36.5 189 36.5s133.166 -12 191.499 -36s108.666 -57.5 150.999 -100.5s75.333 -94 99 -153s35.5 -123.5 35.5 -193.5c0 -72.667 -12.667 -139.167 -38 -199.5s-60.666 -112.333 -105.999 -156
s-99.5 -77.5 -162.5 -101.5s-132.167 -36 -207.5 -36z" />
    <glyph glyph-name="six" unicode="6" horiz-adv-x="1226" 
d="M639 -25c-108.667 0 -204.167 27.999 -286.5 83.999s-145.833 136.333 -190.5 241c-47.333 109.333 -71 241.666 -71 396.999c0 121.333 12.667 229.833 38 325.5s62 176.5 110 242.5s106.667 116.333 176 151s148 52 236 52c61.333 0 118.666 -8.83301 171.999 -26.5
s100.833 -42.834 142.5 -75.501s76.667 -72 105 -118s48.166 -97.333 59.499 -154h-183c-10 32.667 -24.333 62.334 -43 89.001s-41 49.334 -67 68.001s-54.833 33 -86.5 43s-65.5 15 -101.5 15c-60 0 -113.5 -13.167 -160.5 -39.5s-86.833 -64.833 -119.5 -115.5
s-57.834 -113.167 -75.501 -187.5s-27.167 -159.5 -28.5 -255.5h3c16 35.333 37.667 67.333 65 96s58.5 53.334 93.5 74.001s73.333 36.5 115 47.5s84.834 16.5 129.501 16.5c68.667 0 132.334 -12 191.001 -36s109.334 -57.333 152.001 -100s76 -93 100 -151
s36 -121.333 36 -190c0 -71.333 -12.667 -137.166 -38 -197.499s-60.833 -112.333 -106.5 -156s-99.667 -77.834 -162 -102.501s-130.5 -37 -204.5 -37zM637 134.999c46 0 89.002 8.5 129.002 25.5s75 40.167 105 69.5s53.5 64 70.5 104s25.5 82.667 25.5 128
c0 47.333 -8 90.833 -24 130.5s-38.5 74 -67.5 103s-63.5 51.5 -103.5 67.5s-84 24 -132 24s-92.167 -8 -132.5 -24s-75.333 -38.333 -105 -67s-52.834 -62.5 -69.501 -101.5s-25 -81.5 -25 -127.5s8.5 -89.167 25.5 -129.5s40.167 -75.5 69.5 -105.5
s64.166 -53.667 104.499 -71s83.5 -26 129.5 -26z" />
    <glyph glyph-name="seven" unicode="7" horiz-adv-x="1120" 
d="M853 1279v4h-777v160h955v-167l-642 -1276h-189z" />
    <glyph glyph-name="eight" unicode="8" horiz-adv-x="1227" 
d="M613 -24c-76 0 -146 10.3359 -210 31.0029s-119.167 49.334 -165.5 86.001s-82.5 80.334 -108.5 131.001s-39 106 -39 166c0 44.667 7.5 87.167 22.5 127.5s36 76.833 63 109.5s59.5 60.5 97.5 83.5s80.333 39.833 127 50.5v4c-39.333 12 -74.5 28.5 -105.5 49.5
s-57.5 45.333 -79.5 73s-38.833 58.5 -50.5 92.5s-17.5 70 -17.5 108c0 54.667 11.667 105.167 35 151.5s55.833 86.333 97.5 120s90.834 60 147.501 79s118.667 28.5 186 28.5s129.5 -9.5 186.5 -28.5s106.167 -45.333 147.5 -79s73.5 -73.834 96.5 -120.501
s34.5 -97.334 34.5 -152.001c0 -37.333 -5.83301 -72.833 -17.5 -106.5s-28.334 -64.334 -50.001 -92.001s-48 -52 -79 -73s-66.167 -37.833 -105.5 -50.5v-4c46.667 -11.333 89.167 -28.5 127.5 -51.5s71 -50.833 98 -83.5s48 -69 63 -109s22.5 -82.333 22.5 -127
c0 -60.667 -13 -116.334 -39 -167.001s-62.167 -94.334 -108.5 -131.001s-101.5 -65.167 -165.5 -85.5s-134.333 -30.5 -211 -30.5zM613 133.003c50 0 95.833 6.66602 137.5 19.999s77.5 32 107.5 56s53.333 52.5 70 85.5s25 69.167 25 108.5c0 40 -8.33301 76.5 -25 109.5
s-40 61.5 -70 85.5s-65.833 42.667 -107.5 56s-87.5 20 -137.5 20c-49.333 0 -94.833 -6.66699 -136.5 -20s-77.5 -32 -107.5 -56s-53.5 -52.667 -70.5 -86s-25.5 -69.666 -25.5 -108.999s8.5 -75.5 25.5 -108.5s40.5 -61.5 70.5 -85.5s65.833 -42.667 107.5 -56
s87.167 -20 136.5 -20zM613 832.002c42 0 80.499 5.83105 115.499 17.498s65.333 28.167 91 49.5s45.5 46.5 59.5 75.5s21 61.167 21 96.5s-7 67.833 -21 97.5s-33.667 55.167 -59 76.5s-55.666 37.833 -90.999 49.5s-74 17.5 -116 17.5s-80.667 -6 -116 -18
s-65.666 -28.667 -90.999 -50s-45 -46.666 -59 -75.999s-21 -61.666 -21 -96.999s7 -67.5 21 -96.5s33.667 -54.167 59 -75.5s55.666 -37.833 90.999 -49.5s74 -17.5 116 -17.5z" />
    <glyph glyph-name="nine" unicode="9" horiz-adv-x="1226" 
d="M576 -24c-61.333 0 -118.83 8.83301 -172.497 26.5s-101.334 42.834 -143.001 75.501s-76.667 72 -105 118s-47.833 97.333 -58.5 154h183c9.33301 -32.667 23.5 -62.334 42.5 -89.001s41.5 -49.5 67.5 -68.5s54.833 -33.667 86.5 -44s65.5 -15.5 101.5 -15.5
c60 0 113.5 13.333 160.5 40s86.667 65.667 119 117s57.333 114.166 75 188.499s27.167 159.5 28.5 255.5h-1h-2c-15.333 -36 -36.333 -68.5 -63 -97.5s-57.5 -53.667 -92.5 -74s-73.5 -36.166 -115.5 -47.499s-86 -17 -132 -17c-68.667 0 -132.334 12 -191.001 36
s-109.334 57.167 -152.001 99.5s-76 92.666 -100 150.999s-36 121.833 -36 190.5c0 71.333 12.667 137.166 38 197.499s60.833 112.333 106.5 156s99.667 77.834 162 102.501s130.5 37 204.5 37c54 0 105.167 -7.16699 153.5 -21.5s92.833 -35.333 133.5 -63
s77 -61.5 109 -101.5s59 -86 81 -138c47.333 -109.333 71 -242 71 -398c0 -121.333 -12.5 -229.666 -37.5 -324.999s-61.5 -176 -109.5 -242s-106.667 -116.333 -176 -151s-148 -52 -236 -52zM586.003 656c48 0 92.332 7.99902 132.999 23.999s75.834 38.333 105.501 67
s52.834 62.5 69.501 101.5s25 81.5 25 127.5s-8.5 89.167 -25.5 129.5s-40.333 75.333 -70 105s-64.5 53 -104.5 70s-83.333 25.5 -130 25.5c-46 0 -89.167 -8.5 -129.5 -25.5s-75.5 -40.167 -105.5 -69.5s-53.5 -63.666 -70.5 -102.999s-25.5 -81.666 -25.5 -126.999
c0 -47.333 8.16699 -90.833 24.5 -130.5s39.166 -73.834 68.499 -102.501s64 -51.167 104 -67.5s83.667 -24.5 131 -24.5z" />
    <glyph glyph-name="colon" unicode=":" horiz-adv-x="520" 
d="M260 -10c-16 0 -31.001 3.00098 -45.001 9.00098s-26 14 -36 24s-18 22 -24 36s-9 29 -9 45s3 31 9 45s14 26.167 24 36.5s22 18.333 36 24s29 8.5 45 8.5c32.667 0 59.834 -10.833 81.501 -32.5s32.5 -48.834 32.5 -81.501c0 -16 -2.83301 -31 -8.5 -45
s-13.667 -26 -24 -36s-22.5 -18 -36.5 -24s-29 -9 -45 -9zM259.999 726.001c-16 0 -31.001 3.00098 -45.001 9.00098s-26 14 -36 24s-18 22 -24 36s-9 29 -9 45s3 31 9 45s14 26.167 24 36.5s22 18.333 36 24s29 8.5 45 8.5c32.667 0 59.834 -10.833 81.501 -32.5
s32.5 -48.834 32.5 -81.501c0 -16 -2.83301 -31 -8.5 -45s-13.667 -26 -24 -36s-22.5 -18 -36.5 -24s-29 -9 -45 -9z" />
    <glyph glyph-name="semicolon" unicode=";" horiz-adv-x="520" 
d="M260 726c-16 0 -31.001 3.00098 -45.001 9.00098s-26 14 -36 24s-18 22 -24 36s-9 29 -9 45s3 31 9 45s14 26.167 24 36.5s22 18.333 36 24s29 8.5 45 8.5c32.667 0 59.834 -10.833 81.501 -32.5s32.5 -48.834 32.5 -81.501c0 -16 -2.83301 -31 -8.5 -45
s-13.667 -26 -24 -36s-22.5 -18 -36.5 -24s-29 -9 -45 -9zM61.999 -256.999l98 459h187l-150 -459h-135z" />
    <glyph glyph-name="less" unicode="&#x3c;" horiz-adv-x="1239" 
d="M352 580v-9l707 -378v-186l-879 491v142l879 526v-186z" />
    <glyph glyph-name="equal" unicode="=" horiz-adv-x="1239" 
d="M131 301v154h977v-154h-977zM131 684v154h977v-154h-977z" />
    <glyph glyph-name="greater" unicode="&#x3e;" horiz-adv-x="1239" 
d="M180 1167l879 -526v-142l-879 -491v186l707 378v9l-707 400v186z" />
    <glyph glyph-name="question" unicode="?" horiz-adv-x="1002" 
d="M56 1066c2.66699 54 13.666 104.496 32.999 151.496s47.166 88 83.499 123s81.166 62.667 134.499 83s115 30.5 185 30.5c62.667 0 120.167 -9.16699 172.5 -27.5s97 -43.666 134 -75.999s65.833 -70.666 86.5 -114.999s31 -92.166 31 -143.499
c0 -78.667 -18.667 -146.167 -56 -202.5s-88.333 -103.833 -153 -142.5c-32 -18.667 -58.333 -36.5 -79 -53.5s-37.334 -34.667 -50.001 -53s-21.5 -38 -26.5 -59s-7.5 -44.5 -7.5 -70.5v-65h-175v92c0 32.667 3.83301 63.167 11.5 91.5s19.834 54.833 36.501 79.5
s37.667 47.834 63 69.501s55 42.834 89 63.501c28.667 18 53.334 35.5 74.001 52.5s37.334 35 50.001 54s22 39.5 28 61.5s9 46.333 9 73c0 30.667 -5.83301 59.167 -17.5 85.5s-28.167 49.166 -49.5 68.499s-47 34.333 -77 45s-63.667 16 -101 16
c-38 0 -72.167 -5.33301 -102.5 -16s-56.666 -26 -78.999 -46s-40 -44.333 -53 -73s-20.833 -61 -23.5 -97h-171zM456.999 -10.0039c-16 0 -31.001 3.00098 -45.001 9.00098s-26 14 -36 24s-18 22 -24 36s-9 29 -9 45s3 31 9 45s14 26.167 24 36.5s22 18.333 36 24
s29 8.5 45 8.5c32.667 0 59.834 -10.833 81.501 -32.5s32.5 -48.834 32.5 -81.501c0 -16 -2.83301 -31 -8.5 -45s-13.667 -26 -24 -36s-22.5 -18 -36.5 -24s-29 -9 -45 -9z" />
    <glyph glyph-name="at" unicode="@" horiz-adv-x="1791" 
d="M889 875c-67.333 0 -119.667 -24.5 -157 -73.5s-56 -117.5 -56 -205.5c0 -87.333 18.667 -155.833 56 -205.5s89 -74.5 155 -74.5c34 0 65 6.5 93 19.5s51.667 31.667 71 56s34.333 53.833 45 88.5s16 73.334 16 116.001s-5.16699 81.167 -15.5 115.5
s-25.333 63.666 -45 87.999s-43.167 43 -70.5 56s-58 19.5 -92 19.5zM923.999 1435c116 0 223.168 -17.6689 321.501 -53.002s183 -85.166 254 -149.499s126.5 -141.833 166.5 -232.5s60 -191 60 -301c0 -80 -8.66699 -152.833 -26 -218.5s-42.166 -121.667 -74.499 -168
s-71.666 -82.333 -117.999 -108s-98.833 -38.5 -157.5 -38.5c-28.667 0 -55.834 4 -81.501 12s-48.5 19.5 -68.5 34.5s-36.667 32.667 -50 53s-21.333 43.166 -24 68.499h-8c-21.333 -50.667 -54.166 -89.834 -98.499 -117.501s-96.166 -41.5 -155.499 -41.5
c-52 0 -99.333 10.167 -142 30.5s-79.334 49.166 -110.001 86.499s-54.334 82.166 -71.001 134.499s-25 110.166 -25 173.499c0 60.667 8.5 116.334 25.5 167.001s40.833 94.167 71.5 130.5s67.334 64.666 110.001 84.999s89.667 30.5 141 30.5
c26.667 0 52.5 -3.33301 77.5 -10s48.167 -16.167 69.5 -28.5s40.166 -27.166 56.499 -44.499s29.166 -36.666 38.499 -57.999h8v122h151v-587c0 -32.667 9.16699 -59.334 27.5 -80.001s46.833 -31 85.5 -31c30 0 57.5 9 82.5 27s46.833 44.167 65.5 78.5
s33.167 76.666 43.5 126.999s15.5 107.833 15.5 172.5c0 90.667 -16.5 173.334 -49.5 248.001s-79.167 138.667 -138.5 192s-130.333 94.666 -213 123.999s-173.667 44 -273 44c-97.333 0 -187 -17.667 -269 -53s-152.833 -84.5 -212.5 -147.5
s-106.334 -138.167 -140.001 -225.5s-50.5 -183.333 -50.5 -288c0 -113.333 17.833 -213.666 53.5 -300.999s85 -160.666 148 -219.999s137.333 -104.333 223 -135s178.834 -46 279.501 -46c33.333 0 66.5 1.16699 99.5 3.5s64.333 5.5 94 9.5s56.667 9 81 15
s44.5 12.667 60.5 20v-126c-44 -15.333 -95 -27.333 -153 -36s-119.333 -13 -184 -13c-122 0 -234.5 18.333 -337.5 55s-192 90.334 -267 161.001s-133.5 157.834 -175.5 261.501s-63 222.834 -63 357.501c0 124.667 20.167 238.334 60.5 341.001s97 190.5 170 263.5
s160.167 129.5 261.5 169.5s212.666 60 333.999 60z" />
    <glyph glyph-name="A" unicode="A" horiz-adv-x="1292" 
d="M933 413h-574l-145 -413h-189l532 1443h178l532 -1443h-189zM412 566h468l-231 658h-6z" />
    <glyph glyph-name="B" unicode="B" horiz-adv-x="1256" 
d="M140 0l-0.000976562 1443h565c62 0 118.333 -8.66699 169 -26s94.167 -41.666 130.5 -72.999s64.5 -69.166 84.5 -113.499s30 -93.5 30 -147.5c0 -37.333 -6.5 -73.666 -19.5 -108.999s-30.667 -67.166 -53 -95.499s-48.666 -52.333 -78.999 -72
s-62.833 -32.5 -97.5 -38.5v-8c48.667 -6 92.834 -19 132.501 -39s73.5 -45.333 101.5 -76s49.667 -66.334 65 -107.001s23 -85 23 -133c0 -63.333 -11 -120.166 -33 -170.499s-54 -92.833 -96 -127.5s-93.333 -61.167 -154 -79.5s-129.334 -27.5 -206.001 -27.5h-563z
M319.999 820.996h288c107.333 0 189 20.5 245 61.5s84 100.833 84 179.5c0 72 -23.5 127 -70.5 165s-114.5 57 -202.5 57h-344v-463zM675.999 158.996c109.333 0 191.833 21.5 247.5 64.5s83.5 106.5 83.5 190.5s-29 147 -87 189s-145 63 -261 63h-339v-507h356z" />
    <glyph glyph-name="C" unicode="C" horiz-adv-x="1405" 
d="M734 -24c-99.333 0 -189.17 17.499 -269.503 52.499s-148.666 84.833 -204.999 149.5s-99.666 143 -129.999 235s-45.5 195 -45.5 309c0 113.333 15.333 215.833 46 307.5s74.334 170 131.001 235s125 115 205 150s169.333 52.5 268 52.5
c78.667 0 151.834 -11.5 219.501 -34.5s127.834 -55.333 180.501 -97s96.167 -92 130.5 -151s57.166 -124.5 68.499 -196.5h-182c-11.333 47.333 -29.833 90.166 -55.5 128.499s-56.667 71.166 -93 98.499s-77.333 48.5 -123 63.5s-94.167 22.5 -145.5 22.5
c-70.667 0 -134.667 -13.667 -192 -41s-106.166 -66.333 -146.499 -117s-71.5 -111.5 -93.5 -182.5s-33 -150.5 -33 -238.5c0 -88.667 10.833 -168.667 32.5 -240s52.834 -132.166 93.501 -182.499s89.667 -89.166 147 -116.499s121.666 -41 192.999 -41
c52.667 0 101.667 6.16699 147 18.5s85.666 30.5 120.999 54.5s65.5 53.167 90.5 87.5s44.167 73.5 57.5 117.5h182c-33.333 -143.333 -101.333 -253.166 -204 -329.499s-234.334 -114.5 -395.001 -114.5z" />
    <glyph glyph-name="D" unicode="D" horiz-adv-x="1399" 
d="M635 1443c106.667 0 202.164 -16.332 286.497 -48.999s155.833 -79.834 214.5 -141.501s103.334 -137.167 134.001 -226.5s46 -190.666 46 -303.999c0 -114 -15.333 -215.667 -46 -305s-75.167 -164.833 -133.5 -226.5s-129.666 -108.834 -213.999 -141.501
s-180.166 -49 -287.499 -49h-495v1443h495zM319.997 162.001l303.001 0.00195312c82 0 154.5 12.333 217.5 37s116.167 60.667 159.5 108s76.166 105.666 98.499 174.999s33.5 148.666 33.5 237.999c0 90 -11.167 170 -33.5 240s-55 128.667 -98 176
s-96.167 83.333 -159.5 108s-136 37 -218 37h-303v-1119z" />
    <glyph glyph-name="E" unicode="E" horiz-adv-x="1131" 
d="M1034 0h-894v1443h894v-162h-714v-463h677v-160h-677v-496h714v-162z" />
    <glyph glyph-name="F" unicode="F" horiz-adv-x="1081" 
d="M140 0v1443h876v-162h-696v-496h639v-160h-639v-625h-180z" />
    <glyph glyph-name="G" unicode="G" horiz-adv-x="1447" 
d="M1357 597c0 -97.333 -13.8301 -184.5 -41.4971 -261.5s-67.667 -142.167 -120 -195.5s-116.5 -94 -192.5 -122s-162 -42 -258 -42c-100.667 0 -191.667 17.667 -273 53s-150.833 85.833 -208.5 151.5s-102 144.834 -133 237.501s-46.5 196.334 -46.5 311.001
c0 112.667 15.5 214.5 46.5 305.5s75.167 168.5 132.5 232.5s126.666 113.333 207.999 148s172.666 52 273.999 52c78 0 150.667 -11.167 218 -33.5s127.333 -54 180 -95s96.667 -90.5 132 -148.5s59.666 -123 72.999 -195h-189c-15.333 48.667 -35.833 92 -61.5 130
s-56.167 70 -91.5 96s-75 45.833 -119 59.5s-91.333 20.5 -142 20.5c-74 0 -140.5 -13 -199.5 -39s-109 -63.5 -150 -112.5s-72.333 -108.833 -94 -179.5s-32.5 -150.667 -32.5 -240c0 -90.667 11 -172.334 33 -245.001s53.5 -134.334 94.5 -185.001s91 -89.667 150 -117
s125.167 -41 198.5 -41c64 0 122.5 9.83301 175.5 29.5s98.5 47.5 136.5 83.5s67.5 79 88.5 129s31.5 105.333 31.5 166v26h-407v158h587v-137v0z" />
    <glyph glyph-name="H" unicode="H" horiz-adv-x="1432" 
d="M1112 0v657h-792v-657h-180v1443h180v-624h792v624h180v-1443h-180z" />
    <glyph glyph-name="I" unicode="I" horiz-adv-x="460" 
d="M140 0v1443h180v-1443h-180z" />
    <glyph glyph-name="J" unicode="J" horiz-adv-x="1014" 
d="M221 339c0.666992 -30.667 6.83008 -58.6689 18.4971 -84.002s27.5 -47.166 47.5 -65.499s43.833 -32.5 71.5 -42.5s57.834 -15 90.501 -15c80 0 140.833 23 182.5 69s62.5 113.333 62.5 202v1040h180v-1041c0 -68.667 -9.66699 -130 -29 -184
s-47.166 -99.667 -83.499 -137s-80.666 -65.833 -132.999 -85.5s-111.833 -29.5 -178.5 -29.5c-60 0 -115 9.16699 -165 27.5s-93 44 -129 77s-64 72.333 -84 118s-30 95.834 -30 150.501h179z" />
    <glyph glyph-name="K" unicode="K" horiz-adv-x="1260" 
d="M140 0v1443h180v-704h10l637 704h227l-593 -639l646 -804h-230l-541 676l-156 -172v-504h-180z" />
    <glyph glyph-name="L" unicode="L" horiz-adv-x="1074" 
d="M1016 0h-876v1443h180v-1281h696v-162z" />
    <glyph glyph-name="M" unicode="M" horiz-adv-x="1702" 
d="M1562 0h-168v1112h-7l-460 -1102h-152l-460 1102h-7v-1112h-168v1443h209l498 -1204h8l498 1204h209v-1443z" />
    <glyph glyph-name="N" unicode="N" horiz-adv-x="1432" 
d="M140 0v1443h175l790 -1133h9v1133h178v-1443h-175l-790 1129h-9v-1129h-178z" />
    <glyph glyph-name="O" unicode="O" horiz-adv-x="1498" 
d="M749 1467c102 0 194.167 -17.333 276.5 -52s152.166 -84.334 209.499 -149.001s101.5 -143 132.5 -235s46.5 -195.333 46.5 -310s-15.5 -218 -46.5 -310s-75.167 -170.167 -132.5 -234.5s-127.166 -113.833 -209.499 -148.5s-174.5 -52 -276.5 -52
s-194.167 17.333 -276.5 52s-152.166 84.167 -209.499 148.5s-101.5 142.5 -132.5 234.5s-46.5 195.333 -46.5 310s15.5 218 46.5 310s75.167 170.333 132.5 235s127.166 114.334 209.499 149.001s174.5 52 276.5 52zM749 1301c-74 0 -140.5 -13.5 -199.5 -40.5
s-109.333 -65.667 -151 -116s-73.667 -111.333 -96 -183s-33.5 -151.834 -33.5 -240.501s11.167 -168.667 33.5 -240s54.333 -132.166 96 -182.499s92 -89 151 -116s125.5 -40.5 199.5 -40.5s140.5 13.5 199.5 40.5s109.333 65.667 151 116s73.667 111.166 96 182.499
s33.5 151.333 33.5 240s-11.167 168.834 -33.5 240.501s-54.333 132.667 -96 183s-92 89 -151 116s-125.5 40.5 -199.5 40.5z" />
    <glyph glyph-name="P" unicode="P" horiz-adv-x="1213" 
d="M685 1443c68 0 130.167 -11.332 186.5 -33.999s105 -54.334 146 -95.001s72.833 -89.5 95.5 -146.5s34 -119.5 34 -187.5c0 -68.667 -11.5 -131.5 -34.5 -188.5s-55 -106 -96 -147s-89.833 -72.833 -146.5 -95.5s-119 -34 -187 -34h-363v-515h-180v1443h545zM320 675.001
h318.001c51.333 0 97.166 6.83301 137.499 20.5s74.333 33.667 102 60s48.667 58.333 63 96s21.5 80.5 21.5 128.5c0 96 -28 170.5 -84 223.5s-136 79.5 -240 79.5h-318v-608z" />
    <glyph glyph-name="Q" unicode="Q" horiz-adv-x="1498" 
d="M1141 -163l-133.999 184c-77.333 -30 -163.333 -45 -258 -45c-102 0 -194.167 17.333 -276.5 52s-152.166 84.167 -209.499 148.5s-101.5 142.5 -132.5 234.5s-46.5 195.333 -46.5 310s15.5 218 46.5 310s75.167 170.333 132.5 235s127.166 114.334 209.499 149.001
s174.5 52 276.5 52s194.167 -17.333 276.5 -52s152.166 -84.334 209.499 -149.001s101.5 -143 132.5 -235s46.5 -195.333 46.5 -310c0 -140.667 -22.667 -263.5 -68 -368.5s-110 -189.167 -194 -252.5l191 -263h-202zM749.001 142c54 0 105 7.66504 153 22.998l-180 248h202
l123 -168c58.667 49.333 103.667 114.333 135 195s47 174.334 47 281.001c0 88.667 -11.167 168.834 -33.5 240.501s-54.333 132.667 -96 183s-92 89 -151 116s-125.5 40.5 -199.5 40.5s-140.5 -13.5 -199.5 -40.5s-109.333 -65.667 -151 -116s-73.667 -111.333 -96 -183
s-33.5 -151.834 -33.5 -240.501s11.167 -168.667 33.5 -240s54.333 -132.166 96 -182.499s92 -89 151 -116s125.5 -40.5 199.5 -40.5z" />
    <glyph glyph-name="R" unicode="R" horiz-adv-x="1237" 
d="M320 730l355.003 -0.000976562c93.333 0 165 23.833 215 71.5s75 116.167 75 205.5c0 43.333 -6.83301 82 -20.5 116s-33.334 62.833 -59.001 86.5s-56.834 41.834 -93.501 54.501s-78.334 19 -125.001 19h-347v-553zM320.003 -0.000976562l-180 -0.00195312v1443h551
c69.333 0 132.333 -10.167 189 -30.5s105 -49.333 145 -87s71 -83 93 -136s33 -111.833 33 -176.5c0 -50 -6.66699 -97.167 -20 -141.5s-32.5 -84.166 -57.5 -119.499s-55.333 -66.166 -91 -92.499s-76.167 -46.5 -121.5 -60.5l334 -599h-211l-309 571h-355v-571z" />
    <glyph glyph-name="S" unicode="S" horiz-adv-x="1216" 
d="M252 397c4 -39.333 16.0068 -74.834 36.0068 -106.501s46.167 -58.834 78.5 -81.501s70.333 -40.167 114 -52.5s91.167 -18.5 142.5 -18.5c48.667 0 93.667 6.16699 135 18.5s77 29.333 107 51s53.333 47.5 70 77.5s25 62.667 25 98c0 60.667 -22.333 110.667 -67 150
s-115.334 71.666 -212.001 96.999l-185 48c-66.667 16.667 -124.167 36.834 -172.5 60.501s-88.166 51 -119.499 82s-54.5 66.167 -69.5 105.5s-22.5 83.666 -22.5 132.999c0 60 12.5 115 37.5 165s60 93 105 129s98.667 64 161 84s131.166 30 206.499 30
c72 0 138.167 -10.167 198.5 -30.5s112.833 -48.666 157.5 -84.999s79.834 -79.666 105.501 -129.999s39.5 -105.833 41.5 -166.5h-180c-4 38.667 -14.5 73.5 -31.5 104.5s-39.833 57.167 -68.5 78.5s-62.334 37.833 -101.001 49.5s-81.334 17.5 -128.001 17.5
s-89.5 -5.83301 -128.5 -17.5s-72.5 -28 -100.5 -49s-49.667 -46 -65 -75s-23 -61.167 -23 -96.5c0 -27.333 5.16699 -52 15.5 -74s26.666 -42 48.999 -60s50.833 -34.5 85.5 -49.5s76.667 -28.833 126 -41.5l151 -40c74.667 -18.667 138.5 -40.167 191.5 -64.5
s96.5 -52.5 130.5 -84.5s58.833 -68.333 74.5 -109s23.5 -87 23.5 -139c0 -66 -12.5 -125.5 -37.5 -178.5s-61 -98 -108 -135s-103.833 -65.5 -170.5 -85.5s-141.334 -30 -224.001 -30c-76.667 0 -146.834 10 -210.501 30s-118.834 48.333 -165.501 85
s-83.834 80.834 -111.501 132.501s-43.5 109.5 -47.5 173.5h181z" />
    <glyph glyph-name="T" unicode="T" horiz-adv-x="1210" 
d="M515 0v1281h-465v162h1110v-162h-465v-1281h-180z" />
    <glyph glyph-name="U" unicode="U" horiz-adv-x="1426" 
d="M320 518c0 -54.667 8.66406 -105 25.9971 -151s42.833 -85.667 76.5 -119s74.834 -59.333 123.501 -78s104.334 -28 167.001 -28s118.334 9.33301 167.001 28s89.667 44.667 123 78s58.833 73 76.5 119s26.5 96.333 26.5 151v925h180v-937
c0 -77.333 -13 -148.333 -39 -213s-63.667 -120.5 -113 -167.5s-109.5 -83.667 -180.5 -110s-151.167 -39.5 -240.5 -39.5s-169.5 13.167 -240.5 39.5s-131.167 63 -180.5 110s-87 102.833 -113 167.5s-39 135.667 -39 213v937h180v-925z" />
    <glyph glyph-name="V" unicode="V" horiz-adv-x="1292" 
d="M557 0l-532 1443h189l429 -1224h6l429 1224h189l-532 -1443h-178z" />
    <glyph glyph-name="W" unicode="W" horiz-adv-x="1892" 
d="M608 0h-170l-393 1443h188l289 -1178h8l325 1178h182l325 -1178h8l289 1178h188l-393 -1443h-170l-333 1145h-10z" />
    <glyph glyph-name="X" unicode="X" horiz-adv-x="1300" 
d="M536 723v7l-485 713h217l385 -580h7l390 580h205l-498 -722v-6l487 -715h-216l-383 575h-7l-389 -575h-204z" />
    <glyph glyph-name="Y" unicode="Y" horiz-adv-x="1254" 
d="M537 0v621l-512 822h205l394 -648h6l394 648h205l-512 -822v-621h-180z" />
    <glyph glyph-name="Z" unicode="Z" horiz-adv-x="1263" 
d="M98 128l823 1146v7h-795v162h1022v-128l-819 -1146v-7h836v-162h-1067v128z" />
    <glyph glyph-name="bracketleft" unicode="[" horiz-adv-x="664" 
d="M657 1444v-136h-284v-1413h296v-135h-464v1684h452z" />
    <glyph glyph-name="backslash" unicode="\" horiz-adv-x="590" 
d="M0 1444h149l441 -1773h-146z" />
    <glyph glyph-name="bracketright" unicode="]" horiz-adv-x="664" 
d="M459 -240h-464v135h297v1413h-284v136h451v-1684z" />
    <glyph glyph-name="asciicircum" unicode="^" horiz-adv-x="896" 
d="M222 816h-167l298 627h190l298 -627h-167l-218 475h-16z" />
    <glyph glyph-name="underscore" unicode="_" horiz-adv-x="828" 
d="M-54 -235v128h936v-128h-936z" />
    <glyph glyph-name="grave" unicode="`" horiz-adv-x="1005" 
d="M557 1250l-261 300h198l211 -300h-148z" />
    <glyph glyph-name="a" unicode="a" horiz-adv-x="1062" 
d="M470 141c44 0 84.666 6.66797 121.999 20.001s69.5 32 96.5 56s48.167 52.5 63.5 85.5s23 68.833 23 107.5v87l-282 -18c-81.333 -5.33301 -142.666 -22.5 -183.999 -51.5s-62 -69.5 -62 -121.5c0 -25.333 5.16699 -48 15.5 -68s25.333 -37.333 45 -52
s43.167 -25.834 70.5 -33.501s58 -11.5 92 -11.5zM432.999 -9.99902c-54.667 0 -104.333 7.5 -149 22.5s-83 36.333 -115 64s-56.667 61 -74 100s-26 82.5 -26 130.5c0 93.333 34.333 166.333 103 219s169 83 301 91l302 18v90c0 67.333 -21.167 118.833 -63.5 154.5
s-103.5 53.5 -183.5 53.5c-31.333 0 -60.333 -3.83301 -87 -11.5s-50.5 -18.667 -71.5 -33s-38.333 -31.833 -52 -52.5s-23.167 -43.667 -28.5 -69h-167c1.33301 45.333 12.666 87.666 33.999 126.999s50.333 73.333 87 102s79.5 51.167 128.5 67.5s101.833 24.5 158.5 24.5
c64 0 121.667 -8.16699 173 -24.5s95.333 -39.666 132 -69.999s64.834 -67 84.501 -110s29.5 -90.833 29.5 -143.5v-740h-165v187h-4c-15.333 -30 -35 -57.167 -59 -81.5s-51 -45 -81 -62s-62.5 -30.167 -97.5 -39.5s-71.5 -14 -109.5 -14z" />
    <glyph glyph-name="b" unicode="b" horiz-adv-x="1173" 
d="M648 -10c-78.667 0 -147.999 16.332 -207.999 48.999s-107.667 80.334 -143 143.001h-4v-182h-165v1506h174v-603h4c34 59.333 81 105 141 137s128.333 48 205 48c68 0 130 -13.167 186 -39.5s104 -63.5 144 -111.5s71 -105.833 93 -173.5s33 -142.5 33 -224.5
c0 -82.667 -11 -157.667 -33 -225s-53.167 -125 -93.5 -173s-88.833 -85.167 -145.5 -111.5s-119.334 -39.5 -188.001 -39.5zM617.001 932.999c-47.333 0 -90.333 -9.66602 -129 -28.999s-71.834 -46.333 -99.501 -81s-49.167 -76.167 -64.5 -124.5s-23 -101.5 -23 -159.5
c0 -58.667 7.66699 -112.167 23 -160.5s36.833 -89.833 64.5 -124.5s60.834 -61.5 99.501 -80.5s81.667 -28.5 129 -28.5s90.166 9.33301 128.499 28s71.166 45 98.499 79s48.5 75.333 63.5 124s22.5 103 22.5 163s-7.5 114.167 -22.5 162.5s-36.167 89.666 -63.5 123.999
s-60.166 60.833 -98.499 79.5s-81.166 28 -128.499 28z" />
    <glyph glyph-name="c" unicode="c" horiz-adv-x="1060" 
d="M838 727c-5.33301 28.667 -15.332 55.4922 -29.999 80.4922s-33.834 46.833 -57.501 65.5s-51.5 33.334 -83.5 44.001s-68.333 16 -109 16c-47.333 0 -90.333 -9.33301 -129 -28s-71.834 -45.167 -99.501 -79.5s-49.167 -75.833 -64.5 -124.5s-23 -102.667 -23 -162
c0 -61.333 7.66699 -116.333 23 -165s37 -90 65 -124s61.5 -60 100.5 -78s82.167 -27 129.5 -27c75.333 0 137 17 185 51s79.667 83.667 95 149h171c-7.33301 -52.667 -23.5 -100.667 -48.5 -144s-57.167 -80.666 -96.5 -111.999s-85 -55.666 -137 -72.999
s-108.667 -26 -170 -26c-74 0 -141.333 12.667 -202 38s-112.667 61.833 -156 109.5s-76.833 105.334 -100.5 173.001s-35.5 143.834 -35.5 228.501c0 82.667 11.833 157.834 35.5 225.501s57 125.5 100 173.5s94.667 85 155 111s127.5 39 201.5 39
c66.667 0 126.667 -10 180 -30s99.333 -46.667 138 -80s69.334 -71.666 92.001 -114.999s36.667 -88.666 42 -135.999h-171z" />
    <glyph glyph-name="d" unicode="d" horiz-adv-x="1173" 
d="M527 -10c-68 0 -130.166 13.168 -186.499 39.501s-105 63.5 -146 111.5s-72.833 105.833 -95.5 173.5s-34 142.5 -34 224.5s11.333 156.833 34 224.5s54.167 125.5 94.5 173.5s88.5 85.167 144.5 111.5s117.667 39.5 185 39.5c77.333 0 145.666 -16 204.999 -48
s105.666 -77.667 138.999 -137h4v603h174v-1506h-166v182h-3c-35.333 -62.667 -82.666 -110.334 -141.999 -143.001s-128.333 -49 -207 -49zM558.001 933.001c-47.333 0 -90.333 -9.33398 -129 -28.001s-71.834 -45.167 -99.501 -79.5s-49 -75.833 -64 -124.5
s-22.5 -102.667 -22.5 -162c0 -60 7.5 -114.167 22.5 -162.5s36.333 -89.666 64 -123.999s60.834 -60.833 99.501 -79.5s81.667 -28 129 -28c46.667 0 89.334 9.5 128.001 28.5s71.667 45.833 99 80.5s48.666 76.167 63.999 124.5s23 101.833 23 160.5
s-7.66699 112.167 -23 160.5s-36.666 89.833 -63.999 124.5s-60.333 61.5 -99 80.5s-81.334 28.5 -128.001 28.5z" />
    <glyph glyph-name="e" unicode="e" horiz-adv-x="1084" 
d="M548 935c-42 0 -81.0029 -7.33203 -117.003 -21.999s-67.167 -35.334 -93.5 -62.001s-47.666 -58.834 -63.999 -96.501s-25.833 -79.167 -28.5 -124.5h593c-1.33301 46 -9.16602 87.667 -23.499 125s-34.166 69.333 -59.499 96s-55.5 47.334 -90.5 62.001
s-73.833 22 -116.5 22zM1006 308.001c-7.33301 -46 -24.002 -88.4941 -50.002 -127.494s-58.833 -72.667 -98.5 -101s-85 -50.333 -136 -66s-105.167 -23.5 -162.5 -23.5c-76 0 -144.333 12.667 -205 38s-112.5 61.666 -155.5 108.999s-76 104.666 -99 171.999
s-34.5 142.666 -34.5 225.999s11.5 159 34.5 227s55.667 126.167 98 174.5s93.5 85.666 153.5 111.999s126.667 39.5 200 39.5c72 0 136.833 -12.333 194.5 -37s106.834 -59.834 147.501 -105.501s71.834 -101.167 93.501 -166.5s32.5 -138.666 32.5 -219.999v-68h-774v-10
c0 -51.333 7.5 -97.833 22.5 -139.5s36.5 -77.167 64.5 -106.5s61.5 -52 100.5 -68s82.5 -24 130.5 -24c34 0 65.667 3.83301 95 11.5s55.833 18.667 79.5 33s43.667 31.666 60 51.999s28.5 43.166 36.5 68.499h172z" />
    <glyph glyph-name="f" unicode="f" horiz-adv-x="629" 
d="M175 934h-149.999v144h150v100c0 99.333 22.833 172.166 68.5 218.499s118.5 69.5 218.5 69.5c17.333 0 33.666 -0.666992 48.999 -2s31.333 -3.66602 48 -6.99902v-144c-11.333 2.66699 -24.333 4.66699 -39 6s-28.667 2 -42 2c-45.333 0 -78 -11.167 -98 -33.5
s-30.333 -58.833 -31 -109.5v-100h210v-144h-210v-934h-174v934z" />
    <glyph glyph-name="g" unicode="g" horiz-adv-x="1163" 
d="M554 155c47.333 0 90.5 9.33398 129.5 28.001s72.333 45 100 79s49.167 74.833 64.5 122.5s23 100.5 23 158.5s-7.66699 111 -23 159s-36.833 89 -64.5 123s-61 60.5 -100 79.5s-82.167 28.5 -129.5 28.5s-90 -9.33301 -128 -28s-70.667 -45 -98 -79
s-48.333 -75 -63 -123s-22 -101.333 -22 -160s7.33301 -111.834 22 -159.501s35.667 -88.5 63 -122.5s60 -60.167 98 -78.5s80.667 -27.5 128 -27.5zM557 -384.999c-61.333 0 -117.832 7 -169.499 21s-97 34 -136 60s-70.667 57.333 -95 94s-39.5 77.334 -45.5 122.001h181
c6.66699 -22.667 18 -43 34 -61s36 -33.333 60 -46s51.333 -22.334 82 -29.001s63.667 -10 99 -10c46.667 0 88.667 5.83301 126 17.5s69.166 28.334 95.499 50.001s46.666 48 60.999 79s21.5 65.5 21.5 103.5v169h-4c-34 -58.667 -81.167 -104.167 -141.5 -136.5
s-128.5 -48.5 -204.5 -48.5c-68 0 -130 13 -186 39s-104 62.667 -144 110s-71 104.5 -93 171.5s-33 141.167 -33 222.5c0 82 11 156.667 33 224s53 124.666 93 171.999s88.333 84 145 110s119.667 39 189 39c76.667 0 145.334 -16 206.001 -48s109 -77.667 145 -137h3v175
h166v-1048c0 -64.667 -11.167 -122.667 -33.5 -174s-54.5 -94.833 -96.5 -130.5s-93.167 -63 -153.5 -82s-128.5 -28.5 -204.5 -28.5z" />
    <glyph glyph-name="h" unicode="h" horiz-adv-x="1166" 
d="M128 1506l174 -0.00292969v-603h4c68 123.333 185.333 185 352 185c58.667 0 112.334 -9.66699 161.001 -29s90.334 -46.5 125.001 -81.5s61.5 -77 80.5 -126s28.5 -103.5 28.5 -163.5v-688h-174v657c0 42.667 -6.16699 81.167 -18.5 115.5s-30.333 63.333 -54 87
s-52.334 41.834 -86.001 54.501s-71.834 19 -114.501 19c-45.333 0 -86.666 -7.5 -123.999 -22.5s-69.333 -36.167 -96 -63.5s-47.334 -60.166 -62.001 -98.499s-22 -81.166 -22 -128.499v-620h-174v1506z" />
    <glyph glyph-name="i" unicode="i" horiz-adv-x="430" 
d="M128 1078h174v-1078h-174v1078zM215 1252c-15.333 0 -29.666 2.83301 -42.999 8.5s-25 13.5 -35 23.5s-17.833 21.667 -23.5 35s-8.5 27.666 -8.5 42.999s2.83301 29.666 8.5 42.999s13.5 25 23.5 35s21.667 17.833 35 23.5s27.666 8.5 42.999 8.5
s29.666 -2.83301 42.999 -8.5s25 -13.5 35 -23.5s17.833 -21.667 23.5 -35s8.5 -27.666 8.5 -42.999s-2.83301 -29.666 -8.5 -42.999s-13.5 -25 -23.5 -35s-21.667 -17.833 -35 -23.5s-27.666 -8.5 -42.999 -8.5z" />
    <glyph glyph-name="j" unicode="j" horiz-adv-x="430" 
d="M302 -81c0 -109.333 -26.502 -189.5 -79.502 -240.5s-136.833 -76.5 -251.5 -76.5h-31v147h27c29.333 0 54.333 3 75 9s37.334 15.667 50.001 29s21.834 30.5 27.501 51.5s8.5 46.833 8.5 77.5v1162h174v-1159zM214.998 1252c-15.333 0 -29.666 2.83301 -42.999 8.5
s-25 13.5 -35 23.5s-17.833 21.667 -23.5 35s-8.5 27.666 -8.5 42.999s2.83301 29.666 8.5 42.999s13.5 25 23.5 35s21.667 17.833 35 23.5s27.666 8.5 42.999 8.5s29.666 -2.83301 42.999 -8.5s25 -13.5 35 -23.5s17.833 -21.667 23.5 -35s8.5 -27.666 8.5 -42.999
s-2.83301 -29.666 -8.5 -42.999s-13.5 -25 -23.5 -35s-21.667 -17.833 -35 -23.5s-27.666 -8.5 -42.999 -8.5z" />
    <glyph glyph-name="k" unicode="k" horiz-adv-x="1026" 
d="M785 1078h212l-471 -466l485 -612h-202l-405 505l-102 -96v-409h-174v1506h174v-910z" />
    <glyph glyph-name="l" unicode="l" horiz-adv-x="430" 
d="M128 1506h174v-1506h-174v1506z" />
    <glyph glyph-name="m" unicode="m" horiz-adv-x="1701" 
d="M118 1078l164.007 -0.00195312v-175h4c12.667 28.667 29.167 54.5 49.5 77.5s43.666 42.5 69.999 58.5s55.166 28.167 86.499 36.5s64.666 12.5 99.999 12.5c73.333 0 136.166 -17.667 188.499 -53s90.166 -85.666 113.499 -150.999h4
c30.667 64.667 75.834 114.834 135.501 150.501s127.5 53.5 203.5 53.5c53.333 0 101.666 -8.33301 144.999 -25s80.166 -40.334 110.499 -71.001s53.833 -67.667 70.5 -111s25 -91.666 25 -144.999v-736h-174v696c0 74.667 -19.667 132.834 -59 174.501
s-95.333 62.5 -168 62.5c-36 0 -69.167 -6.33301 -99.5 -19s-56.333 -30.334 -78 -53.001s-38.667 -49.667 -51 -81s-18.5 -65.333 -18.5 -102v-678h-174v717c0 32.667 -5.33301 62.167 -16 88.5s-25.834 49 -45.501 68s-43.167 33.667 -70.5 44s-58 15.5 -92 15.5
c-36 0 -69.333 -6.66699 -100 -20s-57 -31.833 -79 -55.5s-39.333 -51.5 -52 -83.5s-19 -67 -19 -105v-669h-174v1078z" />
    <glyph glyph-name="n" unicode="n" horiz-adv-x="1135" 
d="M118 1078h164.002v-175h4c68.667 123.333 186 185 352 185c59.333 0 112.666 -9.16699 159.999 -27.5s87.666 -44.666 120.999 -78.999s58.833 -76 76.5 -125s26.5 -104.167 26.5 -165.5v-691h-174v661c0 88.667 -22.333 156.167 -67 202.5s-109.667 69.5 -195 69.5
c-44 0 -84.167 -7.33301 -120.5 -22s-67.333 -35.334 -93 -62.001s-45.5 -59 -59.5 -97s-21 -80 -21 -126v-626h-174v1078z" />
    <glyph glyph-name="o" unicode="o" horiz-adv-x="1124" 
d="M562 -10c-76 0 -144.5 13 -205.5 39s-113.167 62.833 -156.5 110.5s-76.666 105.334 -99.999 173.001s-35 143.167 -35 226.5c0 84 11.667 159.833 35 227.5s56.666 125.334 99.999 173.001s95.5 84.334 156.5 110.001s129.5 38.5 205.5 38.5s144.5 -12.833 205.5 -38.5
s113.167 -62.334 156.5 -110.001s76.666 -105.334 99.999 -173.001s35 -143.5 35 -227.5c0 -83.333 -11.667 -158.833 -35 -226.5s-56.666 -125.334 -99.999 -173.001s-95.5 -84.5 -156.5 -110.5s-129.5 -39 -205.5 -39zM562 145c50 0 94.834 9.00098 134.501 27.001
s73.334 43.833 101.001 77.5s48.667 74.834 63 123.501s21.5 104 21.5 166s-7.16699 117.333 -21.5 166s-35.333 90 -63 124s-61.334 59.833 -101.001 77.5s-84.5 26.5 -134.5 26.5s-94.833 -9 -134.5 -27s-73.334 -43.833 -101.001 -77.5s-48.667 -74.834 -63 -123.501
s-21.5 -104 -21.5 -166s7.33301 -117.333 22 -166s35.667 -89.834 63 -123.501s60.833 -59.5 100.5 -77.5s84.5 -27 134.5 -27z" />
    <glyph glyph-name="p" unicode="p" horiz-adv-x="1163" 
d="M636 1088c68.667 0 131.333 -13.167 188 -39.5s105.334 -63.5 146.001 -111.5s72.167 -105.833 94.5 -173.5s33.5 -142.5 33.5 -224.5s-11.167 -156.833 -33.5 -224.5s-53.5 -125.5 -93.5 -173.5s-88.167 -85.167 -144.5 -111.5s-118.5 -39.5 -186.5 -39.5
c-76.667 0 -144.667 16 -204 48s-106 77.667 -140 137h-4v-535h-174v1438h165v-175h4c16 28 36.167 53.333 60.5 76s51.666 42.167 81.999 58.5s63 28.833 98 37.5s71.167 13 108.5 13zM603.999 145c47.333 0 90.5 9.33398 129.5 28.001s72.333 45.167 100 79.5
s49 75.666 64 123.999s22.5 102.5 22.5 162.5c0 59.333 -7.5 113.333 -22.5 162s-36.333 90.167 -64 124.5s-61 60.833 -100 79.5s-82.167 28 -129.5 28c-46.667 0 -89.167 -9.5 -127.5 -28.5s-71.333 -45.833 -99 -80.5s-49 -76.167 -64 -124.5
s-22.5 -101.833 -22.5 -160.5s7.5 -112.167 22.5 -160.5s36.333 -89.833 64 -124.5s60.667 -61.5 99 -80.5s80.833 -28.5 127.5 -28.5z" />
    <glyph glyph-name="q" unicode="q" horiz-adv-x="1163" 
d="M525 1088c78.667 0 148.166 -15.833 208.499 -47.5s107.833 -77.5 142.5 -137.5h3v175h166v-1438h-174v535h-4c-34 -59.333 -81 -105 -141 -137s-128.333 -48 -205 -48c-68 0 -130 13.167 -186 39.5s-104 63.5 -144 111.5s-71 105.833 -93 173.5s-33 142.5 -33 224.5
c0 82.667 11 157.667 33 225s53.167 125 93.5 173s88.833 85.167 145.5 111.5s119.334 39.5 188.001 39.5zM553.999 145c46.667 0 89.5 9.49902 128.5 28.499s72.5 45.833 100.5 80.5s49.667 76.167 65 124.5s23 101.833 23 160.5c0 58 -7.66699 111.167 -23 159.5
s-37 89.833 -65 124.5s-61.5 61.667 -100.5 81s-81.833 29 -128.5 29c-47.333 0 -90 -9.33301 -128 -28s-70.667 -45.167 -98 -79.5s-48.333 -75.666 -63 -123.999s-22 -102.5 -22 -162.5s7.33301 -114.333 22 -163s35.667 -90 63 -124s60 -60.333 98 -79
s80.667 -28 128 -28z" />
    <glyph glyph-name="r" unicode="r" horiz-adv-x="649" 
d="M118 1078l164 0.000976562v-175h4c8 28 20.167 53.5 36.5 76.5s35.833 42.5 58.5 58.5s48.167 28.333 76.5 37s58.166 13 89.499 13c10.667 0 22.667 -0.666992 36 -2s23.666 -3 30.999 -5v-172c-7.33301 3.33301 -20.333 6.16602 -39 8.49902s-35.667 3.5 -51 3.5
c-35.333 0 -67.166 -6.16699 -95.499 -18.5s-52.666 -29.5 -72.999 -51.5s-36 -48.667 -47 -80s-16.5 -66 -16.5 -104v-667h-174v1078z" />
    <glyph glyph-name="s" unicode="s" horiz-adv-x="984" 
d="M100 777c0 45.333 9.82617 87.002 29.4932 125.002s47.167 70.667 82.5 98s77.333 48.666 126 63.999s102.334 23 161.001 23c54.667 0 105.5 -7.66699 152.5 -23s88 -36.833 123 -64.5s62.667 -60.334 83 -98.001s31.5 -78.5 33.5 -122.5h-167
c-5.33301 50.667 -28.666 90.667 -69.999 120s-95 44 -161 44c-33.333 0 -63.666 -3.83301 -90.999 -11.5s-50.666 -18.334 -69.999 -32.001s-34.333 -30.167 -45 -49.5s-16 -40.666 -16 -63.999c0 -36.667 14.667 -67.5 44 -92.5s75.333 -45.167 138 -60.5l164 -41
c54.667 -14 100.834 -29.5 138.501 -46.5s68.167 -36.833 91.5 -59.5s40.166 -48.834 50.499 -78.501s15.5 -64.167 15.5 -103.5c0 -46 -10.5 -88.167 -31.5 -126.5s-50.333 -71.5 -88 -99.5s-82.667 -49.667 -135 -65s-109.5 -23 -171.5 -23c-58 0 -111.5 7.5 -160.5 22.5
s-91.833 36.333 -128.5 64s-66.167 60.667 -88.5 99s-35.5 80.833 -39.5 127.5h175c9.33301 -55.333 35.5 -97.333 78.5 -126s101.5 -43 175.5 -43c36.667 0 69.834 3.66699 99.501 11s54.834 17.833 75.501 31.5s36.5 30.334 47.5 50.001s16.5 41.5 16.5 65.5
c0 38 -12.667 68.167 -38 90.5s-68.666 41.5 -129.999 57.5l-189 49c-187.333 48.667 -281 144.667 -281 288z" />
    <glyph glyph-name="t" unicode="t" horiz-adv-x="634" 
d="M349 1321l0.00292969 -243h210v-144h-210v-647c0 -50 10.833 -86.5 32.5 -109.5s55.5 -34.5 101.5 -34.5c5.33301 0 11.666 0.166992 18.999 0.5l22 1c7.33301 0.333008 14 0.833008 20 1.5s10.667 1.33398 14 2.00098v-147
c-10.667 -2.66699 -26.834 -4.83398 -48.501 -6.50098s-42.834 -2.5 -63.501 -2.5c-48.667 0 -90.167 5.33301 -124.5 16s-62.333 27.5 -84 50.5s-37.5 52.667 -47.5 89s-15 80.5 -15 132.5v654h-150v144h150v243h174z" />
    <glyph glyph-name="u" unicode="u" horiz-adv-x="1135" 
d="M1017 0h-164v178h-4c-34 -62.667 -80.5 -109.667 -139.5 -141s-130.167 -47 -213.5 -47c-59.333 0 -112.5 9.16699 -159.5 27.5s-87.167 44.666 -120.5 78.999s-58.833 76 -76.5 125s-26.5 104.167 -26.5 165.5v691h174v-661c0 -89.333 22.333 -157 67 -203
s109.667 -69 195 -69c44 0 84.167 7.33301 120.5 22s67.333 35.334 93 62.001s45.5 59 59.5 97s21 80 21 126v626h174v-1078z" />
    <glyph glyph-name="v" unicode="v" horiz-adv-x="1022" 
d="M599 0h-176l-398 1078h182l302 -890h4l303 890h181z" />
    <glyph glyph-name="w" unicode="w" horiz-adv-x="1512" 
d="M1180 0h-176l-246 838h-4l-246 -838h-176l-302 1078h172l219 -881h4l247 881h168l247 -881h4l219 881h172z" />
    <glyph glyph-name="x" unicode="x" horiz-adv-x="991" 
d="M492 413l-263 -413h-194l369 539l-363 539h194l263 -407h4l260 407h194l-365 -532l360 -546h-194l-261 413h-4z" />
    <glyph glyph-name="y" unicode="y" horiz-adv-x="1026" 
d="M210 -391c-11.333 0 -24.1689 0.666992 -38.502 2s-26.833 3 -37.5 5v147c10 -2 21.5 -3.5 34.5 -4.5s25.167 -1.5 36.5 -1.5c24.667 0 46.834 3.16699 66.501 9.5s37.5 16.5 53.5 30.5s30.167 32.333 42.5 55s24.166 50.334 35.499 83.001l21 64l-399 1079h185l302 -901
h4l302 901h183l-422 -1144c-23.333 -62.667 -46.666 -114.834 -69.999 -156.501s-49.166 -75 -77.499 -100s-60.333 -42.667 -96 -53s-77.5 -15.5 -125.5 -15.5z" />
    <glyph glyph-name="z" unicode="z" horiz-adv-x="990" 
d="M95 126l601 805v3h-600v144h796v-129l-597 -802v-3h600v-144h-800v126z" />
    <glyph glyph-name="braceleft" unicode="{" horiz-adv-x="734" 
d="M311 601c119.333 -11.333 179.001 -90 179.001 -236v-334c0 -39.333 4.5 -73.166 13.5 -101.499s23 -51.5 42 -69.5s43.167 -31.333 72.5 -40s64.666 -13 105.999 -13h45v-141h-60c-130 0 -226.333 28.833 -289 86.5s-94 146.5 -94 266.5v289c0 39.333 -3 72.5 -9 99.5
s-16 48.667 -30 65s-32.333 28.166 -55 35.499s-50.667 11 -84 11v191c33.333 0 61.333 3.66699 84 11s41 19.166 55 35.499s24 38.166 30 65.499s9 61 9 101v255c0 117.333 31.167 204 93.5 260s158.833 84 289.5 84h60v-141h-45c-42 0 -77.667 -4.16699 -107 -12.5
s-53.5 -21.666 -72.5 -39.999s-32.833 -41.666 -41.5 -69.999s-13 -62.5 -13 -102.5v-296c0 -144 -59.667 -222 -179 -234v-25v0z" />
    <glyph glyph-name="bar" unicode="|" horiz-adv-x="446" 
d="M150 -326v1769h146v-1769h-146z" />
    <glyph glyph-name="braceright" unicode="}" horiz-adv-x="734" 
d="M423 626c-119.333 12 -178.999 90 -178.999 234v296c0 40 -4.33301 74.167 -13 102.5s-22.5 51.666 -41.5 69.999s-43.167 31.666 -72.5 39.999s-65 12.5 -107 12.5h-45v141h60c130.667 0 227.167 -28 289.5 -84s93.5 -142.667 93.5 -260v-255c0 -40 3 -73.667 9 -101
s16 -49.166 30 -65.499s32.333 -28.166 55 -35.499s50.667 -11 84 -11v-191c-33.333 0 -61.333 -3.66699 -84 -11s-41 -19.166 -55 -35.499s-24 -38 -30 -65s-9 -60.167 -9 -99.5v-289c0 -120 -31.333 -208.833 -94 -266.5s-159 -86.5 -289 -86.5h-60v141h45
c41.333 0 76.666 4.33301 105.999 13s53.5 22 72.5 40s33 41.167 42 69.5s13.5 62.166 13.5 101.499v334c0 146 59.667 224.667 179 236v25z" />
    <glyph glyph-name="asciitilde" unicode="~" horiz-adv-x="1239" 
d="M575 636c-36 36.667 -65.998 62.667 -89.998 78s-47.333 23 -70 23c-86.667 0 -133.667 -59.667 -141 -179h-160c0 53.333 6.83301 101.166 20.5 143.499s33.667 78.333 60 108s58.5 52.5 96.5 68.5s80.667 24 128 24c42.667 0 83.667 -10 123 -30
s80.666 -51.667 123.999 -95c34.667 -36.667 64 -62.5 88 -77.5s47.333 -22.5 70 -22.5c87.333 0 134.666 59.667 141.999 179h159c0 -53.333 -6.83301 -101.166 -20.5 -143.499s-33.667 -78.333 -60 -108s-58.333 -52.5 -96 -68.5s-80.167 -24 -127.5 -24
c-42.667 0 -83.5 9.83301 -122.5 29.5s-80.167 51.167 -123.5 94.5z" />
    <glyph glyph-name="nonbreakingspace" unicode="&#xa0;" horiz-adv-x="490" 
 />
    <glyph glyph-name="exclamdown" unicode="&#xa1;" horiz-adv-x="546" 
d="M195 622h156l12 -964h-180zM273 885c-16 0 -31.001 3.00098 -45.001 9.00098s-26 14 -36 24s-18 22 -24 36s-9 29 -9 45s3 31 9 45s14 26.167 24 36.5s22 18.333 36 24s29 8.5 45 8.5c32.667 0 59.834 -10.833 81.501 -32.5s32.5 -48.834 32.5 -81.501
c0 -16 -2.83301 -31 -8.5 -45s-13.667 -26 -24 -36s-22.5 -18 -36.5 -24s-29 -9 -45 -9z" />
    <glyph glyph-name="cent" unicode="&#xa2;" horiz-adv-x="1239" 
d="M1125 538c-6 -49.333 -20.0049 -95.167 -42.0049 -137.5s-50.833 -79.666 -86.5 -111.999s-77 -58.833 -124 -79.5s-98.167 -34 -153.5 -40v-169h-172v171c-66 10 -125.833 30.667 -179.5 62s-99.167 71 -136.5 119s-66.166 103.667 -86.499 167s-30.5 132 -30.5 206
c0 73.333 10.167 141.166 30.5 203.499s49.333 117.333 87 165s83.167 86.834 136.5 117.501s113 51 179 61v171h172v-169c55.333 -6 107 -20 155 -42s90 -49.667 126 -83s65 -71.333 87 -114s34.667 -87.667 38 -135h-174c-7.33301 34.667 -20 65.834 -38 93.501
s-40.667 51.167 -68 70.5s-58.666 34.166 -93.999 44.499s-73.666 15.5 -114.999 15.5c-50.667 0 -97.167 -9.83301 -139.5 -29.5s-78.666 -47.167 -108.999 -82.5s-53.833 -77.333 -70.5 -126s-25 -102.334 -25 -161.001c0 -59.333 8.5 -113.833 25.5 -163.5
s40.667 -92.5 71 -128.5s66.5 -64 108.5 -84s88.333 -30 139 -30c86 0 156.333 17 211 51s89.334 90 104.001 168h174v0z" />
    <glyph glyph-name="sterling" unicode="&#xa3;" horiz-adv-x="1239" 
d="M1160 154l-0.00195312 -153.996h-1062v152c44 10 84.833 26.333 122.5 49s70.334 49.5 98.001 80.5s49.167 65.333 64.5 103s23 76.5 23 116.5c0 25.333 -2.16699 50.666 -6.5 75.999s-10.166 50.666 -17.499 75.999h-284v144h234c-15.333 44 -29.333 87.667 -42 131
s-19 87.333 -19 132c0 65.333 11.833 123.833 35.5 175.5s57.667 95.334 102 131.001s98.5 63 162.5 82s136.333 28.5 217 28.5c61.333 0 118.333 -5 171 -15s95.667 -22.667 129 -38v-160c-12.667 7.33301 -29.334 14.166 -50.001 20.499s-44 12 -70 17s-53.667 9 -83 12
s-58.666 4.5 -87.999 4.5c-53.333 0 -101.166 -5.83301 -143.499 -17.5s-78.166 -28.334 -107.499 -50.001s-51.833 -48.167 -67.5 -79.5s-23.5 -67 -23.5 -107c0 -46 6.16699 -91 18.5 -135s26.166 -88 41.499 -132h471v-144h-424c6 -24 11 -48 15 -72s6 -48.333 6 -73
c0 -42.667 -5.83301 -81.834 -17.5 -117.501s-27.334 -68 -47.001 -97s-42 -54.833 -67 -77.5s-50.833 -42 -77.5 -58v-4h786z" />
    <glyph glyph-name="currency" unicode="&#xa4;" horiz-adv-x="1239" 
d="M357 656c0 -36 7 -70 21 -102s33 -60 57 -84s52 -43 84 -57s66 -21 102 -21s70 7 102 21s60 33 84 57s42.833 52 56.5 84s20.5 66 20.5 102s-6.83301 70 -20.5 102s-32.5 60 -56.5 84s-52 43 -84 57s-66 21 -102 21s-70 -7 -102 -21s-60 -33 -84 -57s-43 -52 -57 -84
s-21 -66 -21 -102zM944 874c21.333 -31.333 37.832 -65.333 49.499 -102s17.5 -75.334 17.5 -116.001s-6 -79.5 -18 -116.5s-28.667 -71.167 -50 -102.5l169 -169l-106 -106l-169 169c-31.333 -21.333 -65.166 -37.666 -101.499 -48.999s-74.5 -17 -114.5 -17
c-40.667 0 -79.334 5.83301 -116.001 17.5s-71 28.167 -103 49.5l-169 -170l-106 106l170 170c-21.333 32 -37.833 66.333 -49.5 103s-17.5 75 -17.5 115s5.83301 78.333 17.5 115s28.167 70.667 49.5 102l-170 170l106 106l169 -169c32 21.333 66.333 37.833 103 49.5
s75.334 17.5 116.001 17.5c40 0 78.333 -5.83301 115 -17.5s70.667 -28.167 102 -49.5l168 169l106 -106z" />
    <glyph glyph-name="yen" unicode="&#xa5;" horiz-adv-x="1239" 
d="M710 269v-269h-180v269h-277v136h277v166h-277v136h223l-458 736h205l394 -647h6l393 647h205l-457 -736h223v-136h-277v-166h277v-136h-277z" />
    <glyph glyph-name="brokenbar" unicode="&#xa6;" horiz-adv-x="448" 
d="M151 774v669h146v-669h-146zM151 -326v669h146v-669h-146z" />
    <glyph glyph-name="section" unicode="&#xa7;" horiz-adv-x="988" 
d="M512 382c30.667 0 59.333 4.83203 86 14.499s49.667 23.167 69 40.5s34.666 37.5 45.999 60.5s17 48.167 17 75.5c0 42 -14.5 77.333 -43.5 106s-71.167 49 -126.5 61l-83 18c-30 0 -58.333 -5 -85 -15s-50 -23.667 -70 -41s-35.667 -37.666 -47 -60.999s-17 -48 -17 -74
c0 -41.333 14.833 -76.5 44.5 -105.5s71.834 -49.5 126.501 -61.5zM498.999 -257.001c-57.333 0 -110.331 7.33691 -158.998 22.0039s-91 35.167 -127 61.5s-64.667 57.833 -86 94.5s-33.666 77 -36.999 121h176c3.33301 -23.333 11.666 -44.333 24.999 -63
s30.666 -34.667 51.999 -48s46 -23.666 74 -30.999s58.333 -11 91 -11c34 0 65 3.83301 93 11.5s52.167 18.5 72.5 32.5s36 30.667 47 50s16.5 40.666 16.5 63.999c0 38 -15.667 69.5 -47 94.5s-81.666 46.833 -150.999 65.5l-141 38
c-109.333 29.333 -189.5 67.166 -240.5 113.499s-76.5 104.5 -76.5 174.5c0 64 19.5 118.833 58.5 164.5s93.833 78.167 164.5 97.5v16c-146 56.667 -219 147.667 -219 273c0 46.667 9.66699 89.167 29 127.5s46.666 71.166 81.999 98.499s77.5 48.666 126.5 63.999
s103.5 23 163.5 23c55.333 0 106.166 -6.66699 152.499 -20s86.666 -32.5 120.999 -57.5s62.166 -55.333 83.499 -91s35 -75.834 41 -120.501h-173c-7.33301 44 -31.5 78.833 -72.5 104.5s-93.167 38.5 -156.5 38.5c-33.333 0 -63.833 -3.83301 -91.5 -11.5
s-51.334 -18.334 -71.001 -32.001s-34.834 -30.167 -45.501 -49.5s-16 -40.666 -16 -63.999c0 -38 15.333 -69.667 46 -95s80.334 -47.333 149.001 -66l141 -38c108 -29.333 187.167 -66.5 237.5 -111.5s75.5 -101.167 75.5 -168.5c0 -34 -6.16699 -66.5 -18.5 -97.5
s-29.666 -59 -51.999 -84s-49.166 -46.333 -80.499 -64s-65.666 -30.167 -102.999 -37.5v-16c169.333 -38 254 -123.667 254 -257c0 -46 -10 -88.333 -30 -127s-48 -72 -84 -100s-79 -49.833 -129 -65.5s-105 -23.5 -165 -23.5z" />
    <glyph glyph-name="dieresis" unicode="&#xa8;" horiz-adv-x="1004" 
d="M305 1261c-15.333 0 -29.833 3 -43.5 9s-25.5 14 -35.5 24s-18 21.833 -24 35.5s-9 28.167 -9 43.5s3 29.833 9 43.5s14 25.5 24 35.5s21.833 18 35.5 24s28.167 9 43.5 9s29.833 -3 43.5 -9s25.5 -14 35.5 -24s18 -21.833 24 -35.5s9 -28.167 9 -43.5
s-3 -29.833 -9 -43.5s-14 -25.5 -24 -35.5s-21.833 -18 -35.5 -24s-28.167 -9 -43.5 -9zM699 1261c-15.333 0 -29.833 3 -43.5 9s-25.5 14 -35.5 24s-18 21.833 -24 35.5s-9 28.167 -9 43.5s3 29.833 9 43.5s14 25.5 24 35.5s21.833 18 35.5 24s28.167 9 43.5 9
s29.833 -3 43.5 -9s25.5 -14 35.5 -24s18 -21.833 24 -35.5s9 -28.167 9 -43.5s-3 -29.833 -9 -43.5s-14 -25.5 -24 -35.5s-21.833 -18 -35.5 -24s-28.167 -9 -43.5 -9z" />
    <glyph glyph-name="copyright" unicode="&#xa9;" horiz-adv-x="1706" 
d="M853 -168c-74 0 -145.001 9.16406 -213.001 27.4971s-131.333 44.333 -190 78s-112 74.334 -160 122.001s-89 100.834 -123 159.501s-60.333 122.334 -79 191.001s-28 140.667 -28 216s9.33301 147.333 28 216s45 132.5 79 191.5s75 112.333 123 160
s101.333 88.167 160 121.5s122 59.166 190 77.499s139 27.5 213 27.5c74.667 0 146 -9.16699 214 -27.5s131.333 -44.166 190 -77.499s112 -73.833 160 -121.5s89 -101 123 -160s60.167 -122.833 78.5 -191.5s27.5 -140.667 27.5 -216c0 -113.333 -20.333 -218.333 -61 -315
s-96.667 -180.5 -168 -251.5s-155.166 -126.667 -251.499 -167s-200.5 -60.5 -312.5 -60.5zM852.999 -28.0029c61.333 0 120 7.50293 176 22.5029s108.167 36.333 156.5 64s92.166 61.167 131.499 100.5s72.833 83.166 100.5 131.499s49.167 100.666 64.5 156.999
s23 115.833 23 178.5s-7.66699 122.334 -23 179.001s-36.833 109.167 -64.5 157.5s-61.167 92.166 -100.5 131.499s-83.166 72.666 -131.499 99.999s-100.5 48.5 -156.5 63.5s-114.667 22.5 -176 22.5c-91.333 0 -176.666 -16.5 -255.999 -49.5s-148.333 -78.5 -207 -136.5
s-104.834 -127 -138.501 -207s-50.5 -167 -50.5 -261c0 -93.333 16.833 -180 50.5 -260s79.834 -149.167 138.501 -207.5s127.667 -104 207 -137s164.666 -49.5 255.999 -49.5zM1092 768c-5.33301 21.333 -14.1641 41.501 -26.4971 60.501s-28 35.5 -47 49.5
s-40.833 25.167 -65.5 33.5s-52.334 12.5 -83.001 12.5c-38 0 -72.667 -6.83301 -104 -20.5s-58 -33.167 -80 -58.5s-39 -56.333 -51 -93s-18 -78 -18 -124c0 -46.667 6 -88.5 18 -125.5s29.167 -68.5 51.5 -94.5s49 -45.833 80 -59.5s65.5 -20.5 103.5 -20.5
c57.333 0 105.5 12.833 144.5 38.5s64.833 63.167 77.5 112.5h139c-6 -40 -18.5 -76.667 -37.5 -110s-43.833 -62.333 -74.5 -87s-66.834 -43.834 -108.501 -57.501s-88.167 -20.5 -139.5 -20.5c-60 0 -114.333 9.83301 -163 29.5s-90.334 47.834 -125.001 84.501
s-61.334 81.167 -80.001 133.5s-28 111.166 -28 176.499c0 64 9.33301 122 28 174s45.167 96.167 79.5 132.5s75.833 64.333 124.5 84s103 29.5 163 29.5c52 0 98.833 -7.33301 140.5 -22s77.834 -34.667 108.501 -60s55.5 -55 74.5 -89s31.5 -70.333 37.5 -109h-139z" />
    <glyph glyph-name="ordfeminine" unicode="&#xaa;" horiz-adv-x="886" 
d="M262 866c0 -40 14.167 -71.8311 42.5 -95.498s66.5 -35.5 114.5 -35.5c30.667 0 59 4.83301 85 14.5s48.5 23.167 67.5 40.5s34 37.666 45 60.999s16.5 48.666 16.5 75.999v84l-202 -15c-112.667 -8 -169 -51.333 -169 -130zM372 609.002
c-39.333 0 -75.166 6.16797 -107.499 18.501s-60.166 29.5 -83.499 51.5s-41.5 48.333 -54.5 79s-19.5 64.667 -19.5 102c0 74 26 132.167 78 174.5s127.667 66.833 227 73.5l218 14v69c0 44 -15.167 78 -45.5 102s-72.833 36 -127.5 36c-46 0 -83.5 -8.5 -112.5 -25.5
s-47.167 -41.167 -54.5 -72.5h-152c3.33301 34.667 13.5 66.167 30.5 94.5s39.5 52.5 67.5 72.5s61 35.5 99 46.5s80 16.5 126 16.5c49.333 0 93.666 -6.33301 132.999 -19s72.666 -30.834 99.999 -54.501s48.333 -52.5 63 -86.5s22 -72.333 22 -115v-556h-143v107h-11
c-28 -40.667 -64 -72.167 -108 -94.5s-92.333 -33.5 -145 -33.5z" />
    <glyph glyph-name="guillemotleft" unicode="&#xab;" horiz-adv-x="1303" 
d="M816 558l351 -413h-204l-350 416v8l350 416h204l-351 -413v-14zM338 558l351 -413h-204l-350 416v8l350 416h204l-351 -413v-14z" />
    <glyph glyph-name="logicalnot" unicode="&#xac;" horiz-adv-x="1239" 
d="M1093 126h-148v380h-799v148h947v-528z" />
    <glyph glyph-name="registered" unicode="&#xae;" horiz-adv-x="1070" 
d="M535 690c-60.667 0 -117.333 11.002 -170 33.002s-98.667 52.333 -138 91s-70.333 84 -93 136s-34 107.667 -34 167s11.333 115 34 167s53.5 97.167 92.5 135.5s85 68.666 138 90.999s109.833 33.5 170.5 33.5s117.5 -11 170.5 -33s99 -52.333 138 -91
s69.833 -83.834 92.5 -135.501s34 -107.5 34 -167.5c0 -59.333 -11.333 -115 -34 -167s-53.5 -97.333 -92.5 -136s-85 -69 -138 -91s-109.833 -33 -170.5 -33zM535.001 782.002c46.667 0 90.5 8.66699 131.5 26s76.5 41.166 106.5 71.499s53.667 65.833 71 106.5
s26 84.334 26 131.001s-8.66699 90.5 -26 131.5s-41 76.5 -71 106.5s-65.5 53.667 -106.5 71s-84.833 26 -131.5 26s-90.334 -8.66699 -131.001 -26s-76.167 -41 -106.5 -71s-54.166 -65.5 -71.499 -106.5s-26 -84.833 -26 -131.5s8.66699 -90.334 26 -131.001
s41.166 -76.167 71.499 -106.5s65.833 -54.166 106.5 -71.499s84.334 -26 131.001 -26zM364.001 927.002l-0.000976562 408h200c20.667 0 39.834 -3.16699 57.501 -9.5s33 -15 46 -26s23 -24 30 -39s10.5 -31.5 10.5 -49.5c0 -32.667 -8.5 -59.667 -25.5 -81
s-40.5 -34.333 -70.5 -39l116 -164h-108l-99 151h-71v-151h-86zM450 1145h97c21.333 0 38 5.5 50 16.5s18 26.167 18 45.5c0 37.333 -21.667 56 -65 56h-100v-118z" />
    <glyph glyph-name="macron" unicode="&#xaf;" horiz-adv-x="1000" 
d="M817 1320h-634v106h634v-106z" />
    <glyph glyph-name="degree" unicode="&#xb0;" horiz-adv-x="733" 
d="M366 862c-40 0 -77.167 7.5 -111.5 22.5s-64.333 35.333 -90 61s-45.834 55.834 -60.501 90.501s-22 71.667 -22 111s7.33301 76.333 22 111s34.834 64.834 60.501 90.501s55.667 46 90 61s71.5 22.5 111.5 22.5c39.333 0 76.333 -7.5 111 -22.5
s64.834 -35.333 90.501 -61s46 -55.834 61 -90.501s22.5 -71.667 22.5 -111s-7.5 -76.333 -22.5 -111s-35.333 -64.834 -61 -90.501s-55.834 -46 -90.501 -61s-71.667 -22.5 -111 -22.5zM366 991c22 0 42.667 4.16699 62 12.5s36 19.5 50 33.5s25.167 30.5 33.5 49.5
s12.5 39.167 12.5 60.5c0 22 -4.16699 42.5 -12.5 61.5s-19.5 35.5 -33.5 49.5s-30.667 25.167 -50 33.5s-40 12.5 -62 12.5c-20.667 0 -40.5 -4.16699 -59.5 -12.5s-35.667 -19.5 -50 -33.5s-25.833 -30.5 -34.5 -49.5s-13 -39.5 -13 -61.5
c0 -21.333 4.33301 -41.5 13 -60.5s20.167 -35.5 34.5 -49.5s31 -25.167 50 -33.5s38.833 -12.5 59.5 -12.5z" />
    <glyph glyph-name="plusminus" unicode="&#xb1;" horiz-adv-x="1239" 
d="M111 112v148h1017v-148h-1017zM693 371h-147v291h-435v136h435v291h147v-291h435v-136h-435v-291z" />
    <glyph glyph-name="two.sups" unicode="&#xb2;" horiz-adv-x="617" 
d="M45 1601c0 33.333 6.33203 63.834 18.999 91.501s30.5 51.334 53.5 71.001s50.5 35 82.5 46s67.333 16.5 106 16.5c37.333 0 71.5 -4.83301 102.5 -14.5s57.5 -23.334 79.5 -41.001s39.167 -38.834 51.5 -63.501s18.5 -52 18.5 -82c0 -18 -2.16699 -35 -6.5 -51
s-11.5 -32.5 -21.5 -49.5s-23 -34.833 -39 -53.5s-36 -39.334 -60 -62.001l-165 -155v-3h301v-126h-513v108l264 247c30.667 30.667 52.167 55.834 64.5 75.501s18.5 39.5 18.5 59.5c0 26 -9.5 47.167 -28.5 63.5s-43.5 24.5 -73.5 24.5c-15.333 0 -29.333 -2.66699 -42 -8
s-23.667 -12.5 -33 -21.5s-16.666 -19.667 -21.999 -32s-8 -25.833 -8 -40.5v-3h-149v3v0z" />
    <glyph glyph-name="three.sups" unicode="&#xb3;" horiz-adv-x="643" 
d="M230 1532l83.9932 -0.00292969c30.667 0 55.167 8 73.5 24s27.5 37.333 27.5 64c0 26 -9.16699 46.5 -27.5 61.5s-43.5 22.5 -75.5 22.5c-31.333 0 -56.666 -8.5 -75.999 -25.5s-29.666 -39.5 -30.999 -67.5h-147c0.666992 32.667 7.33398 62.167 20.001 88.5
s30.5 48.833 53.5 67.5s50.333 33.167 82 43.5s66.834 15.5 105.501 15.5c37.333 0 71.166 -4.33301 101.499 -13s56.333 -21 78 -37s38.5 -35.333 50.5 -58s18 -48 18 -76c0 -41.333 -12.833 -76.333 -38.5 -105s-60.167 -46.667 -103.5 -54v-4
c52 -4.66699 93 -21.667 123 -51s45 -67 45 -113c0 -31.333 -6.66699 -59.666 -20 -84.999s-32.166 -47 -56.499 -65s-53.666 -31.833 -87.999 -41.5s-72.5 -14.5 -114.5 -14.5c-39.333 0 -75.166 5.16699 -107.499 15.5s-60.333 24.833 -84 43.5
s-42.167 41.334 -55.5 68.001s-20.666 56.667 -21.999 90h154c2 -28 13.5 -49.833 34.5 -65.5s48.5 -23.5 82.5 -23.5c33.333 0 60.333 8.33301 81 25s31 38.334 31 65.001c0 28.667 -10 51.167 -30 67.5s-48 24.5 -84 24.5h-84v113z" />
    <glyph glyph-name="acute" unicode="&#xb4;" horiz-adv-x="1005" 
d="M299 1250l211 300h198l-261 -300h-148z" />
    <glyph glyph-name="paragraph" unicode="&#xb6;" horiz-adv-x="1201" 
d="M594 -220l-0.000976562 795h-20c-67.333 0 -129.833 10.667 -187.5 32s-107.667 51 -150 89s-75.666 83 -99.999 135s-36.5 109 -36.5 171c0 64 12.167 123 36.5 177s57.833 100.5 100.5 139.5s93 69.5 151 91.5s120.333 33 187 33h199v-1663h-180zM920.999 1443h180
v-1663h-180v1663z" />
    <glyph glyph-name="periodcentered" unicode="&#xb7;" horiz-adv-x="520" 
d="M260 491c-16 0 -31.001 3.00098 -45.001 9.00098s-26 14 -36 24s-18 22 -24 36s-9 29 -9 45s3 31 9 45s14 26.167 24 36.5s22 18.333 36 24s29 8.5 45 8.5c32.667 0 59.834 -10.833 81.501 -32.5s32.5 -48.834 32.5 -81.501c0 -16 -2.83301 -31 -8.5 -45
s-13.667 -26 -24 -36s-22.5 -18 -36.5 -24s-29 -9 -45 -9z" />
    <glyph glyph-name="cedilla" unicode="&#xb8;" horiz-adv-x="1005" 
d="M359 -156l63.0029 164.003l109 -8l-52 -142c139.333 0 209 -50 209 -150c0 -25.333 -5.5 -48.833 -16.5 -70.5s-26.167 -40.334 -45.5 -56.001s-42.333 -28 -69 -37s-56 -13.5 -88 -13.5c-28 -0.666992 -53.833 0.333008 -77.5 3s-46.834 7.33398 -69.501 14.001v98
c4.66699 -2 11.667 -3.83301 21 -5.5s19.666 -3.33398 30.999 -5.00098s23.166 -2.83398 35.499 -3.50098s23.833 -1 34.5 -1c39.333 0 69.166 6.16699 89.499 18.5s30.5 30.5 30.5 54.5c0 23.333 -11.667 40.166 -35 50.499s-61.666 15.5 -114.999 15.5h-55v74z" />
    <glyph glyph-name="one.sups" unicode="&#xb9;" horiz-adv-x="497" 
d="M251 1670h-3l-178 -122v142l176 120h158v-685h-153v545z" />
    <glyph glyph-name="ordmasculine" unicode="&#xba;" horiz-adv-x="949" 
d="M253 1029c0 -94 19.167 -166.334 57.5 -217.001s93.166 -76 164.499 -76s126.166 25.333 164.499 76s57.5 123.334 57.5 218.001c0 94 -19.167 166.167 -57.5 216.5s-93.166 75.5 -164.499 75.5s-126.166 -25.333 -164.499 -76s-57.5 -123 -57.5 -217zM475 603.999
c-59.333 0 -112.5 9.83594 -159.5 29.5029s-87 47.834 -120 84.501s-58.333 81.167 -76 133.5s-26.5 111.5 -26.5 177.5s8.83301 125.333 26.5 178s43 97.5 76 134.5s73 65.333 120 85s100.167 29.5 159.5 29.5c58.667 0 111.667 -9.83301 159 -29.5
s87.333 -47.834 120 -84.501s57.834 -81.334 75.501 -134.001s26.5 -112 26.5 -178s-8.83301 -125.333 -26.5 -178s-42.834 -97.334 -75.501 -134.001s-72.667 -64.834 -120 -84.501s-100.333 -29.5 -159 -29.5z" />
    <glyph glyph-name="guillemotright" unicode="&#xbb;" horiz-adv-x="1302" 
d="M135 985h204l350 -416v-8l-350 -416h-204l351 413v14zM613 985h204l350 -416v-8l-350 -416h-204l351 413v14z" />
    <glyph glyph-name="onequarter" unicode="&#xbc;" horiz-adv-x="1462" 
d="M91 0l1056 1443h172l-1054 -1443h-174zM1189 115l-339 -0.000976562v137c14.667 28.667 30.5 57.834 47.5 87.501l57 96l71.5 112.5l91 137h226v-442h87v-128h-87v-115h-154v115zM989 237.999l204 0.000976562v335h-3l-71 -111l-53.5 -86.5l-42 -71
c-12.333 -21.667 -23.833 -42.834 -34.5 -63.501v-3zM261 1303h-3l-178 -122v142l176 120h158v-685h-153v545z" />
    <glyph glyph-name="onehalf" unicode="&#xbd;" horiz-adv-x="1462" 
d="M91 0l1056 1443h172l-1054 -1443h-174zM261 1303h-3l-178 -122v142l176 120h158v-685h-153v545zM908 476c0 33.333 6.33203 63.834 18.999 91.501s30.5 51.334 53.5 71.001s50.5 35 82.5 46s67.333 16.5 106 16.5c37.333 0 71.5 -4.83301 102.5 -14.5
s57.5 -23.334 79.5 -41.001s39.167 -38.834 51.5 -63.501s18.5 -52 18.5 -82c0 -18 -2.16699 -35 -6.5 -51s-11.5 -32.5 -21.5 -49.5s-23 -34.833 -39 -53.5s-36 -39.334 -60 -62.001l-165 -155v-3h301v-126h-513v108l264 247c30.667 30.667 52.167 55.834 64.5 75.501
s18.5 39.5 18.5 59.5c0 26 -9.5 47.167 -28.5 63.5s-43.5 24.5 -73.5 24.5c-15.333 0 -29.333 -2.66699 -42 -8s-23.667 -12.5 -33 -21.5s-16.666 -19.667 -21.999 -32s-8 -25.833 -8 -40.5v-3h-149v3z" />
    <glyph glyph-name="threequarters" unicode="&#xbe;" horiz-adv-x="1572" 
d="M201 0l1056 1443h172l-1054 -1443h-174zM1299 115l-339 -0.000976562v137c14.667 28.667 30.5 57.834 47.5 87.501l57 96l71.5 112.5l91 137h226v-442h87v-128h-87v-115h-154v115zM1099 237.999l204 0.000976562v335h-3l-71 -111l-53.5 -86.5l-42 -71
c-12.333 -21.667 -23.833 -42.834 -34.5 -63.501v-3zM230 1165l83.9932 -0.00292969c30.667 0 55.167 8 73.5 24s27.5 37.333 27.5 64c0 26 -9.16699 46.5 -27.5 61.5s-43.5 22.5 -75.5 22.5c-31.333 0 -56.666 -8.5 -75.999 -25.5s-29.666 -39.5 -30.999 -67.5h-147
c0.666992 32.667 7.33398 62.167 20.001 88.5s30.5 48.833 53.5 67.5s50.333 33.167 82 43.5s66.834 15.5 105.501 15.5c37.333 0 71.166 -4.33301 101.499 -13s56.333 -21 78 -37s38.5 -35.333 50.5 -58s18 -48 18 -76c0 -41.333 -12.833 -76.333 -38.5 -105
s-60.167 -46.667 -103.5 -54v-4c52 -4.66699 93 -21.667 123 -51s45 -67 45 -113c0 -31.333 -6.66699 -59.666 -20 -84.999s-32.166 -47 -56.499 -65s-53.666 -31.833 -87.999 -41.5s-72.5 -14.5 -114.5 -14.5c-39.333 0 -75.166 5.16699 -107.499 15.5
s-60.333 24.833 -84 43.5s-42.167 41.334 -55.5 68.001s-20.666 56.667 -21.999 90h154c2 -28 13.5 -49.833 34.5 -65.5s48.5 -23.5 82.5 -23.5c33.333 0 60.333 8.33301 81 25s31 38.334 31 65.001c0 28.667 -10 51.167 -30 67.5s-48 24.5 -84 24.5h-84v113z" />
    <glyph glyph-name="questiondown" unicode="&#xbf;" horiz-adv-x="1002" 
d="M946 32c-2.66699 -54 -13.665 -104.666 -32.998 -151.999s-47.166 -88.5 -83.499 -123.5s-81 -62.667 -134 -83s-114.5 -30.5 -184.5 -30.5c-63.333 0 -121 9.16699 -173 27.5s-96.667 43.833 -134 76.5s-66.333 71.167 -87 115.5s-31 92.5 -31 144.5
c0 38.667 5 74.667 15 108s24 64.166 42 92.499s39.833 54.333 65.5 78s54.5 45.167 86.5 64.5c32 18.667 58.333 36.667 79 54s37.167 35 49.5 53s21 37.5 26 58.5s7.5 44.5 7.5 70.5v65h175v-92c0.666992 -33.333 -2.83301 -64 -10.5 -92s-19.834 -54.167 -36.501 -78.5
s-37.5 -47.5 -62.5 -69.5s-54.833 -43.333 -89.5 -64c-28.667 -18 -53.167 -35.5 -73.5 -52.5s-37 -35 -50 -54s-22.5 -39.333 -28.5 -61s-9 -45.5 -9 -71.5c0 -31.333 5.83301 -60.333 17.5 -87s28.167 -49.667 49.5 -69s47.166 -34.333 77.499 -45s64.166 -16 101.499 -16
s71.333 5.33301 102 16s57 26.167 79 46.5s39.5 44.833 52.5 73.5s20.833 61 23.5 97h171zM532.002 885.001c-16 0 -31.001 3.00098 -45.001 9.00098s-26 14 -36 24s-18 22 -24 36s-9 29 -9 45s3 31 9 45s14 26.167 24 36.5s22 18.333 36 24s29 8.5 45 8.5
c32.667 0 59.834 -10.833 81.501 -32.5s32.5 -48.834 32.5 -81.501c0 -16 -2.83301 -31 -8.5 -45s-13.667 -26 -24 -36s-22.5 -18 -36.5 -24s-29 -9 -45 -9z" />
    <glyph glyph-name="Agrave" unicode="&#xc0;" horiz-adv-x="1292" 
d="M933 413h-574l-145 -413h-189l532 1443h178l532 -1443h-189zM412 566h468l-231 658h-6zM291 1849h198l231 -299h-148z" />
    <glyph glyph-name="Aacute" unicode="&#xc1;" horiz-adv-x="1292" 
d="M933 413h-574l-145 -413h-189l532 1443h178l532 -1443h-189zM412 566h468l-231 658h-6zM575 1550l231 299h198l-281 -299h-148z" />
    <glyph glyph-name="Acircumflex" unicode="&#xc2;" horiz-adv-x="1292" 
d="M933 413h-574l-145 -413h-189l532 1443h178l532 -1443h-189zM412 566h468l-231 658h-6zM717 1849l292 -299h-168l-194 201h-2l-194 -201h-168l292 299h142z" />
    <glyph glyph-name="Atilde" unicode="&#xc3;" horiz-adv-x="1292" 
d="M933 413h-574l-145 -413h-189l532 1443h178l532 -1443h-189zM412 566h468l-231 658h-6zM774 1535c-21.333 0 -40.5029 3.83301 -57.5029 11.5s-32.5 17 -46.5 28s-27 23.167 -39 36.5s-23.667 25.5 -35 36.5s-22.666 20.333 -33.999 28s-23.666 11.5 -36.999 11.5
c-22 0 -39 -11.833 -51 -35.5s-18 -57.5 -18 -101.5h-114c0 78.667 15.5 140 46.5 184s74.833 66 131.5 66c22.667 0 43.167 -3.83301 61.5 -11.5s34.833 -17 49.5 -28s28 -23.167 40 -36.5s23.667 -25.5 35 -36.5s22.333 -20.333 33 -28s22.334 -11.5 35.001 -11.5
c41.333 0 62 46 62 138h114c0 -38 -4.16699 -72.5 -12.5 -103.5s-20.166 -57.5 -35.499 -79.5s-33.833 -38.833 -55.5 -50.5s-45.834 -17.5 -72.501 -17.5z" />
    <glyph glyph-name="Adieresis" unicode="&#xc4;" horiz-adv-x="1292" 
d="M933 413h-574l-145 -413h-189l532 1443h178l532 -1443h-189zM412 566h468l-231 658h-6zM449 1585c-15.333 0 -29.833 3 -43.5 9s-25.5 14 -35.5 24s-18 21.833 -24 35.5s-9 28.167 -9 43.5s3 29.833 9 43.5s14 25.5 24 35.5s21.833 18 35.5 24s28.167 9 43.5 9
s29.833 -3 43.5 -9s25.5 -14 35.5 -24s18 -21.833 24 -35.5s9 -28.167 9 -43.5s-3 -29.833 -9 -43.5s-14 -25.5 -24 -35.5s-21.833 -18 -35.5 -24s-28.167 -9 -43.5 -9zM843 1585c-15.333 0 -29.833 3 -43.5 9s-25.5 14 -35.5 24s-18 21.833 -24 35.5s-9 28.167 -9 43.5
s3 29.833 9 43.5s14 25.5 24 35.5s21.833 18 35.5 24s28.167 9 43.5 9s29.833 -3 43.5 -9s25.5 -14 35.5 -24s18 -21.833 24 -35.5s9 -28.167 9 -43.5s-3 -29.833 -9 -43.5s-14 -25.5 -24 -35.5s-21.833 -18 -35.5 -24s-28.167 -9 -43.5 -9z" />
    <glyph glyph-name="Aring" unicode="&#xc5;" horiz-adv-x="1292" 
d="M933 413h-574l-145 -413h-189l532 1443h178l532 -1443h-189zM412 566h468l-231 658h-6zM646 1507c-27.333 0 -53 5.33301 -77 16s-45 25 -63 43s-32.333 39 -43 63s-16 49.667 -16 77s5.33301 53 16 77s25 45 43 63s39 32.333 63 43s49.667 16 77 16s53 -5.33301 77 -16
s45 -25 63 -43s32.333 -39 43 -63s16 -49.667 16 -77s-5.33301 -53 -16 -77s-25 -45 -43 -63s-39 -32.333 -63 -43s-49.667 -16 -77 -16zM646 1590c16 0 31 3 45 9s26.333 14.333 37 25s19 23 25 37s9 29 9 45s-3 31 -9 45s-14.333 26.333 -25 37s-23 19 -37 25s-29 9 -45 9
s-31 -3 -45 -9s-26.333 -14.333 -37 -25s-19 -23 -25 -37s-9 -29 -9 -45s3 -31 9 -45s14.333 -26.333 25 -37s23 -19 37 -25s29 -9 45 -9z" />
    <glyph glyph-name="AE" unicode="&#xc6;" horiz-adv-x="1973" 
d="M480 612h482v680h-160zM962 459h-555l-217 -459h-185l687 1443h1144v-162h-694v-473h657v-160h-657v-486h694v-162h-874v459z" />
    <glyph glyph-name="Ccedilla" unicode="&#xc7;" horiz-adv-x="1405" 
d="M1151 988c-11.333 47.333 -29.8301 90.1689 -55.4971 128.502s-56.667 71.166 -93 98.499s-77.333 48.5 -123 63.5s-94.167 22.5 -145.5 22.5c-70.667 0 -134.667 -13.667 -192 -41s-106.166 -66.333 -146.499 -117s-71.5 -111.5 -93.5 -182.5s-33 -150.5 -33 -238.5
c0 -88.667 10.833 -168.667 32.5 -240s52.834 -132.166 93.501 -182.499s89.667 -89.166 147 -116.499s121.666 -41 192.999 -41c52.667 0 101.667 6.16699 147 18.5s85.666 30.5 120.999 54.5s65.5 53.167 90.5 87.5s44.167 73.5 57.5 117.5h182
c-31.333 -134 -93 -238.833 -185 -314.5s-210 -118.167 -354 -127.5l-44 -120c139.333 0 209 -50 209 -150c0 -25.333 -5.5 -48.833 -16.5 -70.5s-26.167 -40.334 -45.5 -56.001s-42.333 -28 -69 -37s-56 -13.5 -88 -13.5c-28 -0.666992 -53.833 0.333008 -77.5 3
s-46.834 7.33398 -69.501 14.001v98c4.66699 -2 11.667 -3.83301 21 -5.5s19.666 -3.33398 30.999 -5.00098s23.166 -2.83398 35.499 -3.50098s23.833 -1 34.5 -1c39.333 0 69.166 6.16699 89.499 18.5s30.5 30.5 30.5 54.5c0 23.333 -11.667 40.166 -35 50.499
s-61.666 15.5 -114.999 15.5h-55v74l51 134c-92 6 -174.833 27.667 -248.5 65s-136.334 88 -188.001 152s-91.334 140.5 -119.001 229.5s-41.5 188.167 -41.5 297.5c0 113.333 15.333 215.833 46 307.5s74.334 170 131.001 235s125 115 205 150s169.333 52.5 268 52.5
c78.667 0 151.834 -11.5 219.501 -34.5s127.834 -55.333 180.501 -97s96.167 -92 130.5 -151s57.166 -124.5 68.499 -196.5h-182z" />
    <glyph glyph-name="Egrave" unicode="&#xc8;" horiz-adv-x="1131" 
d="M1034 0h-894v1443h894v-162h-714v-463h677v-160h-677v-496h714v-162zM232 1849h198l231 -299h-148z" />
    <glyph glyph-name="Eacute" unicode="&#xc9;" horiz-adv-x="1131" 
d="M1034 0h-894v1443h894v-162h-714v-463h677v-160h-677v-496h714v-162zM516 1550l231 299h198l-281 -299h-148z" />
    <glyph glyph-name="Ecircumflex" unicode="&#xca;" horiz-adv-x="1131" 
d="M1034 0h-894v1443h894v-162h-714v-463h677v-160h-677v-496h714v-162zM658 1849l292 -299h-168l-194 201h-2l-194 -201h-168l292 299h142z" />
    <glyph glyph-name="Edieresis" unicode="&#xcb;" horiz-adv-x="1131" 
d="M1034 0h-894v1443h894v-162h-714v-463h677v-160h-677v-496h714v-162zM390 1585c-15.333 0 -29.833 3 -43.5 9s-25.5 14 -35.5 24s-18 21.833 -24 35.5s-9 28.167 -9 43.5s3 29.833 9 43.5s14 25.5 24 35.5s21.833 18 35.5 24s28.167 9 43.5 9s29.833 -3 43.5 -9
s25.5 -14 35.5 -24s18 -21.833 24 -35.5s9 -28.167 9 -43.5s-3 -29.833 -9 -43.5s-14 -25.5 -24 -35.5s-21.833 -18 -35.5 -24s-28.167 -9 -43.5 -9zM784 1585c-15.333 0 -29.833 3 -43.5 9s-25.5 14 -35.5 24s-18 21.833 -24 35.5s-9 28.167 -9 43.5s3 29.833 9 43.5
s14 25.5 24 35.5s21.833 18 35.5 24s28.167 9 43.5 9s29.833 -3 43.5 -9s25.5 -14 35.5 -24s18 -21.833 24 -35.5s9 -28.167 9 -43.5s-3 -29.833 -9 -43.5s-14 -25.5 -24 -35.5s-21.833 -18 -35.5 -24s-28.167 -9 -43.5 -9z" />
    <glyph glyph-name="Igrave" unicode="&#xcc;" horiz-adv-x="460" 
d="M140 0v1443h180v-1443h-180zM-125 1849h198l231 -299h-148z" />
    <glyph glyph-name="Iacute" unicode="&#xcd;" horiz-adv-x="460" 
d="M140 0v1443h180v-1443h-180zM159 1550l231 299h198l-281 -299h-148z" />
    <glyph glyph-name="Icircumflex" unicode="&#xce;" horiz-adv-x="460" 
d="M140 0v1443h180v-1443h-180zM301 1849l292 -299h-168l-194 201h-2l-194 -201h-168l292 299h142z" />
    <glyph glyph-name="Idieresis" unicode="&#xcf;" horiz-adv-x="460" 
d="M140 0v1443h180v-1443h-180zM33 1585c-15.333 0 -29.833 3 -43.5 9s-25.5 14 -35.5 24s-18 21.833 -24 35.5s-9 28.167 -9 43.5s3 29.833 9 43.5s14 25.5 24 35.5s21.833 18 35.5 24s28.167 9 43.5 9s29.833 -3 43.5 -9s25.5 -14 35.5 -24s18 -21.833 24 -35.5
s9 -28.167 9 -43.5s-3 -29.833 -9 -43.5s-14 -25.5 -24 -35.5s-21.833 -18 -35.5 -24s-28.167 -9 -43.5 -9zM427 1585c-15.333 0 -29.833 3 -43.5 9s-25.5 14 -35.5 24s-18 21.833 -24 35.5s-9 28.167 -9 43.5s3 29.833 9 43.5s14 25.5 24 35.5s21.833 18 35.5 24
s28.167 9 43.5 9s29.833 -3 43.5 -9s25.5 -14 35.5 -24s18 -21.833 24 -35.5s9 -28.167 9 -43.5s-3 -29.833 -9 -43.5s-14 -25.5 -24 -35.5s-21.833 -18 -35.5 -24s-28.167 -9 -43.5 -9z" />
    <glyph glyph-name="Eth" unicode="&#xd0;" horiz-adv-x="1452" 
d="M623 162c82 0 154.501 12.335 217.501 37.002s116.167 60.667 159.5 108s76.166 105.666 98.499 174.999s33.5 148.666 33.5 237.999c0 90 -11.167 170 -33.5 240s-55 128.667 -98 176s-96.167 83.333 -159.5 108s-136 37 -218 37h-303v-455h277v-163h-277v-501h303z
M635.001 1443c106.667 0 202.164 -16.332 286.497 -48.999s155.833 -79.834 214.5 -141.501s103.334 -137.167 134.001 -226.5s46 -190.666 46 -303.999c0 -114 -15.333 -215.667 -46 -305s-75.167 -164.833 -133.5 -226.5s-129.666 -108.834 -213.999 -141.501
s-180.166 -49 -287.499 -49h-495v663h-129v163h129v617h495z" />
    <glyph glyph-name="Ntilde" unicode="&#xd1;" horiz-adv-x="1432" 
d="M140 0v1443h175l790 -1133h9v1133h178v-1443h-175l-790 1129h-9v-1129h-178zM844 1535c-21.333 0 -40.5029 3.83301 -57.5029 11.5s-32.5 17 -46.5 28s-27 23.167 -39 36.5s-23.667 25.5 -35 36.5s-22.666 20.333 -33.999 28s-23.666 11.5 -36.999 11.5
c-22 0 -39 -11.833 -51 -35.5s-18 -57.5 -18 -101.5h-114c0 78.667 15.5 140 46.5 184s74.833 66 131.5 66c22.667 0 43.167 -3.83301 61.5 -11.5s34.833 -17 49.5 -28s28 -23.167 40 -36.5s23.667 -25.5 35 -36.5s22.333 -20.333 33 -28s22.334 -11.5 35.001 -11.5
c41.333 0 62 46 62 138h114c0 -38 -4.16699 -72.5 -12.5 -103.5s-20.166 -57.5 -35.499 -79.5s-33.833 -38.833 -55.5 -50.5s-45.834 -17.5 -72.501 -17.5z" />
    <glyph glyph-name="Ograve" unicode="&#xd2;" horiz-adv-x="1498" 
d="M749 1467c102 0 194.167 -17.333 276.5 -52s152.166 -84.334 209.499 -149.001s101.5 -143 132.5 -235s46.5 -195.333 46.5 -310s-15.5 -218 -46.5 -310s-75.167 -170.167 -132.5 -234.5s-127.166 -113.833 -209.499 -148.5s-174.5 -52 -276.5 -52
s-194.167 17.333 -276.5 52s-152.166 84.167 -209.499 148.5s-101.5 142.5 -132.5 234.5s-46.5 195.333 -46.5 310s15.5 218 46.5 310s75.167 170.333 132.5 235s127.166 114.334 209.499 149.001s174.5 52 276.5 52zM749 1301c-74 0 -140.5 -13.5 -199.5 -40.5
s-109.333 -65.667 -151 -116s-73.667 -111.333 -96 -183s-33.5 -151.834 -33.5 -240.501s11.167 -168.667 33.5 -240s54.333 -132.166 96 -182.499s92 -89 151 -116s125.5 -40.5 199.5 -40.5s140.5 13.5 199.5 40.5s109.333 65.667 151 116s73.667 111.166 96 182.499
s33.5 151.333 33.5 240s-11.167 168.834 -33.5 240.501s-54.333 132.667 -96 183s-92 89 -151 116s-125.5 40.5 -199.5 40.5zM394 1849h198l231 -299h-148z" />
    <glyph glyph-name="Oacute" unicode="&#xd3;" horiz-adv-x="1498" 
d="M749 1467c102 0 194.167 -17.333 276.5 -52s152.166 -84.334 209.499 -149.001s101.5 -143 132.5 -235s46.5 -195.333 46.5 -310s-15.5 -218 -46.5 -310s-75.167 -170.167 -132.5 -234.5s-127.166 -113.833 -209.499 -148.5s-174.5 -52 -276.5 -52
s-194.167 17.333 -276.5 52s-152.166 84.167 -209.499 148.5s-101.5 142.5 -132.5 234.5s-46.5 195.333 -46.5 310s15.5 218 46.5 310s75.167 170.333 132.5 235s127.166 114.334 209.499 149.001s174.5 52 276.5 52zM749 1301c-74 0 -140.5 -13.5 -199.5 -40.5
s-109.333 -65.667 -151 -116s-73.667 -111.333 -96 -183s-33.5 -151.834 -33.5 -240.501s11.167 -168.667 33.5 -240s54.333 -132.166 96 -182.499s92 -89 151 -116s125.5 -40.5 199.5 -40.5s140.5 13.5 199.5 40.5s109.333 65.667 151 116s73.667 111.166 96 182.499
s33.5 151.333 33.5 240s-11.167 168.834 -33.5 240.501s-54.333 132.667 -96 183s-92 89 -151 116s-125.5 40.5 -199.5 40.5zM678 1550l231 299h198l-281 -299h-148z" />
    <glyph glyph-name="Ocircumflex" unicode="&#xd4;" horiz-adv-x="1498" 
d="M749 1467c102 0 194.167 -17.333 276.5 -52s152.166 -84.334 209.499 -149.001s101.5 -143 132.5 -235s46.5 -195.333 46.5 -310s-15.5 -218 -46.5 -310s-75.167 -170.167 -132.5 -234.5s-127.166 -113.833 -209.499 -148.5s-174.5 -52 -276.5 -52
s-194.167 17.333 -276.5 52s-152.166 84.167 -209.499 148.5s-101.5 142.5 -132.5 234.5s-46.5 195.333 -46.5 310s15.5 218 46.5 310s75.167 170.333 132.5 235s127.166 114.334 209.499 149.001s174.5 52 276.5 52zM749 1301c-74 0 -140.5 -13.5 -199.5 -40.5
s-109.333 -65.667 -151 -116s-73.667 -111.333 -96 -183s-33.5 -151.834 -33.5 -240.501s11.167 -168.667 33.5 -240s54.333 -132.166 96 -182.499s92 -89 151 -116s125.5 -40.5 199.5 -40.5s140.5 13.5 199.5 40.5s109.333 65.667 151 116s73.667 111.166 96 182.499
s33.5 151.333 33.5 240s-11.167 168.834 -33.5 240.501s-54.333 132.667 -96 183s-92 89 -151 116s-125.5 40.5 -199.5 40.5zM820 1849l292 -299h-168l-194 201h-2l-194 -201h-168l292 299h142z" />
    <glyph glyph-name="Otilde" unicode="&#xd5;" horiz-adv-x="1498" 
d="M749 1467c102 0 194.167 -17.333 276.5 -52s152.166 -84.334 209.499 -149.001s101.5 -143 132.5 -235s46.5 -195.333 46.5 -310s-15.5 -218 -46.5 -310s-75.167 -170.167 -132.5 -234.5s-127.166 -113.833 -209.499 -148.5s-174.5 -52 -276.5 -52
s-194.167 17.333 -276.5 52s-152.166 84.167 -209.499 148.5s-101.5 142.5 -132.5 234.5s-46.5 195.333 -46.5 310s15.5 218 46.5 310s75.167 170.333 132.5 235s127.166 114.334 209.499 149.001s174.5 52 276.5 52zM749 1301c-74 0 -140.5 -13.5 -199.5 -40.5
s-109.333 -65.667 -151 -116s-73.667 -111.333 -96 -183s-33.5 -151.834 -33.5 -240.501s11.167 -168.667 33.5 -240s54.333 -132.166 96 -182.499s92 -89 151 -116s125.5 -40.5 199.5 -40.5s140.5 13.5 199.5 40.5s109.333 65.667 151 116s73.667 111.166 96 182.499
s33.5 151.333 33.5 240s-11.167 168.834 -33.5 240.501s-54.333 132.667 -96 183s-92 89 -151 116s-125.5 40.5 -199.5 40.5zM877 1535c-21.333 0 -40.5029 3.83301 -57.5029 11.5s-32.5 17 -46.5 28s-27 23.167 -39 36.5s-23.667 25.5 -35 36.5s-22.666 20.333 -33.999 28
s-23.666 11.5 -36.999 11.5c-22 0 -39 -11.833 -51 -35.5s-18 -57.5 -18 -101.5h-114c0 78.667 15.5 140 46.5 184s74.833 66 131.5 66c22.667 0 43.167 -3.83301 61.5 -11.5s34.833 -17 49.5 -28s28 -23.167 40 -36.5s23.667 -25.5 35 -36.5s22.333 -20.333 33 -28
s22.334 -11.5 35.001 -11.5c41.333 0 62 46 62 138h114c0 -38 -4.16699 -72.5 -12.5 -103.5s-20.166 -57.5 -35.499 -79.5s-33.833 -38.833 -55.5 -50.5s-45.834 -17.5 -72.501 -17.5z" />
    <glyph glyph-name="Odieresis" unicode="&#xd6;" horiz-adv-x="1498" 
d="M749 1467c102 0 194.167 -17.333 276.5 -52s152.166 -84.334 209.499 -149.001s101.5 -143 132.5 -235s46.5 -195.333 46.5 -310s-15.5 -218 -46.5 -310s-75.167 -170.167 -132.5 -234.5s-127.166 -113.833 -209.499 -148.5s-174.5 -52 -276.5 -52
s-194.167 17.333 -276.5 52s-152.166 84.167 -209.499 148.5s-101.5 142.5 -132.5 234.5s-46.5 195.333 -46.5 310s15.5 218 46.5 310s75.167 170.333 132.5 235s127.166 114.334 209.499 149.001s174.5 52 276.5 52zM749 1301c-74 0 -140.5 -13.5 -199.5 -40.5
s-109.333 -65.667 -151 -116s-73.667 -111.333 -96 -183s-33.5 -151.834 -33.5 -240.501s11.167 -168.667 33.5 -240s54.333 -132.166 96 -182.499s92 -89 151 -116s125.5 -40.5 199.5 -40.5s140.5 13.5 199.5 40.5s109.333 65.667 151 116s73.667 111.166 96 182.499
s33.5 151.333 33.5 240s-11.167 168.834 -33.5 240.501s-54.333 132.667 -96 183s-92 89 -151 116s-125.5 40.5 -199.5 40.5zM552 1585c-15.333 0 -29.833 3 -43.5 9s-25.5 14 -35.5 24s-18 21.833 -24 35.5s-9 28.167 -9 43.5s3 29.833 9 43.5s14 25.5 24 35.5
s21.833 18 35.5 24s28.167 9 43.5 9s29.833 -3 43.5 -9s25.5 -14 35.5 -24s18 -21.833 24 -35.5s9 -28.167 9 -43.5s-3 -29.833 -9 -43.5s-14 -25.5 -24 -35.5s-21.833 -18 -35.5 -24s-28.167 -9 -43.5 -9zM946 1585c-15.333 0 -29.833 3 -43.5 9s-25.5 14 -35.5 24
s-18 21.833 -24 35.5s-9 28.167 -9 43.5s3 29.833 9 43.5s14 25.5 24 35.5s21.833 18 35.5 24s28.167 9 43.5 9s29.833 -3 43.5 -9s25.5 -14 35.5 -24s18 -21.833 24 -35.5s9 -28.167 9 -43.5s-3 -29.833 -9 -43.5s-14 -25.5 -24 -35.5s-21.833 -18 -35.5 -24
s-28.167 -9 -43.5 -9z" />
    <glyph glyph-name="multiply" unicode="&#xd7;" horiz-adv-x="1239" 
d="M312 168l-104 104l307 308l-307 308l104 104l308 -307l307 307l104 -104l-306 -308l306 -308l-104 -104l-307 307z" />
    <glyph glyph-name="Oslash" unicode="&#xd8;" horiz-adv-x="1498" 
d="M470 230c38 -28.667 80.332 -50.499 126.999 -65.499s97.334 -22.5 152.001 -22.5c74 0 140.5 13.5 199.5 40.5s109.333 65.667 151 116s73.667 111.166 96 182.499s33.5 151.333 33.5 240c0 76 -8 145.5 -24 208.5s-39.333 118.5 -70 166.5zM1055 1191
c-40 36 -85.5 63.333 -136.5 82s-107.5 28 -169.5 28c-74 0 -140.5 -13.5 -199.5 -40.5s-109.333 -65.667 -151 -116s-73.667 -111.333 -96 -183s-33.5 -151.834 -33.5 -240.501c0 -83.333 9.66699 -158.666 29 -225.999s47.333 -126 84 -176zM1250 1247
c53.333 -64.667 94.001 -141 122.001 -229s42 -187 42 -297c0 -114.667 -15.5 -218 -46.5 -310s-75.167 -170.167 -132.5 -234.5s-127.166 -113.833 -209.499 -148.5s-174.5 -52 -276.5 -52c-76.667 0 -147.334 9.66699 -212.001 29s-123 47.333 -175 84l-104 -136l-100 76
l110 142c-59.333 65.333 -104.833 144.166 -136.5 236.499s-47.5 196.833 -47.5 313.5c0 114.667 15.5 218 46.5 310s75.167 170.333 132.5 235s127.166 114.334 209.499 149.001s174.5 52 276.5 52c83.333 0 159.833 -11.333 229.5 -34s131.5 -56 185.5 -100l120 155
l98 -69z" />
    <glyph glyph-name="Ugrave" unicode="&#xd9;" horiz-adv-x="1426" 
d="M320 518c0 -54.667 8.66406 -105 25.9971 -151s42.833 -85.667 76.5 -119s74.834 -59.333 123.501 -78s104.334 -28 167.001 -28s118.334 9.33301 167.001 28s89.667 44.667 123 78s58.833 73 76.5 119s26.5 96.333 26.5 151v925h180v-937
c0 -77.333 -13 -148.333 -39 -213s-63.667 -120.5 -113 -167.5s-109.5 -83.667 -180.5 -110s-151.167 -39.5 -240.5 -39.5s-169.5 13.167 -240.5 39.5s-131.167 63 -180.5 110s-87 102.833 -113 167.5s-39 135.667 -39 213v937h180v-925zM357.997 1849h198l231 -299h-148z
" />
    <glyph glyph-name="Uacute" unicode="&#xda;" horiz-adv-x="1426" 
d="M320 518c0 -54.667 8.66406 -105 25.9971 -151s42.833 -85.667 76.5 -119s74.834 -59.333 123.501 -78s104.334 -28 167.001 -28s118.334 9.33301 167.001 28s89.667 44.667 123 78s58.833 73 76.5 119s26.5 96.333 26.5 151v925h180v-937
c0 -77.333 -13 -148.333 -39 -213s-63.667 -120.5 -113 -167.5s-109.5 -83.667 -180.5 -110s-151.167 -39.5 -240.5 -39.5s-169.5 13.167 -240.5 39.5s-131.167 63 -180.5 110s-87 102.833 -113 167.5s-39 135.667 -39 213v937h180v-925zM641.997 1550l231 299h198
l-281 -299h-148z" />
    <glyph glyph-name="Ucircumflex" unicode="&#xdb;" horiz-adv-x="1426" 
d="M320 518c0 -54.667 8.66406 -105 25.9971 -151s42.833 -85.667 76.5 -119s74.834 -59.333 123.501 -78s104.334 -28 167.001 -28s118.334 9.33301 167.001 28s89.667 44.667 123 78s58.833 73 76.5 119s26.5 96.333 26.5 151v925h180v-937
c0 -77.333 -13 -148.333 -39 -213s-63.667 -120.5 -113 -167.5s-109.5 -83.667 -180.5 -110s-151.167 -39.5 -240.5 -39.5s-169.5 13.167 -240.5 39.5s-131.167 63 -180.5 110s-87 102.833 -113 167.5s-39 135.667 -39 213v937h180v-925zM783.997 1849l292 -299h-168
l-194 201h-2l-194 -201h-168l292 299h142z" />
    <glyph glyph-name="Udieresis" unicode="&#xdc;" horiz-adv-x="1426" 
d="M320 518c0 -54.667 8.66406 -105 25.9971 -151s42.833 -85.667 76.5 -119s74.834 -59.333 123.501 -78s104.334 -28 167.001 -28s118.334 9.33301 167.001 28s89.667 44.667 123 78s58.833 73 76.5 119s26.5 96.333 26.5 151v925h180v-937
c0 -77.333 -13 -148.333 -39 -213s-63.667 -120.5 -113 -167.5s-109.5 -83.667 -180.5 -110s-151.167 -39.5 -240.5 -39.5s-169.5 13.167 -240.5 39.5s-131.167 63 -180.5 110s-87 102.833 -113 167.5s-39 135.667 -39 213v937h180v-925zM515.997 1585
c-15.333 0 -29.833 3 -43.5 9s-25.5 14 -35.5 24s-18 21.833 -24 35.5s-9 28.167 -9 43.5s3 29.833 9 43.5s14 25.5 24 35.5s21.833 18 35.5 24s28.167 9 43.5 9s29.833 -3 43.5 -9s25.5 -14 35.5 -24s18 -21.833 24 -35.5s9 -28.167 9 -43.5s-3 -29.833 -9 -43.5
s-14 -25.5 -24 -35.5s-21.833 -18 -35.5 -24s-28.167 -9 -43.5 -9zM909.997 1585c-15.333 0 -29.833 3 -43.5 9s-25.5 14 -35.5 24s-18 21.833 -24 35.5s-9 28.167 -9 43.5s3 29.833 9 43.5s14 25.5 24 35.5s21.833 18 35.5 24s28.167 9 43.5 9s29.833 -3 43.5 -9
s25.5 -14 35.5 -24s18 -21.833 24 -35.5s9 -28.167 9 -43.5s-3 -29.833 -9 -43.5s-14 -25.5 -24 -35.5s-21.833 -18 -35.5 -24s-28.167 -9 -43.5 -9z" />
    <glyph glyph-name="Yacute" unicode="&#xdd;" horiz-adv-x="1254" 
d="M537 0v621l-512 822h205l394 -648h6l394 648h205l-512 -822v-621h-180zM556 1550l231 299h198l-281 -299h-148z" />
    <glyph glyph-name="Thorn" unicode="&#xde;" horiz-adv-x="1232" 
d="M340 1443v-265.998h373c54.667 0 107.5 -9.16699 158.5 -27.5s96 -45.333 135 -81s70.167 -79.167 93.5 -130.5s35 -110 35 -176s-11.833 -124.833 -35.5 -176.5s-55 -95.334 -94 -131.001s-84.167 -62.834 -135.5 -81.501s-104.333 -28 -159 -28h-371v-345h-180v1443
h180zM340 505.002l322 0.000976562c41.333 0 79.666 5.33301 114.999 16s65.833 26.667 91.5 48s45.667 48 60 80s21.5 69.667 21.5 113c0 42.667 -7.16699 80 -21.5 112s-34.333 58.667 -60 80s-56.167 37.166 -91.5 47.499s-73.666 15.5 -114.999 15.5h-322v-512z" />
    <glyph glyph-name="germandbls" unicode="&#xdf;" horiz-adv-x="1238" 
d="M182 0l-0.00292969 1101c0 60 9.83301 114.167 29.5 162.5s47.834 89.833 84.501 124.5s80.834 61.334 132.501 80.001s109.167 28 172.5 28c60.667 0 116.5 -9.16699 167.5 -27.5s94.833 -44.166 131.5 -77.499s65.167 -73 85.5 -119s30.5 -96.333 30.5 -151
c0 -42.667 -5.33301 -82.5 -16 -119.5s-25.834 -70.5 -45.501 -100.5s-43.667 -55.833 -72 -77.5s-60.166 -37.834 -95.499 -48.501v-4c53.333 -7.33301 100.833 -21.166 142.5 -41.499s76.834 -46.333 105.501 -78s50.5 -68.667 65.5 -111s22.5 -88.833 22.5 -139.5
c0 -62.667 -10.833 -119.5 -32.5 -170.5s-52.334 -94.667 -92.001 -131s-87.5 -64.333 -143.5 -84s-118.333 -29.5 -187 -29.5c-55.333 0 -103.333 4.33301 -144 13v153c17.333 -4.66699 37.833 -8.16699 61.5 -10.5s47.167 -3.5 70.5 -3.5
c44.667 0 85.334 6.33301 122.001 19s67.834 30.5 93.501 53.5s45.5 50.833 59.5 83.5s21 69 21 109c0 43.333 -7.66699 82 -23 116s-37.5 62.833 -66.5 86.5s-64.667 41.667 -107 54s-90.166 18.5 -143.499 18.5h-61v170h51c77.333 0 137.5 23.167 180.5 69.5
s64.5 111.166 64.5 194.499c0 34 -5.83301 65.333 -17.5 94s-28.334 53.167 -50.001 73.5s-47.334 36.166 -77.001 47.499s-62.5 17 -98.5 17c-78.667 0 -140.167 -22.833 -184.5 -68.5s-66.5 -109.5 -66.5 -191.5v-1084h-171z" />
    <glyph glyph-name="agrave" unicode="&#xe0;" horiz-adv-x="1062" 
d="M470 141c44 0 84.666 6.66797 121.999 20.001s69.5 32 96.5 56s48.167 52.5 63.5 85.5s23 68.833 23 107.5v87l-282 -18c-81.333 -5.33301 -142.666 -22.5 -183.999 -51.5s-62 -69.5 -62 -121.5c0 -25.333 5.16699 -48 15.5 -68s25.333 -37.333 45 -52
s43.167 -25.834 70.5 -33.501s58 -11.5 92 -11.5zM432.999 -9.99902c-54.667 0 -104.333 7.5 -149 22.5s-83 36.333 -115 64s-56.667 61 -74 100s-26 82.5 -26 130.5c0 93.333 34.333 166.333 103 219s169 83 301 91l302 18v90c0 67.333 -21.167 118.833 -63.5 154.5
s-103.5 53.5 -183.5 53.5c-31.333 0 -60.333 -3.83301 -87 -11.5s-50.5 -18.667 -71.5 -33s-38.333 -31.833 -52 -52.5s-23.167 -43.667 -28.5 -69h-167c1.33301 45.333 12.666 87.666 33.999 126.999s50.333 73.333 87 102s79.5 51.167 128.5 67.5s101.833 24.5 158.5 24.5
c64 0 121.667 -8.16699 173 -24.5s95.333 -39.666 132 -69.999s64.834 -67 84.501 -110s29.5 -90.833 29.5 -143.5v-740h-165v187h-4c-15.333 -30 -35 -57.167 -59 -81.5s-51 -45 -81 -62s-62.5 -30.167 -97.5 -39.5s-71.5 -14 -109.5 -14zM443 1250l-261 300h198l211 -300
h-148z" />
    <glyph glyph-name="aacute" unicode="&#xe1;" horiz-adv-x="1062" 
d="M470 141c44 0 84.666 6.66797 121.999 20.001s69.5 32 96.5 56s48.167 52.5 63.5 85.5s23 68.833 23 107.5v87l-282 -18c-81.333 -5.33301 -142.666 -22.5 -183.999 -51.5s-62 -69.5 -62 -121.5c0 -25.333 5.16699 -48 15.5 -68s25.333 -37.333 45 -52
s43.167 -25.834 70.5 -33.501s58 -11.5 92 -11.5zM432.999 -9.99902c-54.667 0 -104.333 7.5 -149 22.5s-83 36.333 -115 64s-56.667 61 -74 100s-26 82.5 -26 130.5c0 93.333 34.333 166.333 103 219s169 83 301 91l302 18v90c0 67.333 -21.167 118.833 -63.5 154.5
s-103.5 53.5 -183.5 53.5c-31.333 0 -60.333 -3.83301 -87 -11.5s-50.5 -18.667 -71.5 -33s-38.333 -31.833 -52 -52.5s-23.167 -43.667 -28.5 -69h-167c1.33301 45.333 12.666 87.666 33.999 126.999s50.333 73.333 87 102s79.5 51.167 128.5 67.5s101.833 24.5 158.5 24.5
c64 0 121.667 -8.16699 173 -24.5s95.333 -39.666 132 -69.999s64.834 -67 84.501 -110s29.5 -90.833 29.5 -143.5v-740h-165v187h-4c-15.333 -30 -35 -57.167 -59 -81.5s-51 -45 -81 -62s-62.5 -30.167 -97.5 -39.5s-71.5 -14 -109.5 -14zM452 1250l211 300h198l-261 -300
h-148z" />
    <glyph glyph-name="acircumflex" unicode="&#xe2;" horiz-adv-x="1062" 
d="M470 141c44 0 84.666 6.66797 121.999 20.001s69.5 32 96.5 56s48.167 52.5 63.5 85.5s23 68.833 23 107.5v87l-282 -18c-81.333 -5.33301 -142.666 -22.5 -183.999 -51.5s-62 -69.5 -62 -121.5c0 -25.333 5.16699 -48 15.5 -68s25.333 -37.333 45 -52
s43.167 -25.834 70.5 -33.501s58 -11.5 92 -11.5zM432.999 -9.99902c-54.667 0 -104.333 7.5 -149 22.5s-83 36.333 -115 64s-56.667 61 -74 100s-26 82.5 -26 130.5c0 93.333 34.333 166.333 103 219s169 83 301 91l302 18v90c0 67.333 -21.167 118.833 -63.5 154.5
s-103.5 53.5 -183.5 53.5c-31.333 0 -60.333 -3.83301 -87 -11.5s-50.5 -18.667 -71.5 -33s-38.333 -31.833 -52 -52.5s-23.167 -43.667 -28.5 -69h-167c1.33301 45.333 12.666 87.666 33.999 126.999s50.333 73.333 87 102s79.5 51.167 128.5 67.5s101.833 24.5 158.5 24.5
c64 0 121.667 -8.16699 173 -24.5s95.333 -39.666 132 -69.999s64.834 -67 84.501 -110s29.5 -90.833 29.5 -143.5v-740h-165v187h-4c-15.333 -30 -35 -57.167 -59 -81.5s-51 -45 -81 -62s-62.5 -30.167 -97.5 -39.5s-71.5 -14 -109.5 -14zM865 1250h-163l-173 197h-6
l-173 -197h-163l277 300h124z" />
    <glyph glyph-name="atilde" unicode="&#xe3;" horiz-adv-x="1062" 
d="M470 141c44 0 84.666 6.66797 121.999 20.001s69.5 32 96.5 56s48.167 52.5 63.5 85.5s23 68.833 23 107.5v87l-282 -18c-81.333 -5.33301 -142.666 -22.5 -183.999 -51.5s-62 -69.5 -62 -121.5c0 -25.333 5.16699 -48 15.5 -68s25.333 -37.333 45 -52
s43.167 -25.834 70.5 -33.501s58 -11.5 92 -11.5zM432.999 -9.99902c-54.667 0 -104.333 7.5 -149 22.5s-83 36.333 -115 64s-56.667 61 -74 100s-26 82.5 -26 130.5c0 93.333 34.333 166.333 103 219s169 83 301 91l302 18v90c0 67.333 -21.167 118.833 -63.5 154.5
s-103.5 53.5 -183.5 53.5c-31.333 0 -60.333 -3.83301 -87 -11.5s-50.5 -18.667 -71.5 -33s-38.333 -31.833 -52 -52.5s-23.167 -43.667 -28.5 -69h-167c1.33301 45.333 12.666 87.666 33.999 126.999s50.333 73.333 87 102s79.5 51.167 128.5 67.5s101.833 24.5 158.5 24.5
c64 0 121.667 -8.16699 173 -24.5s95.333 -39.666 132 -69.999s64.834 -67 84.501 -110s29.5 -90.833 29.5 -143.5v-740h-165v187h-4c-15.333 -30 -35 -57.167 -59 -81.5s-51 -45 -81 -62s-62.5 -30.167 -97.5 -39.5s-71.5 -14 -109.5 -14zM658 1258
c-21.333 0 -40.5029 3.83301 -57.5029 11.5s-32.5 17 -46.5 28s-27 23.167 -39 36.5s-23.667 25.5 -35 36.5s-22.666 20.333 -33.999 28s-23.666 11.5 -36.999 11.5c-22 0 -39 -11.833 -51 -35.5s-18 -57.5 -18 -101.5h-114c0 78.667 15.5 140 46.5 184s74.833 66 131.5 66
c22.667 0 43.167 -3.83301 61.5 -11.5s34.833 -17 49.5 -28s28 -23.167 40 -36.5s23.667 -25.5 35 -36.5s22.333 -20.333 33 -28s22.334 -11.5 35.001 -11.5c41.333 0 62 46 62 138h114c0 -38 -4.16699 -72.5 -12.5 -103.5s-20.166 -57.5 -35.499 -79.5
s-33.833 -38.833 -55.5 -50.5s-45.834 -17.5 -72.501 -17.5z" />
    <glyph glyph-name="adieresis" unicode="&#xe4;" horiz-adv-x="1062" 
d="M470 141c44 0 84.666 6.66797 121.999 20.001s69.5 32 96.5 56s48.167 52.5 63.5 85.5s23 68.833 23 107.5v87l-282 -18c-81.333 -5.33301 -142.666 -22.5 -183.999 -51.5s-62 -69.5 -62 -121.5c0 -25.333 5.16699 -48 15.5 -68s25.333 -37.333 45 -52
s43.167 -25.834 70.5 -33.501s58 -11.5 92 -11.5zM432.999 -9.99902c-54.667 0 -104.333 7.5 -149 22.5s-83 36.333 -115 64s-56.667 61 -74 100s-26 82.5 -26 130.5c0 93.333 34.333 166.333 103 219s169 83 301 91l302 18v90c0 67.333 -21.167 118.833 -63.5 154.5
s-103.5 53.5 -183.5 53.5c-31.333 0 -60.333 -3.83301 -87 -11.5s-50.5 -18.667 -71.5 -33s-38.333 -31.833 -52 -52.5s-23.167 -43.667 -28.5 -69h-167c1.33301 45.333 12.666 87.666 33.999 126.999s50.333 73.333 87 102s79.5 51.167 128.5 67.5s101.833 24.5 158.5 24.5
c64 0 121.667 -8.16699 173 -24.5s95.333 -39.666 132 -69.999s64.834 -67 84.501 -110s29.5 -90.833 29.5 -143.5v-740h-165v187h-4c-15.333 -30 -35 -57.167 -59 -81.5s-51 -45 -81 -62s-62.5 -30.167 -97.5 -39.5s-71.5 -14 -109.5 -14zM329 1261
c-15.333 0 -29.833 3 -43.5 9s-25.5 14 -35.5 24s-18 21.833 -24 35.5s-9 28.167 -9 43.5s3 29.833 9 43.5s14 25.5 24 35.5s21.833 18 35.5 24s28.167 9 43.5 9s29.833 -3 43.5 -9s25.5 -14 35.5 -24s18 -21.833 24 -35.5s9 -28.167 9 -43.5s-3 -29.833 -9 -43.5
s-14 -25.5 -24 -35.5s-21.833 -18 -35.5 -24s-28.167 -9 -43.5 -9zM723 1261c-15.333 0 -29.833 3 -43.5 9s-25.5 14 -35.5 24s-18 21.833 -24 35.5s-9 28.167 -9 43.5s3 29.833 9 43.5s14 25.5 24 35.5s21.833 18 35.5 24s28.167 9 43.5 9s29.833 -3 43.5 -9
s25.5 -14 35.5 -24s18 -21.833 24 -35.5s9 -28.167 9 -43.5s-3 -29.833 -9 -43.5s-14 -25.5 -24 -35.5s-21.833 -18 -35.5 -24s-28.167 -9 -43.5 -9z" />
    <glyph glyph-name="aring" unicode="&#xe5;" horiz-adv-x="1062" 
d="M470 141c44 0 84.666 6.66797 121.999 20.001s69.5 32 96.5 56s48.167 52.5 63.5 85.5s23 68.833 23 107.5v87l-282 -18c-81.333 -5.33301 -142.666 -22.5 -183.999 -51.5s-62 -69.5 -62 -121.5c0 -25.333 5.16699 -48 15.5 -68s25.333 -37.333 45 -52
s43.167 -25.834 70.5 -33.501s58 -11.5 92 -11.5zM432.999 -9.99902c-54.667 0 -104.333 7.5 -149 22.5s-83 36.333 -115 64s-56.667 61 -74 100s-26 82.5 -26 130.5c0 93.333 34.333 166.333 103 219s169 83 301 91l302 18v90c0 67.333 -21.167 118.833 -63.5 154.5
s-103.5 53.5 -183.5 53.5c-31.333 0 -60.333 -3.83301 -87 -11.5s-50.5 -18.667 -71.5 -33s-38.333 -31.833 -52 -52.5s-23.167 -43.667 -28.5 -69h-167c1.33301 45.333 12.666 87.666 33.999 126.999s50.333 73.333 87 102s79.5 51.167 128.5 67.5s101.833 24.5 158.5 24.5
c64 0 121.667 -8.16699 173 -24.5s95.333 -39.666 132 -69.999s64.834 -67 84.501 -110s29.5 -90.833 29.5 -143.5v-740h-165v187h-4c-15.333 -30 -35 -57.167 -59 -81.5s-51 -45 -81 -62s-62.5 -30.167 -97.5 -39.5s-71.5 -14 -109.5 -14zM526 1184
c-27.333 0 -53 5.33301 -77 16s-45 25 -63 43s-32.333 39 -43 63s-16 49.667 -16 77s5.33301 53 16 77s25 45 43 63s39 32.333 63 43s49.667 16 77 16s53 -5.33301 77 -16s45 -25 63 -43s32.333 -39 43 -63s16 -49.667 16 -77s-5.33301 -53 -16 -77s-25 -45 -43 -63
s-39 -32.333 -63 -43s-49.667 -16 -77 -16zM526 1267c16 0 31 3 45 9s26.333 14.333 37 25s19 23 25 37s9 29 9 45s-3 31 -9 45s-14.333 26.333 -25 37s-23 19 -37 25s-29 9 -45 9s-31 -3 -45 -9s-26.333 -14.333 -37 -25s-19 -23 -25 -37s-9 -29 -9 -45s3 -31 9 -45
s14.333 -26.333 25 -37s23 -19 37 -25s29 -9 45 -9z" />
    <glyph glyph-name="ae" unicode="&#xe6;" horiz-adv-x="1769" 
d="M1260 -10c-89.333 0 -167.169 19.167 -233.502 57.5s-117.5 93.5 -153.5 165.5h-10c-44 -73.333 -100.167 -128.833 -168.5 -166.5s-147.5 -56.5 -237.5 -56.5c-59.333 0 -112.833 7.33301 -160.5 22s-88.334 35.667 -122.001 63s-59.667 60.166 -78 98.499
s-27.5 81.5 -27.5 129.5c0 93.333 34.5 166.833 103.5 220.5s168.5 83.834 298.5 90.501l303 15v77c0 33.333 -6.16699 64 -18.5 92s-29.666 52 -51.999 72s-49 35.5 -80 46.5s-65.167 16.5 -102.5 16.5c-70.667 0 -127 -14.833 -169 -44.5s-65.333 -70.167 -70 -121.5h-171
c2.66699 46 14.334 88.667 35.001 128s48.667 73.333 84 102s77.166 51 125.499 67s101.5 24 159.5 24c44.667 0 86.834 -4.83301 126.501 -14.5s75.5 -23.5 107.5 -41.5s59.667 -40.167 83 -66.5s41.666 -56.5 54.999 -90.5h9c36.667 70 86 123 148 159s134.667 54 218 54
c68 0 129.333 -12.333 184 -37s101 -59.834 139 -105.501s67.333 -101.167 88 -166.5s31 -138.666 31 -219.999v-67h-756v-11c0 -51.333 7.33301 -97.833 22 -139.5s35.834 -77.167 63.501 -106.5s60.834 -52 99.501 -68s82 -24 130 -24c65.333 0 120.333 14.5 165 43.5
s75 69.5 91 121.5h172c-8 -47.333 -24.333 -90.5 -49 -129.5s-56 -72.5 -94 -100.5s-81.5 -49.667 -130.5 -65s-101.5 -23 -157.5 -23zM1248 935c-42 0 -80.834 -7.33496 -116.501 -22.002s-66.5 -35.167 -92.5 -61.5s-47 -58.333 -63 -96s-25.333 -79.5 -28 -125.5h575
c-1.33301 46.667 -8.5 88.834 -21.5 126.501s-31.5 69.834 -55.5 96.501s-52.667 47 -86 61s-70.666 21 -111.999 21zM460.996 140.998c44 0 85 6.83105 123 20.498s71.167 32.667 99.5 57s50.5 52.833 66.5 85.5s24 68 24 106v81l-285 -15
c-78.667 -4 -138.667 -20.5 -180 -49.5s-62 -69.167 -62 -120.5c0 -25.333 5 -48.166 15 -68.499s24.333 -37.666 43 -51.999s41.167 -25.333 67.5 -33s55.833 -11.5 88.5 -11.5z" />
    <glyph glyph-name="ccedilla" unicode="&#xe7;" horiz-adv-x="1060" 
d="M1011 345c-6.66699 -48 -20.4961 -92.1689 -41.4961 -132.502s-48.333 -75.666 -82 -105.999s-72.667 -55.166 -117 -74.499s-92.833 -32 -145.5 -38l-50 -136c139.333 0 209 -50 209 -150c0 -25.333 -5.5 -48.833 -16.5 -70.5s-26.167 -40.334 -45.5 -56.001
s-42.333 -28 -69 -37s-56 -13.5 -88 -13.5c-28 -0.666992 -53.833 0.333008 -77.5 3s-46.834 7.33398 -69.501 14.001v98c4.66699 -2 11.667 -3.83301 21 -5.5s19.666 -3.33398 30.999 -5.00098s23.166 -2.83398 35.499 -3.50098s23.833 -1 34.5 -1
c39.333 0 69.166 6.16699 89.499 18.5s30.5 30.5 30.5 54.5c0 23.333 -11.667 40.166 -35 50.499s-61.666 15.5 -114.999 15.5h-55v74l57 148c-67.333 5.33301 -128.5 21.666 -183.5 48.999s-102 64.5 -141 111.5s-69.167 103.167 -90.5 168.5s-32 138 -32 218
c0 82.667 11.833 157.834 35.5 225.501s57 125.5 100 173.5s94.667 85 155 111s127.5 39 201.5 39c66.667 0 126.667 -10 180 -30s99.333 -46.667 138 -80s69.334 -71.666 92.001 -114.999s36.667 -88.666 42 -135.999h-171c-5.33301 28.667 -15.333 55.5 -30 80.5
s-33.834 46.833 -57.501 65.5s-51.5 33.334 -83.5 44.001s-68.333 16 -109 16c-47.333 0 -90.333 -9.33301 -129 -28s-71.834 -45.167 -99.501 -79.5s-49.167 -75.833 -64.5 -124.5s-23 -102.667 -23 -162c0 -61.333 7.66699 -116.333 23 -165s37 -90 65 -124
s61.5 -60 100.5 -78s82.167 -27 129.5 -27c75.333 0 137 17 185 51s79.667 83.667 95 149h171z" />
    <glyph glyph-name="egrave" unicode="&#xe8;" horiz-adv-x="1084" 
d="M548 935c-42 0 -81.0029 -7.33203 -117.003 -21.999s-67.167 -35.334 -93.5 -62.001s-47.666 -58.834 -63.999 -96.501s-25.833 -79.167 -28.5 -124.5h593c-1.33301 46 -9.16602 87.667 -23.499 125s-34.166 69.333 -59.499 96s-55.5 47.334 -90.5 62.001
s-73.833 22 -116.5 22zM1006 308.001c-7.33301 -46 -24.002 -88.4941 -50.002 -127.494s-58.833 -72.667 -98.5 -101s-85 -50.333 -136 -66s-105.167 -23.5 -162.5 -23.5c-76 0 -144.333 12.667 -205 38s-112.5 61.666 -155.5 108.999s-76 104.666 -99 171.999
s-34.5 142.666 -34.5 225.999s11.5 159 34.5 227s55.667 126.167 98 174.5s93.5 85.666 153.5 111.999s126.667 39.5 200 39.5c72 0 136.833 -12.333 194.5 -37s106.834 -59.834 147.501 -105.501s71.834 -101.167 93.501 -166.5s32.5 -138.666 32.5 -219.999v-68h-774v-10
c0 -51.333 7.5 -97.833 22.5 -139.5s36.5 -77.167 64.5 -106.5s61.5 -52 100.5 -68s82.5 -24 130.5 -24c34 0 65.667 3.83301 95 11.5s55.833 18.667 79.5 33s43.667 31.666 60 51.999s28.5 43.166 36.5 68.499h172zM467.995 1250.01l-261 300h198l211 -300h-148z" />
    <glyph glyph-name="eacute" unicode="&#xe9;" horiz-adv-x="1084" 
d="M548 935c-42 0 -81.0029 -7.33203 -117.003 -21.999s-67.167 -35.334 -93.5 -62.001s-47.666 -58.834 -63.999 -96.501s-25.833 -79.167 -28.5 -124.5h593c-1.33301 46 -9.16602 87.667 -23.499 125s-34.166 69.333 -59.499 96s-55.5 47.334 -90.5 62.001
s-73.833 22 -116.5 22zM1006 308.001c-7.33301 -46 -24.002 -88.4941 -50.002 -127.494s-58.833 -72.667 -98.5 -101s-85 -50.333 -136 -66s-105.167 -23.5 -162.5 -23.5c-76 0 -144.333 12.667 -205 38s-112.5 61.666 -155.5 108.999s-76 104.666 -99 171.999
s-34.5 142.666 -34.5 225.999s11.5 159 34.5 227s55.667 126.167 98 174.5s93.5 85.666 153.5 111.999s126.667 39.5 200 39.5c72 0 136.833 -12.333 194.5 -37s106.834 -59.834 147.501 -105.501s71.834 -101.167 93.501 -166.5s32.5 -138.666 32.5 -219.999v-68h-774v-10
c0 -51.333 7.5 -97.833 22.5 -139.5s36.5 -77.167 64.5 -106.5s61.5 -52 100.5 -68s82.5 -24 130.5 -24c34 0 65.667 3.83301 95 11.5s55.833 18.667 79.5 33s43.667 31.666 60 51.999s28.5 43.166 36.5 68.499h172zM476.995 1250.01l211 300h198l-261 -300h-148z" />
    <glyph glyph-name="ecircumflex" unicode="&#xea;" horiz-adv-x="1084" 
d="M548 935c-42 0 -81.0029 -7.33203 -117.003 -21.999s-67.167 -35.334 -93.5 -62.001s-47.666 -58.834 -63.999 -96.501s-25.833 -79.167 -28.5 -124.5h593c-1.33301 46 -9.16602 87.667 -23.499 125s-34.166 69.333 -59.499 96s-55.5 47.334 -90.5 62.001
s-73.833 22 -116.5 22zM1006 308.001c-7.33301 -46 -24.002 -88.4941 -50.002 -127.494s-58.833 -72.667 -98.5 -101s-85 -50.333 -136 -66s-105.167 -23.5 -162.5 -23.5c-76 0 -144.333 12.667 -205 38s-112.5 61.666 -155.5 108.999s-76 104.666 -99 171.999
s-34.5 142.666 -34.5 225.999s11.5 159 34.5 227s55.667 126.167 98 174.5s93.5 85.666 153.5 111.999s126.667 39.5 200 39.5c72 0 136.833 -12.333 194.5 -37s106.834 -59.834 147.501 -105.501s71.834 -101.167 93.501 -166.5s32.5 -138.666 32.5 -219.999v-68h-774v-10
c0 -51.333 7.5 -97.833 22.5 -139.5s36.5 -77.167 64.5 -106.5s61.5 -52 100.5 -68s82.5 -24 130.5 -24c34 0 65.667 3.83301 95 11.5s55.833 18.667 79.5 33s43.667 31.666 60 51.999s28.5 43.166 36.5 68.499h172zM889.995 1250.01h-163l-173 197h-6l-173 -197h-163
l277 300h124z" />
    <glyph glyph-name="edieresis" unicode="&#xeb;" horiz-adv-x="1084" 
d="M548 935c-42 0 -81.0029 -7.33203 -117.003 -21.999s-67.167 -35.334 -93.5 -62.001s-47.666 -58.834 -63.999 -96.501s-25.833 -79.167 -28.5 -124.5h593c-1.33301 46 -9.16602 87.667 -23.499 125s-34.166 69.333 -59.499 96s-55.5 47.334 -90.5 62.001
s-73.833 22 -116.5 22zM1006 308.001c-7.33301 -46 -24.002 -88.4941 -50.002 -127.494s-58.833 -72.667 -98.5 -101s-85 -50.333 -136 -66s-105.167 -23.5 -162.5 -23.5c-76 0 -144.333 12.667 -205 38s-112.5 61.666 -155.5 108.999s-76 104.666 -99 171.999
s-34.5 142.666 -34.5 225.999s11.5 159 34.5 227s55.667 126.167 98 174.5s93.5 85.666 153.5 111.999s126.667 39.5 200 39.5c72 0 136.833 -12.333 194.5 -37s106.834 -59.834 147.501 -105.501s71.834 -101.167 93.501 -166.5s32.5 -138.666 32.5 -219.999v-68h-774v-10
c0 -51.333 7.5 -97.833 22.5 -139.5s36.5 -77.167 64.5 -106.5s61.5 -52 100.5 -68s82.5 -24 130.5 -24c34 0 65.667 3.83301 95 11.5s55.833 18.667 79.5 33s43.667 31.666 60 51.999s28.5 43.166 36.5 68.499h172zM353.995 1261.01c-15.333 0 -29.833 3 -43.5 9
s-25.5 14 -35.5 24s-18 21.833 -24 35.5s-9 28.167 -9 43.5s3 29.833 9 43.5s14 25.5 24 35.5s21.833 18 35.5 24s28.167 9 43.5 9s29.833 -3 43.5 -9s25.5 -14 35.5 -24s18 -21.833 24 -35.5s9 -28.167 9 -43.5s-3 -29.833 -9 -43.5s-14 -25.5 -24 -35.5
s-21.833 -18 -35.5 -24s-28.167 -9 -43.5 -9zM747.995 1261.01c-15.333 0 -29.833 3 -43.5 9s-25.5 14 -35.5 24s-18 21.833 -24 35.5s-9 28.167 -9 43.5s3 29.833 9 43.5s14 25.5 24 35.5s21.833 18 35.5 24s28.167 9 43.5 9s29.833 -3 43.5 -9s25.5 -14 35.5 -24
s18 -21.833 24 -35.5s9 -28.167 9 -43.5s-3 -29.833 -9 -43.5s-14 -25.5 -24 -35.5s-21.833 -18 -35.5 -24s-28.167 -9 -43.5 -9z" />
    <glyph glyph-name="igrave" unicode="&#xec;" horiz-adv-x="430" 
d="M128 1078h174v-1078h-174v1078zM132 1250l-261 300h198l211 -300h-148z" />
    <glyph glyph-name="iacute" unicode="&#xed;" horiz-adv-x="430" 
d="M128 1078h174v-1078h-174v1078zM141 1250l211 300h198l-261 -300h-148z" />
    <glyph glyph-name="icircumflex" unicode="&#xee;" horiz-adv-x="430" 
d="M128 1078h174v-1078h-174v1078zM554 1250h-163l-173 197h-6l-173 -197h-163l277 300h124z" />
    <glyph glyph-name="idieresis" unicode="&#xef;" horiz-adv-x="430" 
d="M128 1078h174v-1078h-174v1078zM18 1261c-15.333 0 -29.833 3 -43.5 9s-25.5 14 -35.5 24s-18 21.833 -24 35.5s-9 28.167 -9 43.5s3 29.833 9 43.5s14 25.5 24 35.5s21.833 18 35.5 24s28.167 9 43.5 9s29.833 -3 43.5 -9s25.5 -14 35.5 -24s18 -21.833 24 -35.5
s9 -28.167 9 -43.5s-3 -29.833 -9 -43.5s-14 -25.5 -24 -35.5s-21.833 -18 -35.5 -24s-28.167 -9 -43.5 -9zM412 1261c-15.333 0 -29.833 3 -43.5 9s-25.5 14 -35.5 24s-18 21.833 -24 35.5s-9 28.167 -9 43.5s3 29.833 9 43.5s14 25.5 24 35.5s21.833 18 35.5 24
s28.167 9 43.5 9s29.833 -3 43.5 -9s25.5 -14 35.5 -24s18 -21.833 24 -35.5s9 -28.167 9 -43.5s-3 -29.833 -9 -43.5s-14 -25.5 -24 -35.5s-21.833 -18 -35.5 -24s-28.167 -9 -43.5 -9z" />
    <glyph glyph-name="eth" unicode="&#xf0;" horiz-adv-x="1140" 
d="M577 -19c-76 0 -144.497 12.3291 -205.497 36.9961s-112.833 60.334 -155.5 107.001s-75.334 103.167 -98.001 169.5s-34 141.166 -34 224.499c0 82 11.167 156 33.5 222s54 122.5 95 169.5s90.5 83.167 148.5 108.5s122.667 38 194 38
c30.667 0 61.334 -4.33301 92.001 -13s59.5 -20.667 86.5 -36s51.167 -33.166 72.5 -53.499s37.666 -42.5 48.999 -66.5h15c-7.33301 28.667 -17.5 58.834 -30.5 90.501s-27.5 62.834 -43.5 93.501s-33.333 60.334 -52 89.001s-37.334 54.667 -56.001 78l-278 -90l-35 112
l231 75c-23.333 28 -50.666 56.667 -81.999 86s-70.666 64 -117.999 104h206c24.667 -20.667 49.167 -42.667 73.5 -66s48.166 -48.333 71.499 -75l250 81l35 -112l-203 -64c74.667 -104 130.167 -214.667 166.5 -332s54.5 -246.333 54.5 -387
c0 -91.333 -11.167 -173.333 -33.5 -246s-54.333 -134.5 -96 -185.5s-92.334 -90.167 -152.001 -117.5s-126.834 -41 -201.501 -41zM577.003 901.996c-48 0 -91.332 -9 -129.999 -27s-71.834 -43.667 -99.501 -77s-48.834 -73.666 -63.501 -120.999s-22 -100 -22 -158
s7.33301 -110.667 22 -158s35.834 -87.666 63.501 -120.999s60.834 -59 99.501 -77s82 -27 130 -27s91.667 9 131 27s72.666 43.667 99.999 77s48.5 73.666 63.5 120.999s22.5 100 22.5 158s-7.5 110.5 -22.5 157.5s-36.333 87.167 -64 120.5s-61 59.166 -100 77.499
s-82.5 27.5 -130.5 27.5z" />
    <glyph glyph-name="ntilde" unicode="&#xf1;" horiz-adv-x="1135" 
d="M118 1078h164.002v-175h4c68.667 123.333 186 185 352 185c59.333 0 112.666 -9.16699 159.999 -27.5s87.666 -44.666 120.999 -78.999s58.833 -76 76.5 -125s26.5 -104.167 26.5 -165.5v-691h-174v661c0 88.667 -22.333 156.167 -67 202.5s-109.667 69.5 -195 69.5
c-44 0 -84.167 -7.33301 -120.5 -22s-67.333 -35.334 -93 -62.001s-45.5 -59 -59.5 -97s-21 -80 -21 -126v-626h-174v1078zM702.002 1258c-21.333 0 -40.5029 3.83301 -57.5029 11.5s-32.5 17 -46.5 28s-27 23.167 -39 36.5s-23.667 25.5 -35 36.5
s-22.666 20.333 -33.999 28s-23.666 11.5 -36.999 11.5c-22 0 -39 -11.833 -51 -35.5s-18 -57.5 -18 -101.5h-114c0 78.667 15.5 140 46.5 184s74.833 66 131.5 66c22.667 0 43.167 -3.83301 61.5 -11.5s34.833 -17 49.5 -28s28 -23.167 40 -36.5s23.667 -25.5 35 -36.5
s22.333 -20.333 33 -28s22.334 -11.5 35.001 -11.5c41.333 0 62 46 62 138h114c0 -38 -4.16699 -72.5 -12.5 -103.5s-20.166 -57.5 -35.499 -79.5s-33.833 -38.833 -55.5 -50.5s-45.834 -17.5 -72.501 -17.5z" />
    <glyph glyph-name="ograve" unicode="&#xf2;" horiz-adv-x="1124" 
d="M562 -10c-76 0 -144.5 13 -205.5 39s-113.167 62.833 -156.5 110.5s-76.666 105.334 -99.999 173.001s-35 143.167 -35 226.5c0 84 11.667 159.833 35 227.5s56.666 125.334 99.999 173.001s95.5 84.334 156.5 110.001s129.5 38.5 205.5 38.5s144.5 -12.833 205.5 -38.5
s113.167 -62.334 156.5 -110.001s76.666 -105.334 99.999 -173.001s35 -143.5 35 -227.5c0 -83.333 -11.667 -158.833 -35 -226.5s-56.666 -125.334 -99.999 -173.001s-95.5 -84.5 -156.5 -110.5s-129.5 -39 -205.5 -39zM562 145c50 0 94.834 9.00098 134.501 27.001
s73.334 43.833 101.001 77.5s48.667 74.834 63 123.501s21.5 104 21.5 166s-7.16699 117.333 -21.5 166s-35.333 90 -63 124s-61.334 59.833 -101.001 77.5s-84.5 26.5 -134.5 26.5s-94.833 -9 -134.5 -27s-73.334 -43.833 -101.001 -77.5s-48.667 -74.834 -63 -123.501
s-21.5 -104 -21.5 -166s7.33301 -117.333 22 -166s35.667 -89.834 63 -123.501s60.833 -59.5 100.5 -77.5s84.5 -27 134.5 -27zM479.001 1250l-261 300h198l211 -300h-148z" />
    <glyph glyph-name="oacute" unicode="&#xf3;" horiz-adv-x="1124" 
d="M562 -10c-76 0 -144.5 13 -205.5 39s-113.167 62.833 -156.5 110.5s-76.666 105.334 -99.999 173.001s-35 143.167 -35 226.5c0 84 11.667 159.833 35 227.5s56.666 125.334 99.999 173.001s95.5 84.334 156.5 110.001s129.5 38.5 205.5 38.5s144.5 -12.833 205.5 -38.5
s113.167 -62.334 156.5 -110.001s76.666 -105.334 99.999 -173.001s35 -143.5 35 -227.5c0 -83.333 -11.667 -158.833 -35 -226.5s-56.666 -125.334 -99.999 -173.001s-95.5 -84.5 -156.5 -110.5s-129.5 -39 -205.5 -39zM562 145c50 0 94.834 9.00098 134.501 27.001
s73.334 43.833 101.001 77.5s48.667 74.834 63 123.501s21.5 104 21.5 166s-7.16699 117.333 -21.5 166s-35.333 90 -63 124s-61.334 59.833 -101.001 77.5s-84.5 26.5 -134.5 26.5s-94.833 -9 -134.5 -27s-73.334 -43.833 -101.001 -77.5s-48.667 -74.834 -63 -123.501
s-21.5 -104 -21.5 -166s7.33301 -117.333 22 -166s35.667 -89.834 63 -123.501s60.833 -59.5 100.5 -77.5s84.5 -27 134.5 -27zM488.001 1250l211 300h198l-261 -300h-148z" />
    <glyph glyph-name="ocircumflex" unicode="&#xf4;" horiz-adv-x="1124" 
d="M562 -10c-76 0 -144.5 13 -205.5 39s-113.167 62.833 -156.5 110.5s-76.666 105.334 -99.999 173.001s-35 143.167 -35 226.5c0 84 11.667 159.833 35 227.5s56.666 125.334 99.999 173.001s95.5 84.334 156.5 110.001s129.5 38.5 205.5 38.5s144.5 -12.833 205.5 -38.5
s113.167 -62.334 156.5 -110.001s76.666 -105.334 99.999 -173.001s35 -143.5 35 -227.5c0 -83.333 -11.667 -158.833 -35 -226.5s-56.666 -125.334 -99.999 -173.001s-95.5 -84.5 -156.5 -110.5s-129.5 -39 -205.5 -39zM562 145c50 0 94.834 9.00098 134.501 27.001
s73.334 43.833 101.001 77.5s48.667 74.834 63 123.501s21.5 104 21.5 166s-7.16699 117.333 -21.5 166s-35.333 90 -63 124s-61.334 59.833 -101.001 77.5s-84.5 26.5 -134.5 26.5s-94.833 -9 -134.5 -27s-73.334 -43.833 -101.001 -77.5s-48.667 -74.834 -63 -123.501
s-21.5 -104 -21.5 -166s7.33301 -117.333 22 -166s35.667 -89.834 63 -123.501s60.833 -59.5 100.5 -77.5s84.5 -27 134.5 -27zM901.001 1250h-163l-173 197h-6l-173 -197h-163l277 300h124z" />
    <glyph glyph-name="otilde" unicode="&#xf5;" horiz-adv-x="1124" 
d="M562 -10c-76 0 -144.5 13 -205.5 39s-113.167 62.833 -156.5 110.5s-76.666 105.334 -99.999 173.001s-35 143.167 -35 226.5c0 84 11.667 159.833 35 227.5s56.666 125.334 99.999 173.001s95.5 84.334 156.5 110.001s129.5 38.5 205.5 38.5s144.5 -12.833 205.5 -38.5
s113.167 -62.334 156.5 -110.001s76.666 -105.334 99.999 -173.001s35 -143.5 35 -227.5c0 -83.333 -11.667 -158.833 -35 -226.5s-56.666 -125.334 -99.999 -173.001s-95.5 -84.5 -156.5 -110.5s-129.5 -39 -205.5 -39zM562 145c50 0 94.834 9.00098 134.501 27.001
s73.334 43.833 101.001 77.5s48.667 74.834 63 123.501s21.5 104 21.5 166s-7.16699 117.333 -21.5 166s-35.333 90 -63 124s-61.334 59.833 -101.001 77.5s-84.5 26.5 -134.5 26.5s-94.833 -9 -134.5 -27s-73.334 -43.833 -101.001 -77.5s-48.667 -74.834 -63 -123.501
s-21.5 -104 -21.5 -166s7.33301 -117.333 22 -166s35.667 -89.834 63 -123.501s60.833 -59.5 100.5 -77.5s84.5 -27 134.5 -27zM694.001 1258c-21.333 0 -40.5029 3.83301 -57.5029 11.5s-32.5 17 -46.5 28s-27 23.167 -39 36.5s-23.667 25.5 -35 36.5
s-22.666 20.333 -33.999 28s-23.666 11.5 -36.999 11.5c-22 0 -39 -11.833 -51 -35.5s-18 -57.5 -18 -101.5h-114c0 78.667 15.5 140 46.5 184s74.833 66 131.5 66c22.667 0 43.167 -3.83301 61.5 -11.5s34.833 -17 49.5 -28s28 -23.167 40 -36.5s23.667 -25.5 35 -36.5
s22.333 -20.333 33 -28s22.334 -11.5 35.001 -11.5c41.333 0 62 46 62 138h114c0 -38 -4.16699 -72.5 -12.5 -103.5s-20.166 -57.5 -35.499 -79.5s-33.833 -38.833 -55.5 -50.5s-45.834 -17.5 -72.501 -17.5z" />
    <glyph glyph-name="odieresis" unicode="&#xf6;" horiz-adv-x="1124" 
d="M562 -10c-76 0 -144.5 13 -205.5 39s-113.167 62.833 -156.5 110.5s-76.666 105.334 -99.999 173.001s-35 143.167 -35 226.5c0 84 11.667 159.833 35 227.5s56.666 125.334 99.999 173.001s95.5 84.334 156.5 110.001s129.5 38.5 205.5 38.5s144.5 -12.833 205.5 -38.5
s113.167 -62.334 156.5 -110.001s76.666 -105.334 99.999 -173.001s35 -143.5 35 -227.5c0 -83.333 -11.667 -158.833 -35 -226.5s-56.666 -125.334 -99.999 -173.001s-95.5 -84.5 -156.5 -110.5s-129.5 -39 -205.5 -39zM562 145c50 0 94.834 9.00098 134.501 27.001
s73.334 43.833 101.001 77.5s48.667 74.834 63 123.501s21.5 104 21.5 166s-7.16699 117.333 -21.5 166s-35.333 90 -63 124s-61.334 59.833 -101.001 77.5s-84.5 26.5 -134.5 26.5s-94.833 -9 -134.5 -27s-73.334 -43.833 -101.001 -77.5s-48.667 -74.834 -63 -123.501
s-21.5 -104 -21.5 -166s7.33301 -117.333 22 -166s35.667 -89.834 63 -123.501s60.833 -59.5 100.5 -77.5s84.5 -27 134.5 -27zM365.001 1261c-15.333 0 -29.833 3 -43.5 9s-25.5 14 -35.5 24s-18 21.833 -24 35.5s-9 28.167 -9 43.5s3 29.833 9 43.5s14 25.5 24 35.5
s21.833 18 35.5 24s28.167 9 43.5 9s29.833 -3 43.5 -9s25.5 -14 35.5 -24s18 -21.833 24 -35.5s9 -28.167 9 -43.5s-3 -29.833 -9 -43.5s-14 -25.5 -24 -35.5s-21.833 -18 -35.5 -24s-28.167 -9 -43.5 -9zM759.001 1261c-15.333 0 -29.833 3 -43.5 9s-25.5 14 -35.5 24
s-18 21.833 -24 35.5s-9 28.167 -9 43.5s3 29.833 9 43.5s14 25.5 24 35.5s21.833 18 35.5 24s28.167 9 43.5 9s29.833 -3 43.5 -9s25.5 -14 35.5 -24s18 -21.833 24 -35.5s9 -28.167 9 -43.5s-3 -29.833 -9 -43.5s-14 -25.5 -24 -35.5s-21.833 -18 -35.5 -24
s-28.167 -9 -43.5 -9z" />
    <glyph glyph-name="divide" unicode="&#xf7;" horiz-adv-x="1239" 
d="M620 802c-18 0 -34.667 3.16699 -50 9.5s-28.5 15 -39.5 26s-19.667 24.167 -26 39.5s-9.5 32 -9.5 50s3.16699 34.667 9.5 50s15 28.5 26 39.5s24.167 19.667 39.5 26s32 9.5 50 9.5s34.5 -3.16699 49.5 -9.5s28.167 -15 39.5 -26s20.166 -24.167 26.499 -39.5
s9.5 -32 9.5 -50s-3.16699 -34.667 -9.5 -50s-15.166 -28.5 -26.499 -39.5s-24.5 -19.667 -39.5 -26s-31.5 -9.5 -49.5 -9.5zM620 88c-18 0 -34.667 3.16699 -50 9.5s-28.5 15 -39.5 26s-19.667 24.167 -26 39.5s-9.5 32 -9.5 50s3.16699 34.667 9.5 50s15 28.5 26 39.5
s24.167 19.667 39.5 26s32 9.5 50 9.5s34.5 -3.16699 49.5 -9.5s28.167 -15 39.5 -26s20.166 -24.167 26.499 -39.5s9.5 -32 9.5 -50s-3.16699 -34.667 -9.5 -50s-15.166 -28.5 -26.499 -39.5s-24.5 -19.667 -39.5 -26s-31.5 -9.5 -49.5 -9.5zM111 496v148h1017v-148h-1017z
" />
    <glyph glyph-name="oslash" unicode="&#xf8;" horiz-adv-x="1124" 
d="M400 186c45.333 -27.333 99.332 -41.001 161.999 -41.001c50 0 94.833 9 134.5 27s73.334 43.833 101.001 77.5s48.667 74.834 63 123.501s21.5 104 21.5 166c0 54 -5.5 103 -16.5 147s-27.167 82.667 -48.5 116zM730.999 887.999
c-47.333 30 -103.666 45.001 -168.999 45.001c-50 0 -94.833 -9 -134.5 -27s-73.334 -43.833 -101.001 -77.5s-48.667 -74.834 -63 -123.501s-21.5 -104 -21.5 -166c0 -55.333 5.83301 -105 17.5 -149s28.167 -83 49.5 -117zM915.999 948
c46 -48 81.333 -106.334 106 -175.001s37 -146.667 37 -234c0 -83.333 -11.667 -158.833 -35 -226.5s-56.666 -125.334 -99.999 -173.001s-95.5 -84.5 -156.5 -110.5s-129.5 -39 -205.5 -39c-48 0 -93.167 5.33301 -135.5 16s-81.5 26 -117.5 46l-61 -89l-104 69l66 96
c-46.667 48 -82.5 106.667 -107.5 176s-37.5 147.666 -37.5 234.999c0 84 11.667 159.833 35 227.5s56.666 125.334 99.999 173.001s95.5 84.334 156.5 110.001s129.5 38.5 205.5 38.5c50 0 96.667 -5.66699 140 -17s83.333 -27.666 120 -48.999l66 96l100 -64z" />
    <glyph glyph-name="ugrave" unicode="&#xf9;" horiz-adv-x="1135" 
d="M1017 0h-164v178h-4c-34 -62.667 -80.5 -109.667 -139.5 -141s-130.167 -47 -213.5 -47c-59.333 0 -112.5 9.16699 -159.5 27.5s-87.167 44.666 -120.5 78.999s-58.833 76 -76.5 125s-26.5 104.167 -26.5 165.5v691h174v-661c0 -89.333 22.333 -157 67 -203
s109.667 -69 195 -69c44 0 84.167 7.33301 120.5 22s67.333 35.334 93 62.001s45.5 59 59.5 97s21 80 21 126v626h174v-1078zM482 1250l-261 300h198l211 -300h-148z" />
    <glyph glyph-name="uacute" unicode="&#xfa;" horiz-adv-x="1135" 
d="M1017 0h-164v178h-4c-34 -62.667 -80.5 -109.667 -139.5 -141s-130.167 -47 -213.5 -47c-59.333 0 -112.5 9.16699 -159.5 27.5s-87.167 44.666 -120.5 78.999s-58.833 76 -76.5 125s-26.5 104.167 -26.5 165.5v691h174v-661c0 -89.333 22.333 -157 67 -203
s109.667 -69 195 -69c44 0 84.167 7.33301 120.5 22s67.333 35.334 93 62.001s45.5 59 59.5 97s21 80 21 126v626h174v-1078zM491 1250l211 300h198l-261 -300h-148z" />
    <glyph glyph-name="ucircumflex" unicode="&#xfb;" horiz-adv-x="1135" 
d="M1017 0h-164v178h-4c-34 -62.667 -80.5 -109.667 -139.5 -141s-130.167 -47 -213.5 -47c-59.333 0 -112.5 9.16699 -159.5 27.5s-87.167 44.666 -120.5 78.999s-58.833 76 -76.5 125s-26.5 104.167 -26.5 165.5v691h174v-661c0 -89.333 22.333 -157 67 -203
s109.667 -69 195 -69c44 0 84.167 7.33301 120.5 22s67.333 35.334 93 62.001s45.5 59 59.5 97s21 80 21 126v626h174v-1078zM904 1250h-163l-173 197h-6l-173 -197h-163l277 300h124z" />
    <glyph glyph-name="udieresis" unicode="&#xfc;" horiz-adv-x="1135" 
d="M1017 0h-164v178h-4c-34 -62.667 -80.5 -109.667 -139.5 -141s-130.167 -47 -213.5 -47c-59.333 0 -112.5 9.16699 -159.5 27.5s-87.167 44.666 -120.5 78.999s-58.833 76 -76.5 125s-26.5 104.167 -26.5 165.5v691h174v-661c0 -89.333 22.333 -157 67 -203
s109.667 -69 195 -69c44 0 84.167 7.33301 120.5 22s67.333 35.334 93 62.001s45.5 59 59.5 97s21 80 21 126v626h174v-1078zM368 1261c-15.333 0 -29.833 3 -43.5 9s-25.5 14 -35.5 24s-18 21.833 -24 35.5s-9 28.167 -9 43.5s3 29.833 9 43.5s14 25.5 24 35.5
s21.833 18 35.5 24s28.167 9 43.5 9s29.833 -3 43.5 -9s25.5 -14 35.5 -24s18 -21.833 24 -35.5s9 -28.167 9 -43.5s-3 -29.833 -9 -43.5s-14 -25.5 -24 -35.5s-21.833 -18 -35.5 -24s-28.167 -9 -43.5 -9zM762 1261c-15.333 0 -29.833 3 -43.5 9s-25.5 14 -35.5 24
s-18 21.833 -24 35.5s-9 28.167 -9 43.5s3 29.833 9 43.5s14 25.5 24 35.5s21.833 18 35.5 24s28.167 9 43.5 9s29.833 -3 43.5 -9s25.5 -14 35.5 -24s18 -21.833 24 -35.5s9 -28.167 9 -43.5s-3 -29.833 -9 -43.5s-14 -25.5 -24 -35.5s-21.833 -18 -35.5 -24
s-28.167 -9 -43.5 -9z" />
    <glyph glyph-name="yacute" unicode="&#xfd;" horiz-adv-x="1026" 
d="M210 -391c-11.333 0 -24.1689 0.666992 -38.502 2s-26.833 3 -37.5 5v147c10 -2 21.5 -3.5 34.5 -4.5s25.167 -1.5 36.5 -1.5c24.667 0 46.834 3.16699 66.501 9.5s37.5 16.5 53.5 30.5s30.167 32.333 42.5 55s24.166 50.334 35.499 83.001l21 64l-399 1079h185l302 -901
h4l302 901h183l-422 -1144c-23.333 -62.667 -46.666 -114.834 -69.999 -156.501s-49.166 -75 -77.499 -100s-60.333 -42.667 -96 -53s-77.5 -15.5 -125.5 -15.5zM439.997 1250l211 300h198l-261 -300h-148z" />
    <glyph glyph-name="thorn" unicode="&#xfe;" horiz-adv-x="1171" 
d="M653 1097c68.667 0 130.83 -13.1631 186.497 -39.4961s103.334 -63.833 143.001 -112.5s70.167 -107.334 91.5 -176.001s32 -145.334 32 -230.001c0 -84 -10.833 -160.333 -32.5 -229s-52.167 -127.334 -91.5 -176.001s-86.833 -86.334 -142.5 -113.001
s-117.834 -40 -186.501 -40c-77.333 0 -145.666 15.833 -204.999 47.5s-103.666 76.167 -132.999 133.5h-15v-522h-172v1866h164v-608h16c34.667 62.667 82.334 111.5 143.001 146.5s128 52.5 202 52.5zM611.996 136.004c49.333 0 93.665 9.16602 132.998 27.499
s72.5 44.833 99.5 79.5s47.667 76.834 62 126.501s21.5 106.167 21.5 169.5c0 62.667 -7.16699 119 -21.5 169s-35 92.333 -62 127s-60 61.167 -99 79.5s-83.167 27.5 -132.5 27.5c-48.667 0 -92.667 -9.33301 -132 -28s-72.666 -45.5 -99.999 -80.5
s-48.5 -77.333 -63.5 -127s-22.5 -105.5 -22.5 -167.5s7.33301 -117.833 22 -167.5s35.834 -92 63.501 -127s61 -61.833 100 -80.5s82.833 -28 131.5 -28z" />
    <glyph glyph-name="ydieresis" unicode="&#xff;" horiz-adv-x="1026" 
d="M210 -391c-11.333 0 -24.1689 0.666992 -38.502 2s-26.833 3 -37.5 5v147c10 -2 21.5 -3.5 34.5 -4.5s25.167 -1.5 36.5 -1.5c24.667 0 46.834 3.16699 66.501 9.5s37.5 16.5 53.5 30.5s30.167 32.333 42.5 55s24.166 50.334 35.499 83.001l21 64l-399 1079h185l302 -901
h4l302 901h183l-422 -1144c-23.333 -62.667 -46.666 -114.834 -69.999 -156.501s-49.166 -75 -77.499 -100s-60.333 -42.667 -96 -53s-77.5 -15.5 -125.5 -15.5zM316.997 1261c-15.333 0 -29.833 3 -43.5 9s-25.5 14 -35.5 24s-18 21.833 -24 35.5s-9 28.167 -9 43.5
s3 29.833 9 43.5s14 25.5 24 35.5s21.833 18 35.5 24s28.167 9 43.5 9s29.833 -3 43.5 -9s25.5 -14 35.5 -24s18 -21.833 24 -35.5s9 -28.167 9 -43.5s-3 -29.833 -9 -43.5s-14 -25.5 -24 -35.5s-21.833 -18 -35.5 -24s-28.167 -9 -43.5 -9zM710.997 1261
c-15.333 0 -29.833 3 -43.5 9s-25.5 14 -35.5 24s-18 21.833 -24 35.5s-9 28.167 -9 43.5s3 29.833 9 43.5s14 25.5 24 35.5s21.833 18 35.5 24s28.167 9 43.5 9s29.833 -3 43.5 -9s25.5 -14 35.5 -24s18 -21.833 24 -35.5s9 -28.167 9 -43.5s-3 -29.833 -9 -43.5
s-14 -25.5 -24 -35.5s-21.833 -18 -35.5 -24s-28.167 -9 -43.5 -9z" />
    <glyph glyph-name="Amacron" unicode="&#x100;" horiz-adv-x="1292" 
d="M933 413h-574l-145 -413h-189l532 1443h178l532 -1443h-189zM412 566h468l-231 658h-6zM963 1642h-634v106h634v-106z" />
    <glyph glyph-name="amacron" unicode="&#x101;" horiz-adv-x="1062" 
d="M470 141c44 0 84.666 6.66797 121.999 20.001s69.5 32 96.5 56s48.167 52.5 63.5 85.5s23 68.833 23 107.5v87l-282 -18c-81.333 -5.33301 -142.666 -22.5 -183.999 -51.5s-62 -69.5 -62 -121.5c0 -25.333 5.16699 -48 15.5 -68s25.333 -37.333 45 -52
s43.167 -25.834 70.5 -33.501s58 -11.5 92 -11.5zM432.999 -9.99902c-54.667 0 -104.333 7.5 -149 22.5s-83 36.333 -115 64s-56.667 61 -74 100s-26 82.5 -26 130.5c0 93.333 34.333 166.333 103 219s169 83 301 91l302 18v90c0 67.333 -21.167 118.833 -63.5 154.5
s-103.5 53.5 -183.5 53.5c-31.333 0 -60.333 -3.83301 -87 -11.5s-50.5 -18.667 -71.5 -33s-38.333 -31.833 -52 -52.5s-23.167 -43.667 -28.5 -69h-167c1.33301 45.333 12.666 87.666 33.999 126.999s50.333 73.333 87 102s79.5 51.167 128.5 67.5s101.833 24.5 158.5 24.5
c64 0 121.667 -8.16699 173 -24.5s95.333 -39.666 132 -69.999s64.834 -67 84.501 -110s29.5 -90.833 29.5 -143.5v-740h-165v187h-4c-15.333 -30 -35 -57.167 -59 -81.5s-51 -45 -81 -62s-62.5 -30.167 -97.5 -39.5s-71.5 -14 -109.5 -14zM843 1320h-634v106h634v-106z" />
    <glyph glyph-name="Abreve" unicode="&#x102;" horiz-adv-x="1292" 
d="M933 413h-574l-145 -413h-189l532 1443h178l532 -1443h-189zM412 566h468l-231 658h-6zM455 1849c0 -27.333 4.83398 -53 14.501 -77s23.167 -44.833 40.5 -62.5s37.5 -31.5 60.5 -41.5s48.167 -15 75.5 -15c26.667 0 51.667 5 75 15s43.666 23.833 60.999 41.5
s30.833 38.5 40.5 62.5s14.5 49.667 14.5 77h119c0 -44 -7.5 -84.333 -22.5 -121s-36.167 -68.167 -63.5 -94.5s-60 -46.833 -98 -61.5s-80 -22 -126 -22s-88 7.33301 -126 22s-70.667 35.167 -98 61.5s-48.5 57.833 -63.5 94.5s-22.5 77 -22.5 121h119z" />
    <glyph glyph-name="abreve" unicode="&#x103;" horiz-adv-x="1062" 
d="M470 141c44 0 84.666 6.66797 121.999 20.001s69.5 32 96.5 56s48.167 52.5 63.5 85.5s23 68.833 23 107.5v87l-282 -18c-81.333 -5.33301 -142.666 -22.5 -183.999 -51.5s-62 -69.5 -62 -121.5c0 -25.333 5.16699 -48 15.5 -68s25.333 -37.333 45 -52
s43.167 -25.834 70.5 -33.501s58 -11.5 92 -11.5zM432.999 -9.99902c-54.667 0 -104.333 7.5 -149 22.5s-83 36.333 -115 64s-56.667 61 -74 100s-26 82.5 -26 130.5c0 93.333 34.333 166.333 103 219s169 83 301 91l302 18v90c0 67.333 -21.167 118.833 -63.5 154.5
s-103.5 53.5 -183.5 53.5c-31.333 0 -60.333 -3.83301 -87 -11.5s-50.5 -18.667 -71.5 -33s-38.333 -31.833 -52 -52.5s-23.167 -43.667 -28.5 -69h-167c1.33301 45.333 12.666 87.666 33.999 126.999s50.333 73.333 87 102s79.5 51.167 128.5 67.5s101.833 24.5 158.5 24.5
c64 0 121.667 -8.16699 173 -24.5s95.333 -39.666 132 -69.999s64.834 -67 84.501 -110s29.5 -90.833 29.5 -143.5v-740h-165v187h-4c-15.333 -30 -35 -57.167 -59 -81.5s-51 -45 -81 -62s-62.5 -30.167 -97.5 -39.5s-71.5 -14 -109.5 -14zM326 1550
c0 -28.667 5.16504 -55.334 15.498 -80.001s24.333 -46.167 42 -64.5s38.667 -32.666 63 -42.999s50.5 -15.5 78.5 -15.5s54.167 5.16699 78.5 15.5s45.333 24.666 63 42.999s31.667 39.833 42 64.5s15.5 51.334 15.5 80.001h123c0 -46 -7.83301 -88 -23.5 -126
s-37.667 -70.667 -66 -98s-62.166 -48.5 -101.499 -63.5s-83 -22.5 -131 -22.5s-91.667 7.5 -131 22.5s-73.166 36.167 -101.499 63.5s-50.333 60 -66 98s-23.5 80 -23.5 126h123z" />
    <glyph glyph-name="Aogonek" unicode="&#x104;" horiz-adv-x="1292" 
d="M1172 -432c-34.667 0 -66.498 5.49707 -95.498 16.4971s-53.833 26.5 -74.5 46.5s-36.834 43.667 -48.501 71s-17.5 57.666 -17.5 90.999c0 44.667 11.5 86.334 34.5 125.001s56.5 73.334 100.5 104.001l-138 391h-574l-145 -413h-189l532 1443h178l527 -1429
c-53.333 -23.333 -94 -51.666 -122 -84.999s-42 -69.666 -42 -108.999c0 -35.333 11 -63.833 33 -85.5s51 -32.5 87 -32.5c19.333 0 35.666 1 48.999 3v-126c-14 -4 -28.5 -6.83301 -43.5 -8.5s-32.167 -2.5 -51.5 -2.5zM412.002 565.997h468l-226 644h-16z" />
    <glyph glyph-name="aogonek" unicode="&#x105;" horiz-adv-x="1062" 
d="M861 -432c-34.667 0 -66.167 5.16602 -94.5 15.499s-52.666 24.833 -72.999 43.5s-36 41.334 -47 68.001s-16.5 56 -16.5 88c0 97.333 51.333 177.333 154 240v164h-4c-15.333 -30 -35 -57.167 -59 -81.5s-51 -45 -81 -62s-62.5 -30.167 -97.5 -39.5
s-71.5 -14 -109.5 -14c-54.667 0 -104.334 7.5 -149.001 22.5s-83 36.333 -115 64s-56.667 61 -74 100s-26 82.5 -26 130.5c0 93.333 34.333 166.333 103 219s169 83 301 91l302 18v90c0 67.333 -21.167 118.833 -63.5 154.5s-103.5 53.5 -183.5 53.5
c-31.333 0 -60.333 -3.83301 -87 -11.5s-50.5 -18.667 -71.5 -33s-38.333 -31.833 -52 -52.5s-23.167 -43.667 -28.5 -69h-167c1.33301 45.333 12.666 87.666 33.999 126.999s50.333 73.333 87 102s79.5 51.167 128.5 67.5s101.833 24.5 158.5 24.5
c64 0 121.667 -8.16699 173 -24.5s95.333 -39.666 132 -69.999s64.834 -67 84.501 -110s29.5 -90.833 29.5 -143.5v-721c-52 -23.333 -92 -52.333 -120 -87s-42 -72 -42 -112c0 -36 10.667 -64.667 32 -86s50 -32 86 -32c17.333 0 32 1 44 3v-126
c-26 -7.33301 -55.333 -11 -88 -11zM470 140.999c44 0 84.666 6.66797 121.999 20.001s69.5 32 96.5 56s48.167 52.5 63.5 85.5s23 68.833 23 107.5v87l-282 -18c-81.333 -5.33301 -142.666 -22.5 -183.999 -51.5s-62 -69.5 -62 -121.5c0 -25.333 5.16699 -48 15.5 -68
s25.333 -37.333 45 -52s43.167 -25.834 70.5 -33.501s58 -11.5 92 -11.5z" />
    <glyph glyph-name="Cacute" unicode="&#x106;" horiz-adv-x="1405" 
d="M734 -24c-99.333 0 -189.17 17.499 -269.503 52.499s-148.666 84.833 -204.999 149.5s-99.666 143 -129.999 235s-45.5 195 -45.5 309c0 113.333 15.333 215.833 46 307.5s74.334 170 131.001 235s125 115 205 150s169.333 52.5 268 52.5
c78.667 0 151.834 -11.5 219.501 -34.5s127.834 -55.333 180.501 -97s96.167 -92 130.5 -151s57.166 -124.5 68.499 -196.5h-182c-11.333 47.333 -29.833 90.166 -55.5 128.499s-56.667 71.166 -93 98.499s-77.333 48.5 -123 63.5s-94.167 22.5 -145.5 22.5
c-70.667 0 -134.667 -13.667 -192 -41s-106.166 -66.333 -146.499 -117s-71.5 -111.5 -93.5 -182.5s-33 -150.5 -33 -238.5c0 -88.667 10.833 -168.667 32.5 -240s52.834 -132.166 93.501 -182.499s89.667 -89.166 147 -116.499s121.666 -41 192.999 -41
c52.667 0 101.667 6.16699 147 18.5s85.666 30.5 120.999 54.5s65.5 53.167 90.5 87.5s44.167 73.5 57.5 117.5h182c-33.333 -143.333 -101.333 -253.166 -204 -329.499s-234.334 -114.5 -395.001 -114.5zM662.996 1552l231 299h198l-281 -299h-148z" />
    <glyph glyph-name="cacute" unicode="&#x107;" horiz-adv-x="1060" 
d="M838 727c-5.33301 28.667 -15.332 55.4922 -29.999 80.4922s-33.834 46.833 -57.501 65.5s-51.5 33.334 -83.5 44.001s-68.333 16 -109 16c-47.333 0 -90.333 -9.33301 -129 -28s-71.834 -45.167 -99.501 -79.5s-49.167 -75.833 -64.5 -124.5s-23 -102.667 -23 -162
c0 -61.333 7.66699 -116.333 23 -165s37 -90 65 -124s61.5 -60 100.5 -78s82.167 -27 129.5 -27c75.333 0 137 17 185 51s79.667 83.667 95 149h171c-7.33301 -52.667 -23.5 -100.667 -48.5 -144s-57.167 -80.666 -96.5 -111.999s-85 -55.666 -137 -72.999
s-108.667 -26 -170 -26c-74 0 -141.333 12.667 -202 38s-112.667 61.833 -156 109.5s-76.833 105.334 -100.5 173.001s-35.5 143.834 -35.5 228.501c0 82.667 11.833 157.834 35.5 225.501s57 125.5 100 173.5s94.667 85 155 111s127.5 39 201.5 39
c66.667 0 126.667 -10 180 -30s99.333 -46.667 138 -80s69.334 -71.666 92.001 -114.999s36.667 -88.666 42 -135.999h-171zM483.001 1249.99l211 300h198l-261 -300h-148z" />
    <glyph glyph-name="Ccircumflex" unicode="&#x108;" horiz-adv-x="1405" 
d="M734 -24c-99.333 0 -189.17 17.499 -269.503 52.499s-148.666 84.833 -204.999 149.5s-99.666 143 -129.999 235s-45.5 195 -45.5 309c0 113.333 15.333 215.833 46 307.5s74.334 170 131.001 235s125 115 205 150s169.333 52.5 268 52.5
c78.667 0 151.834 -11.5 219.501 -34.5s127.834 -55.333 180.501 -97s96.167 -92 130.5 -151s57.166 -124.5 68.499 -196.5h-182c-11.333 47.333 -29.833 90.166 -55.5 128.499s-56.667 71.166 -93 98.499s-77.333 48.5 -123 63.5s-94.167 22.5 -145.5 22.5
c-70.667 0 -134.667 -13.667 -192 -41s-106.166 -66.333 -146.499 -117s-71.5 -111.5 -93.5 -182.5s-33 -150.5 -33 -238.5c0 -88.667 10.833 -168.667 32.5 -240s52.834 -132.166 93.501 -182.499s89.667 -89.166 147 -116.499s121.666 -41 192.999 -41
c52.667 0 101.667 6.16699 147 18.5s85.666 30.5 120.999 54.5s65.5 53.167 90.5 87.5s44.167 73.5 57.5 117.5h182c-33.333 -143.333 -101.333 -253.166 -204 -329.499s-234.334 -114.5 -395.001 -114.5zM804.996 1851l292 -299h-168l-194 201h-2l-194 -201h-168l292 299
h142z" />
    <glyph glyph-name="ccircumflex" unicode="&#x109;" horiz-adv-x="1060" 
d="M838 727c-5.33301 28.667 -15.332 55.4922 -29.999 80.4922s-33.834 46.833 -57.501 65.5s-51.5 33.334 -83.5 44.001s-68.333 16 -109 16c-47.333 0 -90.333 -9.33301 -129 -28s-71.834 -45.167 -99.501 -79.5s-49.167 -75.833 -64.5 -124.5s-23 -102.667 -23 -162
c0 -61.333 7.66699 -116.333 23 -165s37 -90 65 -124s61.5 -60 100.5 -78s82.167 -27 129.5 -27c75.333 0 137 17 185 51s79.667 83.667 95 149h171c-7.33301 -52.667 -23.5 -100.667 -48.5 -144s-57.167 -80.666 -96.5 -111.999s-85 -55.666 -137 -72.999
s-108.667 -26 -170 -26c-74 0 -141.333 12.667 -202 38s-112.667 61.833 -156 109.5s-76.833 105.334 -100.5 173.001s-35.5 143.834 -35.5 228.501c0 82.667 11.833 157.834 35.5 225.501s57 125.5 100 173.5s94.667 85 155 111s127.5 39 201.5 39
c66.667 0 126.667 -10 180 -30s99.333 -46.667 138 -80s69.334 -71.666 92.001 -114.999s36.667 -88.666 42 -135.999h-171zM896.001 1249.99h-163l-173 197h-6l-173 -197h-163l277 300h124z" />
    <glyph glyph-name="Cdotaccent" unicode="&#x10a;" horiz-adv-x="1405" 
d="M734 -24c-99.333 0 -189.17 17.499 -269.503 52.499s-148.666 84.833 -204.999 149.5s-99.666 143 -129.999 235s-45.5 195 -45.5 309c0 113.333 15.333 215.833 46 307.5s74.334 170 131.001 235s125 115 205 150s169.333 52.5 268 52.5
c78.667 0 151.834 -11.5 219.501 -34.5s127.834 -55.333 180.501 -97s96.167 -92 130.5 -151s57.166 -124.5 68.499 -196.5h-182c-11.333 47.333 -29.833 90.166 -55.5 128.499s-56.667 71.166 -93 98.499s-77.333 48.5 -123 63.5s-94.167 22.5 -145.5 22.5
c-70.667 0 -134.667 -13.667 -192 -41s-106.166 -66.333 -146.499 -117s-71.5 -111.5 -93.5 -182.5s-33 -150.5 -33 -238.5c0 -88.667 10.833 -168.667 32.5 -240s52.834 -132.166 93.501 -182.499s89.667 -89.166 147 -116.499s121.666 -41 192.999 -41
c52.667 0 101.667 6.16699 147 18.5s85.666 30.5 120.999 54.5s65.5 53.167 90.5 87.5s44.167 73.5 57.5 117.5h182c-33.333 -143.333 -101.333 -253.166 -204 -329.499s-234.334 -114.5 -395.001 -114.5zM733.996 1587c-16.667 0 -32.334 3.16699 -47.001 9.5
s-27.5 15 -38.5 26s-19.667 23.833 -26 38.5s-9.5 30.334 -9.5 47.001s3.16699 32.334 9.5 47.001s15 27.5 26 38.5s23.833 19.667 38.5 26s30.334 9.5 47.001 9.5s32.334 -3.16699 47.001 -9.5s27.5 -15 38.5 -26s19.667 -23.833 26 -38.5s9.5 -30.334 9.5 -47.001
s-3.16699 -32.334 -9.5 -47.001s-15 -27.5 -26 -38.5s-23.833 -19.667 -38.5 -26s-30.334 -9.5 -47.001 -9.5z" />
    <glyph glyph-name="cdotaccent" unicode="&#x10b;" horiz-adv-x="1060" 
d="M838 727c-5.33301 28.667 -15.332 55.4922 -29.999 80.4922s-33.834 46.833 -57.501 65.5s-51.5 33.334 -83.5 44.001s-68.333 16 -109 16c-47.333 0 -90.333 -9.33301 -129 -28s-71.834 -45.167 -99.501 -79.5s-49.167 -75.833 -64.5 -124.5s-23 -102.667 -23 -162
c0 -61.333 7.66699 -116.333 23 -165s37 -90 65 -124s61.5 -60 100.5 -78s82.167 -27 129.5 -27c75.333 0 137 17 185 51s79.667 83.667 95 149h171c-7.33301 -52.667 -23.5 -100.667 -48.5 -144s-57.167 -80.666 -96.5 -111.999s-85 -55.666 -137 -72.999
s-108.667 -26 -170 -26c-74 0 -141.333 12.667 -202 38s-112.667 61.833 -156 109.5s-76.833 105.334 -100.5 173.001s-35.5 143.834 -35.5 228.501c0 82.667 11.833 157.834 35.5 225.501s57 125.5 100 173.5s94.667 85 155 111s127.5 39 201.5 39
c66.667 0 126.667 -10 180 -30s99.333 -46.667 138 -80s69.334 -71.666 92.001 -114.999s36.667 -88.666 42 -135.999h-171zM557.001 1260.99c-17.333 0 -33.5 3.33301 -48.5 10s-28 15.5 -39 26.5s-19.833 24 -26.5 39s-10 31.167 -10 48.5c0 16.667 3.33301 32.667 10 48
s15.5 28.5 26.5 39.5s24 19.833 39 26.5s31.167 10 48.5 10c16.667 0 32.667 -3.33301 48 -10s28.5 -15.5 39.5 -26.5s19.833 -24.167 26.5 -39.5s10 -31.333 10 -48c0 -17.333 -3.33301 -33.5 -10 -48.5s-15.5 -28 -26.5 -39s-24.167 -19.833 -39.5 -26.5
s-31.333 -10 -48 -10z" />
    <glyph glyph-name="Ccaron" unicode="&#x10c;" horiz-adv-x="1405" 
d="M734 -24c-99.333 0 -189.17 17.499 -269.503 52.499s-148.666 84.833 -204.999 149.5s-99.666 143 -129.999 235s-45.5 195 -45.5 309c0 113.333 15.333 215.833 46 307.5s74.334 170 131.001 235s125 115 205 150s169.333 52.5 268 52.5
c78.667 0 151.834 -11.5 219.501 -34.5s127.834 -55.333 180.501 -97s96.167 -92 130.5 -151s57.166 -124.5 68.499 -196.5h-182c-11.333 47.333 -29.833 90.166 -55.5 128.499s-56.667 71.166 -93 98.499s-77.333 48.5 -123 63.5s-94.167 22.5 -145.5 22.5
c-70.667 0 -134.667 -13.667 -192 -41s-106.166 -66.333 -146.499 -117s-71.5 -111.5 -93.5 -182.5s-33 -150.5 -33 -238.5c0 -88.667 10.833 -168.667 32.5 -240s52.834 -132.166 93.501 -182.499s89.667 -89.166 147 -116.499s121.666 -41 192.999 -41
c52.667 0 101.667 6.16699 147 18.5s85.666 30.5 120.999 54.5s65.5 53.167 90.5 87.5s44.167 73.5 57.5 117.5h182c-33.333 -143.333 -101.333 -253.166 -204 -329.499s-234.334 -114.5 -395.001 -114.5zM370.996 1851h168l194 -201h2l194 201h168l-292 -299h-142z" />
    <glyph glyph-name="ccaron" unicode="&#x10d;" horiz-adv-x="1060" 
d="M838 727c-5.33301 28.667 -15.332 55.4922 -29.999 80.4922s-33.834 46.833 -57.501 65.5s-51.5 33.334 -83.5 44.001s-68.333 16 -109 16c-47.333 0 -90.333 -9.33301 -129 -28s-71.834 -45.167 -99.501 -79.5s-49.167 -75.833 -64.5 -124.5s-23 -102.667 -23 -162
c0 -61.333 7.66699 -116.333 23 -165s37 -90 65 -124s61.5 -60 100.5 -78s82.167 -27 129.5 -27c75.333 0 137 17 185 51s79.667 83.667 95 149h171c-7.33301 -52.667 -23.5 -100.667 -48.5 -144s-57.167 -80.666 -96.5 -111.999s-85 -55.666 -137 -72.999
s-108.667 -26 -170 -26c-74 0 -141.333 12.667 -202 38s-112.667 61.833 -156 109.5s-76.833 105.334 -100.5 173.001s-35.5 143.834 -35.5 228.501c0 82.667 11.833 157.834 35.5 225.501s57 125.5 100 173.5s94.667 85 155 111s127.5 39 201.5 39
c66.667 0 126.667 -10 180 -30s99.333 -46.667 138 -80s69.334 -71.666 92.001 -114.999s36.667 -88.666 42 -135.999h-171zM495.001 1249.99l-277 300h163l173 -197h6l173 197h163l-277 -300h-124z" />
    <glyph glyph-name="Dcaron" unicode="&#x10e;" horiz-adv-x="1399" 
d="M635 1443c106.667 0 202.164 -16.332 286.497 -48.999s155.833 -79.834 214.5 -141.501s103.334 -137.167 134.001 -226.5s46 -190.666 46 -303.999c0 -114 -15.333 -215.667 -46 -305s-75.167 -164.833 -133.5 -226.5s-129.666 -108.834 -213.999 -141.501
s-180.166 -49 -287.499 -49h-495v1443h495zM319.997 162.001l303.001 0.00195312c82 0 154.5 12.333 217.5 37s116.167 60.667 159.5 108s76.166 105.666 98.499 174.999s33.5 148.666 33.5 237.999c0 90 -11.167 170 -33.5 240s-55 128.667 -98 176
s-96.167 83.333 -159.5 108s-136 37 -218 37h-303v-1119zM186.998 1849h168l194 -201h2l194 201h168l-292 -299h-142z" />
    <glyph glyph-name="dcaron" unicode="&#x10f;" horiz-adv-x="1307" 
d="M1336 1506l-30 -488h-110v488h140zM527 -10c-68 0 -130.166 13.168 -186.499 39.501s-105 63.5 -146 111.5s-72.833 105.833 -95.5 173.5s-34 142.5 -34 224.5s11.333 156.833 34 224.5s54.167 125.5 94.5 173.5s88.5 85.167 144.5 111.5s117.667 39.5 185 39.5
c77.333 0 145.666 -16 204.999 -48s105.666 -77.667 138.999 -137h4v603h174v-1506h-166v182h-3c-35.333 -62.667 -82.666 -110.334 -141.999 -143.001s-128.333 -49 -207 -49zM558.001 933.001c-47.333 0 -90.333 -9.33398 -129 -28.001s-71.834 -45.167 -99.501 -79.5
s-49 -75.833 -64 -124.5s-22.5 -102.667 -22.5 -162c0 -60 7.5 -114.167 22.5 -162.5s36.333 -89.666 64 -123.999s60.834 -60.833 99.501 -79.5s81.667 -28 129 -28c46.667 0 89.334 9.5 128.001 28.5s71.667 45.833 99 80.5s48.666 76.167 63.999 124.5
s23 101.833 23 160.5s-7.66699 112.167 -23 160.5s-36.666 89.833 -63.999 124.5s-60.333 61.5 -99 80.5s-81.334 28.5 -128.001 28.5z" />
    <glyph glyph-name="Dcroat" unicode="&#x110;" horiz-adv-x="1531" 
d="M702 162c82 0 154.501 12.335 217.501 37.002s116.167 60.667 159.5 108s76.166 105.666 98.499 174.999s33.5 148.666 33.5 237.999c0 90 -11.167 170 -33.5 240s-55 128.667 -98 176s-96.167 83.333 -159.5 108s-136 37 -218 37h-303v-455h277v-163h-277v-501h303z
M714.001 1443c106.667 0 202.164 -16.332 286.497 -48.999s155.833 -79.834 214.5 -141.501s103.334 -137.167 134.001 -226.5s46 -190.666 46 -303.999c0 -114 -15.333 -215.667 -46 -305s-75.167 -164.833 -133.5 -226.5s-129.666 -108.834 -213.999 -141.501
s-180.166 -49 -287.499 -49h-495v663h-129v163h129v617h495z" />
    <glyph glyph-name="dcroat" unicode="&#x111;" horiz-adv-x="1210" 
d="M577 136c48.667 0 92.6689 9.33105 132.002 27.998s72.666 45.334 99.999 80.001s48.333 77 63 127s22 106 22 168s-7.33301 117.833 -22 167.5s-35.834 92 -63.501 127s-61 61.833 -100 80.5s-82.833 28 -131.5 28c-49.333 0 -93.333 -9.16699 -132 -27.5
s-71.667 -44.833 -99 -79.5s-48.166 -77 -62.499 -127s-21.5 -106.333 -21.5 -169c0 -63.333 7.16699 -120 21.5 -170s35.166 -92.167 62.499 -126.5s60.333 -60.666 99 -78.999s82.667 -27.5 132 -27.5zM1186 1287l-124.002 -0.00292969v-1287h-164v172h-16
c-34 -59.333 -80.833 -106 -140.5 -140s-127.834 -51 -204.501 -51c-69.333 0 -131.833 13.167 -187.5 39.5s-103.167 63.833 -142.5 112.5s-69.666 107.334 -90.999 176.001s-32 145.334 -32 230.001s10.667 161.334 32 230.001s51.833 127.334 91.5 176.001
s87.334 86.167 143.001 112.5s117.834 39.5 186.501 39.5c38 0 74.167 -4.33301 108.5 -13s66 -21.334 95 -38.001s54.833 -36.667 77.5 -60s41.667 -49.333 57 -78h15v379h-260v124h260v153h172v-153h124v-124z" />
    <glyph glyph-name="Emacron" unicode="&#x112;" horiz-adv-x="1131" 
d="M1034 0h-894v1443h894v-162h-714v-463h677v-160h-677v-496h714v-162zM904 1642h-634v106h634v-106z" />
    <glyph glyph-name="emacron" unicode="&#x113;" horiz-adv-x="1084" 
d="M548 935c-42 0 -81.0029 -7.33203 -117.003 -21.999s-67.167 -35.334 -93.5 -62.001s-47.666 -58.834 -63.999 -96.501s-25.833 -79.167 -28.5 -124.5h593c-1.33301 46 -9.16602 87.667 -23.499 125s-34.166 69.333 -59.499 96s-55.5 47.334 -90.5 62.001
s-73.833 22 -116.5 22zM1006 308.001c-7.33301 -46 -24.002 -88.4941 -50.002 -127.494s-58.833 -72.667 -98.5 -101s-85 -50.333 -136 -66s-105.167 -23.5 -162.5 -23.5c-76 0 -144.333 12.667 -205 38s-112.5 61.666 -155.5 108.999s-76 104.666 -99 171.999
s-34.5 142.666 -34.5 225.999s11.5 159 34.5 227s55.667 126.167 98 174.5s93.5 85.666 153.5 111.999s126.667 39.5 200 39.5c72 0 136.833 -12.333 194.5 -37s106.834 -59.834 147.501 -105.501s71.834 -101.167 93.501 -166.5s32.5 -138.666 32.5 -219.999v-68h-774v-10
c0 -51.333 7.5 -97.833 22.5 -139.5s36.5 -77.167 64.5 -106.5s61.5 -52 100.5 -68s82.5 -24 130.5 -24c34 0 65.667 3.83301 95 11.5s55.833 18.667 79.5 33s43.667 31.666 60 51.999s28.5 43.166 36.5 68.499h172zM867.995 1320.01h-634v106h634v-106z" />
    <glyph glyph-name="Ebreve" unicode="&#x114;" horiz-adv-x="1131" 
d="M1034 0h-894v1443h894v-162h-714v-463h677v-160h-677v-496h714v-162zM396 1849c0 -27.333 4.83398 -53 14.501 -77s23.167 -44.833 40.5 -62.5s37.5 -31.5 60.5 -41.5s48.167 -15 75.5 -15c26.667 0 51.667 5 75 15s43.666 23.833 60.999 41.5s30.833 38.5 40.5 62.5
s14.5 49.667 14.5 77h119c0 -44 -7.5 -84.333 -22.5 -121s-36.167 -68.167 -63.5 -94.5s-60 -46.833 -98 -61.5s-80 -22 -126 -22s-88 7.33301 -126 22s-70.667 35.167 -98 61.5s-48.5 57.833 -63.5 94.5s-22.5 77 -22.5 121h119z" />
    <glyph glyph-name="ebreve" unicode="&#x115;" horiz-adv-x="1084" 
d="M548 935c-42 0 -81.0029 -7.33203 -117.003 -21.999s-67.167 -35.334 -93.5 -62.001s-47.666 -58.834 -63.999 -96.501s-25.833 -79.167 -28.5 -124.5h593c-1.33301 46 -9.16602 87.667 -23.499 125s-34.166 69.333 -59.499 96s-55.5 47.334 -90.5 62.001
s-73.833 22 -116.5 22zM1006 308.001c-7.33301 -46 -24.002 -88.4941 -50.002 -127.494s-58.833 -72.667 -98.5 -101s-85 -50.333 -136 -66s-105.167 -23.5 -162.5 -23.5c-76 0 -144.333 12.667 -205 38s-112.5 61.666 -155.5 108.999s-76 104.666 -99 171.999
s-34.5 142.666 -34.5 225.999s11.5 159 34.5 227s55.667 126.167 98 174.5s93.5 85.666 153.5 111.999s126.667 39.5 200 39.5c72 0 136.833 -12.333 194.5 -37s106.834 -59.834 147.501 -105.501s71.834 -101.167 93.501 -166.5s32.5 -138.666 32.5 -219.999v-68h-774v-10
c0 -51.333 7.5 -97.833 22.5 -139.5s36.5 -77.167 64.5 -106.5s61.5 -52 100.5 -68s82.5 -24 130.5 -24c34 0 65.667 3.83301 95 11.5s55.833 18.667 79.5 33s43.667 31.666 60 51.999s28.5 43.166 36.5 68.499h172zM350.995 1550.01
c0 -28.667 5.16504 -55.334 15.498 -80.001s24.333 -46.167 42 -64.5s38.667 -32.666 63 -42.999s50.5 -15.5 78.5 -15.5s54.167 5.16699 78.5 15.5s45.333 24.666 63 42.999s31.667 39.833 42 64.5s15.5 51.334 15.5 80.001h123c0 -46 -7.83301 -88 -23.5 -126
s-37.667 -70.667 -66 -98s-62.166 -48.5 -101.499 -63.5s-83 -22.5 -131 -22.5s-91.667 7.5 -131 22.5s-73.166 36.167 -101.499 63.5s-50.333 60 -66 98s-23.5 80 -23.5 126h123z" />
    <glyph glyph-name="Edotaccent" unicode="&#x116;" horiz-adv-x="1131" 
d="M1034 0h-894v1443h894v-162h-714v-463h677v-160h-677v-496h714v-162zM587 1585c-16.667 0 -32.334 3.16699 -47.001 9.5s-27.5 15 -38.5 26s-19.667 23.833 -26 38.5s-9.5 30.334 -9.5 47.001s3.16699 32.334 9.5 47.001s15 27.5 26 38.5s23.833 19.667 38.5 26
s30.334 9.5 47.001 9.5s32.334 -3.16699 47.001 -9.5s27.5 -15 38.5 -26s19.667 -23.833 26 -38.5s9.5 -30.334 9.5 -47.001s-3.16699 -32.334 -9.5 -47.001s-15 -27.5 -26 -38.5s-23.833 -19.667 -38.5 -26s-30.334 -9.5 -47.001 -9.5z" />
    <glyph glyph-name="edotaccent" unicode="&#x117;" horiz-adv-x="1084" 
d="M548 935c-42 0 -81.0029 -7.33203 -117.003 -21.999s-67.167 -35.334 -93.5 -62.001s-47.666 -58.834 -63.999 -96.501s-25.833 -79.167 -28.5 -124.5h593c-1.33301 46 -9.16602 87.667 -23.499 125s-34.166 69.333 -59.499 96s-55.5 47.334 -90.5 62.001
s-73.833 22 -116.5 22zM1006 308.001c-7.33301 -46 -24.002 -88.4941 -50.002 -127.494s-58.833 -72.667 -98.5 -101s-85 -50.333 -136 -66s-105.167 -23.5 -162.5 -23.5c-76 0 -144.333 12.667 -205 38s-112.5 61.666 -155.5 108.999s-76 104.666 -99 171.999
s-34.5 142.666 -34.5 225.999s11.5 159 34.5 227s55.667 126.167 98 174.5s93.5 85.666 153.5 111.999s126.667 39.5 200 39.5c72 0 136.833 -12.333 194.5 -37s106.834 -59.834 147.501 -105.501s71.834 -101.167 93.501 -166.5s32.5 -138.666 32.5 -219.999v-68h-774v-10
c0 -51.333 7.5 -97.833 22.5 -139.5s36.5 -77.167 64.5 -106.5s61.5 -52 100.5 -68s82.5 -24 130.5 -24c34 0 65.667 3.83301 95 11.5s55.833 18.667 79.5 33s43.667 31.666 60 51.999s28.5 43.166 36.5 68.499h172zM550.995 1261.01c-17.333 0 -33.5 3.33301 -48.5 10
s-28 15.5 -39 26.5s-19.833 24 -26.5 39s-10 31.167 -10 48.5c0 16.667 3.33301 32.667 10 48s15.5 28.5 26.5 39.5s24 19.833 39 26.5s31.167 10 48.5 10c16.667 0 32.667 -3.33301 48 -10s28.5 -15.5 39.5 -26.5s19.833 -24.167 26.5 -39.5s10 -31.333 10 -48
c0 -17.333 -3.33301 -33.5 -10 -48.5s-15.5 -28 -26.5 -39s-24.167 -19.833 -39.5 -26.5s-31.333 -10 -48 -10z" />
    <glyph glyph-name="Eogonek" unicode="&#x118;" horiz-adv-x="1131" 
d="M140 0l0.000976562 1443h894v-162h-714v-463h677v-160h-677v-496h714v-124c-131.333 -59.333 -197 -134 -197 -224c0 -34 11.167 -61.167 33.5 -81.5s51.833 -30.5 88.5 -30.5c34 0 59 3 75 9v-123c-10 -6 -26.167 -10.833 -48.5 -14.5s-46.5 -5.5 -72.5 -5.5
c-36.667 0 -69.834 5.16699 -99.501 15.5s-55 24.833 -76 43.5s-37.167 41.167 -48.5 67.5s-17 55.5 -17 87.5c0 82 40.667 154.667 122 218h-654z" />
    <glyph glyph-name="eogonek" unicode="&#x119;" horiz-adv-x="1084" 
d="M756 -432c-32.667 0 -62.834 5.50879 -90.501 16.5088s-51.5 26.167 -71.5 45.5s-35.667 42.166 -47 68.499s-17 55.166 -17 86.499c0 38.667 7.83301 73.834 23.5 105.501s41.167 65.167 76.5 100.5v3c-9.33301 -1.33301 -19.666 -2.33301 -30.999 -3
s-24.666 -1 -39.999 -1c-76 0 -144.333 12.667 -205 38s-112.5 61.666 -155.5 108.999s-76 104.666 -99 171.999s-34.5 142.666 -34.5 225.999s11.5 159 34.5 227s55.667 126.167 98 174.5s93.5 85.666 153.5 111.999s126.667 39.5 200 39.5c72 0 136.833 -12.333 194.5 -37
s106.834 -59.834 147.501 -105.501s71.834 -101.167 93.501 -166.5s32.5 -138.666 32.5 -219.999v-68h-774v-10c0 -51.333 7.5 -97.833 22.5 -139.5s36.5 -77.167 64.5 -106.5s61.5 -52 100.5 -68s82.5 -24 130.5 -24c34 0 65.667 3.83301 95 11.5s55.833 18.667 79.5 33
s43.667 31.666 60 51.999s28.5 43.166 36.5 68.499h172c-6.66699 -44 -24.334 -87.333 -53.001 -130s-71 -88.334 -127 -137.001c-49.333 -43.333 -84.833 -82.333 -106.5 -117s-32.5 -70 -32.5 -106c0 -32 10.667 -58 32 -78s49 -30 83 -30c15.333 0 29.333 0.666992 42 2
s23.667 3.66602 33 6.99902v-131c-10.667 -6.66699 -26.334 -11.667 -47.001 -15s-45.334 -5 -74.001 -5zM548 935.009c-42 0 -81.0029 -7.33203 -117.003 -21.999s-67.167 -35.334 -93.5 -62.001s-47.666 -58.834 -63.999 -96.501s-25.833 -79.167 -28.5 -124.5h593
c-1.33301 46 -9.16602 87.667 -23.499 125s-34.166 69.333 -59.499 96s-55.5 47.334 -90.5 62.001s-73.833 22 -116.5 22z" />
    <glyph glyph-name="Ecaron" unicode="&#x11a;" horiz-adv-x="1131" 
d="M1034 0h-894v1443h894v-162h-714v-463h677v-160h-677v-496h714v-162zM224 1849h168l194 -201h2l194 201h168l-292 -299h-142z" />
    <glyph glyph-name="ecaron" unicode="&#x11b;" horiz-adv-x="1084" 
d="M548 935c-42 0 -81.0029 -7.33203 -117.003 -21.999s-67.167 -35.334 -93.5 -62.001s-47.666 -58.834 -63.999 -96.501s-25.833 -79.167 -28.5 -124.5h593c-1.33301 46 -9.16602 87.667 -23.499 125s-34.166 69.333 -59.499 96s-55.5 47.334 -90.5 62.001
s-73.833 22 -116.5 22zM1006 308.001c-7.33301 -46 -24.002 -88.4941 -50.002 -127.494s-58.833 -72.667 -98.5 -101s-85 -50.333 -136 -66s-105.167 -23.5 -162.5 -23.5c-76 0 -144.333 12.667 -205 38s-112.5 61.666 -155.5 108.999s-76 104.666 -99 171.999
s-34.5 142.666 -34.5 225.999s11.5 159 34.5 227s55.667 126.167 98 174.5s93.5 85.666 153.5 111.999s126.667 39.5 200 39.5c72 0 136.833 -12.333 194.5 -37s106.834 -59.834 147.501 -105.501s71.834 -101.167 93.501 -166.5s32.5 -138.666 32.5 -219.999v-68h-774v-10
c0 -51.333 7.5 -97.833 22.5 -139.5s36.5 -77.167 64.5 -106.5s61.5 -52 100.5 -68s82.5 -24 130.5 -24c34 0 65.667 3.83301 95 11.5s55.833 18.667 79.5 33s43.667 31.666 60 51.999s28.5 43.166 36.5 68.499h172zM488.995 1250.01l-277 300h163l173 -197h6l173 197h163
l-277 -300h-124z" />
    <glyph glyph-name="Gcircumflex" unicode="&#x11c;" horiz-adv-x="1447" 
d="M1357 597c0 -97.333 -13.8301 -184.5 -41.4971 -261.5s-67.667 -142.167 -120 -195.5s-116.5 -94 -192.5 -122s-162 -42 -258 -42c-100.667 0 -191.667 17.667 -273 53s-150.833 85.833 -208.5 151.5s-102 144.834 -133 237.501s-46.5 196.334 -46.5 311.001
c0 112.667 15.5 214.5 46.5 305.5s75.167 168.5 132.5 232.5s126.666 113.333 207.999 148s172.666 52 273.999 52c78 0 150.667 -11.167 218 -33.5s127.333 -54 180 -95s96.667 -90.5 132 -148.5s59.666 -123 72.999 -195h-189c-15.333 48.667 -35.833 92 -61.5 130
s-56.167 70 -91.5 96s-75 45.833 -119 59.5s-91.333 20.5 -142 20.5c-74 0 -140.5 -13 -199.5 -39s-109 -63.5 -150 -112.5s-72.333 -108.833 -94 -179.5s-32.5 -150.667 -32.5 -240c0 -90.667 11 -172.334 33 -245.001s53.5 -134.334 94.5 -185.001s91 -89.667 150 -117
s125.167 -41 198.5 -41c64 0 122.5 9.83301 175.5 29.5s98.5 47.5 136.5 83.5s67.5 79 88.5 129s31.5 105.333 31.5 166v26h-407v158h587v-137zM816.003 1849l292 -299h-168l-194 201h-2l-194 -201h-168l292 299h142z" />
    <glyph glyph-name="gcircumflex" unicode="&#x11d;" horiz-adv-x="1163" 
d="M554 155c47.333 0 90.5 9.33398 129.5 28.001s72.333 45 100 79s49.167 74.833 64.5 122.5s23 100.5 23 158.5s-7.66699 111 -23 159s-36.833 89 -64.5 123s-61 60.5 -100 79.5s-82.167 28.5 -129.5 28.5s-90 -9.33301 -128 -28s-70.667 -45 -98 -79
s-48.333 -75 -63 -123s-22 -101.333 -22 -160s7.33301 -111.834 22 -159.501s35.667 -88.5 63 -122.5s60 -60.167 98 -78.5s80.667 -27.5 128 -27.5zM557 -384.999c-61.333 0 -117.832 7 -169.499 21s-97 34 -136 60s-70.667 57.333 -95 94s-39.5 77.334 -45.5 122.001h181
c6.66699 -22.667 18 -43 34 -61s36 -33.333 60 -46s51.333 -22.334 82 -29.001s63.667 -10 99 -10c46.667 0 88.667 5.83301 126 17.5s69.166 28.334 95.499 50.001s46.666 48 60.999 79s21.5 65.5 21.5 103.5v169h-4c-34 -58.667 -81.167 -104.167 -141.5 -136.5
s-128.5 -48.5 -204.5 -48.5c-68 0 -130 13 -186 39s-104 62.667 -144 110s-71 104.5 -93 171.5s-33 141.167 -33 222.5c0 82 11 156.667 33 224s53 124.666 93 171.999s88.333 84 145 110s119.667 39 189 39c76.667 0 145.334 -16 206.001 -48s109 -77.667 145 -137h3v175
h166v-1048c0 -64.667 -11.167 -122.667 -33.5 -174s-54.5 -94.833 -96.5 -130.5s-93.167 -63 -153.5 -82s-128.5 -28.5 -204.5 -28.5zM894.001 1250h-163l-173 197h-6l-173 -197h-163l277 300h124z" />
    <glyph glyph-name="Gbreve" unicode="&#x11e;" horiz-adv-x="1447" 
d="M1357 597c0 -97.333 -13.8301 -184.5 -41.4971 -261.5s-67.667 -142.167 -120 -195.5s-116.5 -94 -192.5 -122s-162 -42 -258 -42c-100.667 0 -191.667 17.667 -273 53s-150.833 85.833 -208.5 151.5s-102 144.834 -133 237.501s-46.5 196.334 -46.5 311.001
c0 112.667 15.5 214.5 46.5 305.5s75.167 168.5 132.5 232.5s126.666 113.333 207.999 148s172.666 52 273.999 52c78 0 150.667 -11.167 218 -33.5s127.333 -54 180 -95s96.667 -90.5 132 -148.5s59.666 -123 72.999 -195h-189c-15.333 48.667 -35.833 92 -61.5 130
s-56.167 70 -91.5 96s-75 45.833 -119 59.5s-91.333 20.5 -142 20.5c-74 0 -140.5 -13 -199.5 -39s-109 -63.5 -150 -112.5s-72.333 -108.833 -94 -179.5s-32.5 -150.667 -32.5 -240c0 -90.667 11 -172.334 33 -245.001s53.5 -134.334 94.5 -185.001s91 -89.667 150 -117
s125.167 -41 198.5 -41c64 0 122.5 9.83301 175.5 29.5s98.5 47.5 136.5 83.5s67.5 79 88.5 129s31.5 105.333 31.5 166v26h-407v158h587v-137zM554.003 1849c0 -27.333 4.83398 -53 14.501 -77s23.167 -44.833 40.5 -62.5s37.5 -31.5 60.5 -41.5s48.167 -15 75.5 -15
c26.667 0 51.667 5 75 15s43.666 23.833 60.999 41.5s30.833 38.5 40.5 62.5s14.5 49.667 14.5 77h119c0 -44 -7.5 -84.333 -22.5 -121s-36.167 -68.167 -63.5 -94.5s-60 -46.833 -98 -61.5s-80 -22 -126 -22s-88 7.33301 -126 22s-70.667 35.167 -98 61.5
s-48.5 57.833 -63.5 94.5s-22.5 77 -22.5 121h119z" />
    <glyph glyph-name="gbreve" unicode="&#x11f;" horiz-adv-x="1163" 
d="M554 155c47.333 0 90.5 9.33398 129.5 28.001s72.333 45 100 79s49.167 74.833 64.5 122.5s23 100.5 23 158.5s-7.66699 111 -23 159s-36.833 89 -64.5 123s-61 60.5 -100 79.5s-82.167 28.5 -129.5 28.5s-90 -9.33301 -128 -28s-70.667 -45 -98 -79
s-48.333 -75 -63 -123s-22 -101.333 -22 -160s7.33301 -111.834 22 -159.501s35.667 -88.5 63 -122.5s60 -60.167 98 -78.5s80.667 -27.5 128 -27.5zM557 -384.999c-61.333 0 -117.832 7 -169.499 21s-97 34 -136 60s-70.667 57.333 -95 94s-39.5 77.334 -45.5 122.001h181
c6.66699 -22.667 18 -43 34 -61s36 -33.333 60 -46s51.333 -22.334 82 -29.001s63.667 -10 99 -10c46.667 0 88.667 5.83301 126 17.5s69.166 28.334 95.499 50.001s46.666 48 60.999 79s21.5 65.5 21.5 103.5v169h-4c-34 -58.667 -81.167 -104.167 -141.5 -136.5
s-128.5 -48.5 -204.5 -48.5c-68 0 -130 13 -186 39s-104 62.667 -144 110s-71 104.5 -93 171.5s-33 141.167 -33 222.5c0 82 11 156.667 33 224s53 124.666 93 171.999s88.333 84 145 110s119.667 39 189 39c76.667 0 145.334 -16 206.001 -48s109 -77.667 145 -137h3v175
h166v-1048c0 -64.667 -11.167 -122.667 -33.5 -174s-54.5 -94.833 -96.5 -130.5s-93.167 -63 -153.5 -82s-128.5 -28.5 -204.5 -28.5zM355.001 1550c0 -28.667 5.16504 -55.334 15.498 -80.001s24.333 -46.167 42 -64.5s38.667 -32.666 63 -42.999s50.5 -15.5 78.5 -15.5
s54.167 5.16699 78.5 15.5s45.333 24.666 63 42.999s31.667 39.833 42 64.5s15.5 51.334 15.5 80.001h123c0 -46 -7.83301 -88 -23.5 -126s-37.667 -70.667 -66 -98s-62.166 -48.5 -101.499 -63.5s-83 -22.5 -131 -22.5s-91.667 7.5 -131 22.5s-73.166 36.167 -101.499 63.5
s-50.333 60 -66 98s-23.5 80 -23.5 126h123z" />
    <glyph glyph-name="Gdotaccent" unicode="&#x120;" horiz-adv-x="1447" 
d="M1357 597c0 -97.333 -13.8301 -184.5 -41.4971 -261.5s-67.667 -142.167 -120 -195.5s-116.5 -94 -192.5 -122s-162 -42 -258 -42c-100.667 0 -191.667 17.667 -273 53s-150.833 85.833 -208.5 151.5s-102 144.834 -133 237.501s-46.5 196.334 -46.5 311.001
c0 112.667 15.5 214.5 46.5 305.5s75.167 168.5 132.5 232.5s126.666 113.333 207.999 148s172.666 52 273.999 52c78 0 150.667 -11.167 218 -33.5s127.333 -54 180 -95s96.667 -90.5 132 -148.5s59.666 -123 72.999 -195h-189c-15.333 48.667 -35.833 92 -61.5 130
s-56.167 70 -91.5 96s-75 45.833 -119 59.5s-91.333 20.5 -142 20.5c-74 0 -140.5 -13 -199.5 -39s-109 -63.5 -150 -112.5s-72.333 -108.833 -94 -179.5s-32.5 -150.667 -32.5 -240c0 -90.667 11 -172.334 33 -245.001s53.5 -134.334 94.5 -185.001s91 -89.667 150 -117
s125.167 -41 198.5 -41c64 0 122.5 9.83301 175.5 29.5s98.5 47.5 136.5 83.5s67.5 79 88.5 129s31.5 105.333 31.5 166v26h-407v158h587v-137zM745.003 1585c-16.667 0 -32.334 3.16699 -47.001 9.5s-27.5 15 -38.5 26s-19.667 23.833 -26 38.5s-9.5 30.334 -9.5 47.001
s3.16699 32.334 9.5 47.001s15 27.5 26 38.5s23.833 19.667 38.5 26s30.334 9.5 47.001 9.5s32.334 -3.16699 47.001 -9.5s27.5 -15 38.5 -26s19.667 -23.833 26 -38.5s9.5 -30.334 9.5 -47.001s-3.16699 -32.334 -9.5 -47.001s-15 -27.5 -26 -38.5
s-23.833 -19.667 -38.5 -26s-30.334 -9.5 -47.001 -9.5z" />
    <glyph glyph-name="gdotaccent" unicode="&#x121;" horiz-adv-x="1163" 
d="M554 155c47.333 0 90.5 9.33398 129.5 28.001s72.333 45 100 79s49.167 74.833 64.5 122.5s23 100.5 23 158.5s-7.66699 111 -23 159s-36.833 89 -64.5 123s-61 60.5 -100 79.5s-82.167 28.5 -129.5 28.5s-90 -9.33301 -128 -28s-70.667 -45 -98 -79
s-48.333 -75 -63 -123s-22 -101.333 -22 -160s7.33301 -111.834 22 -159.501s35.667 -88.5 63 -122.5s60 -60.167 98 -78.5s80.667 -27.5 128 -27.5zM557 -384.999c-61.333 0 -117.832 7 -169.499 21s-97 34 -136 60s-70.667 57.333 -95 94s-39.5 77.334 -45.5 122.001h181
c6.66699 -22.667 18 -43 34 -61s36 -33.333 60 -46s51.333 -22.334 82 -29.001s63.667 -10 99 -10c46.667 0 88.667 5.83301 126 17.5s69.166 28.334 95.499 50.001s46.666 48 60.999 79s21.5 65.5 21.5 103.5v169h-4c-34 -58.667 -81.167 -104.167 -141.5 -136.5
s-128.5 -48.5 -204.5 -48.5c-68 0 -130 13 -186 39s-104 62.667 -144 110s-71 104.5 -93 171.5s-33 141.167 -33 222.5c0 82 11 156.667 33 224s53 124.666 93 171.999s88.333 84 145 110s119.667 39 189 39c76.667 0 145.334 -16 206.001 -48s109 -77.667 145 -137h3v175
h166v-1048c0 -64.667 -11.167 -122.667 -33.5 -174s-54.5 -94.833 -96.5 -130.5s-93.167 -63 -153.5 -82s-128.5 -28.5 -204.5 -28.5zM555.001 1261c-17.333 0 -33.5 3.33301 -48.5 10s-28 15.5 -39 26.5s-19.833 24 -26.5 39s-10 31.167 -10 48.5
c0 16.667 3.33301 32.667 10 48s15.5 28.5 26.5 39.5s24 19.833 39 26.5s31.167 10 48.5 10c16.667 0 32.667 -3.33301 48 -10s28.5 -15.5 39.5 -26.5s19.833 -24.167 26.5 -39.5s10 -31.333 10 -48c0 -17.333 -3.33301 -33.5 -10 -48.5s-15.5 -28 -26.5 -39
s-24.167 -19.833 -39.5 -26.5s-31.333 -10 -48 -10z" />
    <glyph glyph-name="Gcommaaccent" unicode="&#x122;" horiz-adv-x="1447" 
d="M1357 597c0 -97.333 -13.8301 -184.5 -41.4971 -261.5s-67.667 -142.167 -120 -195.5s-116.5 -94 -192.5 -122s-162 -42 -258 -42c-100.667 0 -191.667 17.667 -273 53s-150.833 85.833 -208.5 151.5s-102 144.834 -133 237.501s-46.5 196.334 -46.5 311.001
c0 112.667 15.5 214.5 46.5 305.5s75.167 168.5 132.5 232.5s126.666 113.333 207.999 148s172.666 52 273.999 52c78 0 150.667 -11.167 218 -33.5s127.333 -54 180 -95s96.667 -90.5 132 -148.5s59.666 -123 72.999 -195h-189c-15.333 48.667 -35.833 92 -61.5 130
s-56.167 70 -91.5 96s-75 45.833 -119 59.5s-91.333 20.5 -142 20.5c-74 0 -140.5 -13 -199.5 -39s-109 -63.5 -150 -112.5s-72.333 -108.833 -94 -179.5s-32.5 -150.667 -32.5 -240c0 -90.667 11 -172.334 33 -245.001s53.5 -134.334 94.5 -185.001s91 -89.667 150 -117
s125.167 -41 198.5 -41c64 0 122.5 9.83301 175.5 29.5s98.5 47.5 136.5 83.5s67.5 79 88.5 129s31.5 105.333 31.5 166v26h-407v158h587v-137zM604.003 -541l91 369h153l-118 -369h-126z" />
    <glyph glyph-name="gcommaaccent" unicode="&#x123;" horiz-adv-x="1163" 
d="M554 155c47.333 0 90.5 9.33398 129.5 28.001s72.333 45 100 79s49.167 74.833 64.5 122.5s23 100.5 23 158.5s-7.66699 111 -23 159s-36.833 89 -64.5 123s-61 60.5 -100 79.5s-82.167 28.5 -129.5 28.5s-90 -9.33301 -128 -28s-70.667 -45 -98 -79
s-48.333 -75 -63 -123s-22 -101.333 -22 -160s7.33301 -111.834 22 -159.501s35.667 -88.5 63 -122.5s60 -60.167 98 -78.5s80.667 -27.5 128 -27.5zM557 -384.999c-61.333 0 -117.832 7 -169.499 21s-97 34 -136 60s-70.667 57.333 -95 94s-39.5 77.334 -45.5 122.001h181
c6.66699 -22.667 18 -43 34 -61s36 -33.333 60 -46s51.333 -22.334 82 -29.001s63.667 -10 99 -10c46.667 0 88.667 5.83301 126 17.5s69.166 28.334 95.499 50.001s46.666 48 60.999 79s21.5 65.5 21.5 103.5v169h-4c-34 -58.667 -81.167 -104.167 -141.5 -136.5
s-128.5 -48.5 -204.5 -48.5c-68 0 -130 13 -186 39s-104 62.667 -144 110s-71 104.5 -93 171.5s-33 141.167 -33 222.5c0 82 11 156.667 33 224s53 124.666 93 171.999s88.333 84 145 110s119.667 39 189 39c76.667 0 145.334 -16 206.001 -48s109 -77.667 145 -137h3v175
h166v-1048c0 -64.667 -11.167 -122.667 -33.5 -174s-54.5 -94.833 -96.5 -130.5s-93.167 -63 -153.5 -82s-128.5 -28.5 -204.5 -28.5zM416.001 -907.999l91 369h153l-118 -369h-126z" />
    <glyph glyph-name="Hcircumflex" unicode="&#x124;" horiz-adv-x="1432" 
d="M1112 0v657h-792v-657h-180v1443h180v-624h792v624h180v-1443h-180zM787 1849l292 -299h-168l-194 201h-2l-194 -201h-168l292 299h142z" />
    <glyph glyph-name="hcircumflex" unicode="&#x125;" horiz-adv-x="1166" 
d="M128 1506l174 -0.00292969v-603h4c68 123.333 185.333 185 352 185c58.667 0 112.334 -9.66699 161.001 -29s90.334 -46.5 125.001 -81.5s61.5 -77 80.5 -126s28.5 -103.5 28.5 -163.5v-688h-174v657c0 42.667 -6.16699 81.167 -18.5 115.5s-30.333 63.333 -54 87
s-52.334 41.834 -86.001 54.501s-71.834 19 -114.501 19c-45.333 0 -86.666 -7.5 -123.999 -22.5s-69.333 -36.167 -96 -63.5s-47.334 -60.166 -62.001 -98.499s-22 -81.166 -22 -128.499v-620h-174v1506zM287 1912l292 -299h-168l-194 201h-2l-194 -201h-168l292 299h142z
" />
    <glyph glyph-name="Hbar" unicode="&#x126;" horiz-adv-x="1433" 
d="M1112 1075h-792v-256h792v256zM1428 1075h-136v-1075h-180v657h-792v-657h-180v1075h-135v143h135v225h180v-225h792v225h180v-225h136v-143z" />
    <glyph glyph-name="hbar" unicode="&#x127;" horiz-adv-x="1204" 
d="M324 903c68 123.333 185.333 184.997 352 184.997c58.667 0 112.334 -9.66699 161.001 -29s90.334 -46.5 125.001 -81.5s61.5 -77 80.5 -126s28.5 -103.5 28.5 -163.5v-688h-174v657c0 42.667 -6.16699 81.167 -18.5 115.5s-30.333 63.333 -54 87
s-52.334 41.834 -86.001 54.501s-71.834 19 -114.501 19c-45.333 0 -86.666 -7.5 -123.999 -22.5s-69.333 -36.167 -96 -63.5s-47.334 -60.166 -62.001 -98.499s-22 -81.166 -22 -128.499v-620h-174v1247h-122v124h122v185h174v-185h260v-124h-260v-344h4z" />
    <glyph glyph-name="Itilde" unicode="&#x128;" horiz-adv-x="460" 
d="M140 0v1443h180v-1443h-180zM358 1535c-21.333 0 -40.5029 3.83301 -57.5029 11.5s-32.5 17 -46.5 28s-27 23.167 -39 36.5s-23.667 25.5 -35 36.5s-22.666 20.333 -33.999 28s-23.666 11.5 -36.999 11.5c-22 0 -39 -11.833 -51 -35.5s-18 -57.5 -18 -101.5h-114
c0 78.667 15.5 140 46.5 184s74.833 66 131.5 66c22.667 0 43.167 -3.83301 61.5 -11.5s34.833 -17 49.5 -28s28 -23.167 40 -36.5s23.667 -25.5 35 -36.5s22.333 -20.333 33 -28s22.334 -11.5 35.001 -11.5c41.333 0 62 46 62 138h114c0 -38 -4.16699 -72.5 -12.5 -103.5
s-20.166 -57.5 -35.499 -79.5s-33.833 -38.833 -55.5 -50.5s-45.834 -17.5 -72.501 -17.5z" />
    <glyph glyph-name="itilde" unicode="&#x129;" horiz-adv-x="430" 
d="M128 1078h174v-1078h-174v1078zM347 1258c-21.333 0 -40.5029 3.83301 -57.5029 11.5s-32.5 17 -46.5 28s-27 23.167 -39 36.5s-23.667 25.5 -35 36.5s-22.666 20.333 -33.999 28s-23.666 11.5 -36.999 11.5c-22 0 -39 -11.833 -51 -35.5s-18 -57.5 -18 -101.5h-114
c0 78.667 15.5 140 46.5 184s74.833 66 131.5 66c22.667 0 43.167 -3.83301 61.5 -11.5s34.833 -17 49.5 -28s28 -23.167 40 -36.5s23.667 -25.5 35 -36.5s22.333 -20.333 33 -28s22.334 -11.5 35.001 -11.5c41.333 0 62 46 62 138h114c0 -38 -4.16699 -72.5 -12.5 -103.5
s-20.166 -57.5 -35.499 -79.5s-33.833 -38.833 -55.5 -50.5s-45.834 -17.5 -72.501 -17.5z" />
    <glyph glyph-name="Imacron" unicode="&#x12a;" horiz-adv-x="460" 
d="M140 0v1443h180v-1443h-180zM547 1642h-634v106h634v-106z" />
    <glyph glyph-name="imacron" unicode="&#x12b;" horiz-adv-x="430" 
d="M128 1078h174v-1078h-174v1078zM532 1320h-634v106h634v-106z" />
    <glyph glyph-name="Ibreve" unicode="&#x12c;" horiz-adv-x="460" 
d="M140 0v1443h180v-1443h-180zM39 1849c0 -27.333 4.83398 -53 14.501 -77s23.167 -44.833 40.5 -62.5s37.5 -31.5 60.5 -41.5s48.167 -15 75.5 -15c26.667 0 51.667 5 75 15s43.666 23.833 60.999 41.5s30.833 38.5 40.5 62.5s14.5 49.667 14.5 77h119
c0 -44 -7.5 -84.333 -22.5 -121s-36.167 -68.167 -63.5 -94.5s-60 -46.833 -98 -61.5s-80 -22 -126 -22s-88 7.33301 -126 22s-70.667 35.167 -98 61.5s-48.5 57.833 -63.5 94.5s-22.5 77 -22.5 121h119z" />
    <glyph glyph-name="ibreve" unicode="&#x12d;" horiz-adv-x="430" 
d="M128 1078h174v-1078h-174v1078zM15 1550c0 -28.667 5.16504 -55.334 15.498 -80.001s24.333 -46.167 42 -64.5s38.667 -32.666 63 -42.999s50.5 -15.5 78.5 -15.5s54.167 5.16699 78.5 15.5s45.333 24.666 63 42.999s31.667 39.833 42 64.5s15.5 51.334 15.5 80.001h123
c0 -46 -7.83301 -88 -23.5 -126s-37.667 -70.667 -66 -98s-62.166 -48.5 -101.499 -63.5s-83 -22.5 -131 -22.5s-91.667 7.5 -131 22.5s-73.166 36.167 -101.499 63.5s-50.333 60 -66 98s-23.5 80 -23.5 126h123z" />
    <glyph glyph-name="Iogonek" unicode="&#x12e;" horiz-adv-x="460" 
d="M228 -432c-34.667 0 -66.168 5.16504 -94.501 15.498s-52.666 24.833 -72.999 43.5s-36 41.334 -47 68.001s-16.5 56 -16.5 88c0 50 11.167 93.833 33.5 131.5s58.833 73.834 109.5 108.501v1420h180v-1430c-54 -24 -95.167 -52.667 -123.5 -86s-42.5 -69 -42.5 -107
c0 -36 10.667 -64.667 32 -86s50 -32 86 -32c17.333 0 32 1 44 3v-126c-28 -7.33301 -57.333 -11 -88 -11z" />
    <glyph glyph-name="iogonek" unicode="&#x12f;" horiz-adv-x="430" 
d="M215 1252c-15.333 0 -29.666 2.83301 -42.999 8.5s-25 13.5 -35 23.5s-17.833 21.667 -23.5 35s-8.5 27.666 -8.5 42.999s2.83301 29.666 8.5 42.999s13.5 25 23.5 35s21.667 17.833 35 23.5s27.666 8.5 42.999 8.5s29.666 -2.83301 42.999 -8.5s25 -13.5 35 -23.5
s17.833 -21.667 23.5 -35s8.5 -27.666 8.5 -42.999s-2.83301 -29.666 -8.5 -42.999s-13.5 -25 -23.5 -35s-21.667 -17.833 -35 -23.5s-27.666 -8.5 -42.999 -8.5zM213 -432c-34.667 0 -66.1689 5.16602 -94.502 15.499s-52.666 24.833 -72.999 43.5s-36 41.334 -47 68.001
s-16.5 56 -16.5 88c0 101.333 48.667 181.333 146 240v1055h174v-1059c-52 -23.333 -92.167 -52.333 -120.5 -87s-42.5 -72 -42.5 -112c0 -36 10.667 -64.667 32 -86s50 -32 86 -32c17.333 0 32 1 44 3v-126c-27.333 -7.33301 -56.666 -11 -87.999 -11z" />
    <glyph glyph-name="Idotaccent" unicode="&#x130;" horiz-adv-x="460" 
d="M140 0v1443h180v-1443h-180zM230 1585c-16.667 0 -32.334 3.16699 -47.001 9.5s-27.5 15 -38.5 26s-19.667 23.833 -26 38.5s-9.5 30.334 -9.5 47.001s3.16699 32.334 9.5 47.001s15 27.5 26 38.5s23.833 19.667 38.5 26s30.334 9.5 47.001 9.5
s32.334 -3.16699 47.001 -9.5s27.5 -15 38.5 -26s19.667 -23.833 26 -38.5s9.5 -30.334 9.5 -47.001s-3.16699 -32.334 -9.5 -47.001s-15 -27.5 -26 -38.5s-23.833 -19.667 -38.5 -26s-30.334 -9.5 -47.001 -9.5z" />
    <glyph glyph-name="dotlessi" unicode="&#x131;" horiz-adv-x="430" 
d="M128 1078h174v-1078h-174v1078z" />
    <glyph glyph-name="u0132" unicode="&#x132;" horiz-adv-x="1474" 
d="M140 0v1443h180v-1443h-180zM681 339c0.666992 -30.667 6.83008 -58.6689 18.4971 -84.002s27.5 -47.166 47.5 -65.499s43.833 -32.5 71.5 -42.5s57.834 -15 90.501 -15c80 0 140.833 23 182.5 69s62.5 113.333 62.5 202v1040h180v-1041
c0 -68.667 -9.66699 -130 -29 -184s-47.166 -99.667 -83.499 -137s-80.666 -65.833 -132.999 -85.5s-111.833 -29.5 -178.5 -29.5c-60 0 -115 9.16699 -165 27.5s-93 44 -129 77s-64 72.333 -84 118s-30 95.834 -30 150.501h179z" />
    <glyph glyph-name="u0133" unicode="&#x133;" horiz-adv-x="860" 
d="M128 1078h174v-1078h-174v1078zM215 1252c-15.333 0 -29.666 2.83301 -42.999 8.5s-25 13.5 -35 23.5s-17.833 21.667 -23.5 35s-8.5 27.666 -8.5 42.999s2.83301 29.666 8.5 42.999s13.5 25 23.5 35s21.667 17.833 35 23.5s27.666 8.5 42.999 8.5
s29.666 -2.83301 42.999 -8.5s25 -13.5 35 -23.5s17.833 -21.667 23.5 -35s8.5 -27.666 8.5 -42.999s-2.83301 -29.666 -8.5 -42.999s-13.5 -25 -23.5 -35s-21.667 -17.833 -35 -23.5s-27.666 -8.5 -42.999 -8.5zM732 -81c0 -109.333 -26.502 -189.5 -79.502 -240.5
s-136.833 -76.5 -251.5 -76.5h-31v147h27c29.333 0 54.333 3 75 9s37.334 15.667 50.001 29s21.834 30.5 27.501 51.5s8.5 46.833 8.5 77.5v1162h174v-1159zM644.998 1252c-15.333 0 -29.666 2.83301 -42.999 8.5s-25 13.5 -35 23.5s-17.833 21.667 -23.5 35
s-8.5 27.666 -8.5 42.999s2.83301 29.666 8.5 42.999s13.5 25 23.5 35s21.667 17.833 35 23.5s27.666 8.5 42.999 8.5s29.666 -2.83301 42.999 -8.5s25 -13.5 35 -23.5s17.833 -21.667 23.5 -35s8.5 -27.666 8.5 -42.999s-2.83301 -29.666 -8.5 -42.999s-13.5 -25 -23.5 -35
s-21.667 -17.833 -35 -23.5s-27.666 -8.5 -42.999 -8.5z" />
    <glyph glyph-name="Jcircumflex" unicode="&#x134;" horiz-adv-x="1014" 
d="M221 339c0.666992 -30.667 6.83008 -58.6689 18.4971 -84.002s27.5 -47.166 47.5 -65.499s43.833 -32.5 71.5 -42.5s57.834 -15 90.501 -15c80 0 140.833 23 182.5 69s62.5 113.333 62.5 202v1040h180v-1041c0 -68.667 -9.66699 -130 -29 -184
s-47.166 -99.667 -83.499 -137s-80.666 -65.833 -132.999 -85.5s-111.833 -29.5 -178.5 -29.5c-60 0 -115 9.16699 -165 27.5s-93 44 -129 77s-64 72.333 -84 118s-30 95.834 -30 150.501h179zM854.996 1849l292 -299h-168l-194 201h-2l-194 -201h-168l292 299h142z" />
    <glyph glyph-name="jcircumflex" unicode="&#x135;" horiz-adv-x="428" 
d="M300 -81c0 -110 -26.332 -190.333 -78.999 -241s-136.334 -76 -251.001 -76h-30v147h26c30 0 55.167 3 75.5 9s37 15.667 50 29s22.333 30.5 28 51.5s8.5 46.833 8.5 77.5v1162h172v-1159zM553.001 1250h-163l-173 197h-6l-173 -197h-163l277 300h124z" />
    <glyph glyph-name="Kcommaaccent" unicode="&#x136;" horiz-adv-x="1260" 
d="M140 0v1443h180v-704h10l637 704h227l-593 -639l646 -804h-230l-541 676l-156 -172v-504h-180zM468 -541l91 369h153l-118 -369h-126z" />
    <glyph glyph-name="kcommaaccent" unicode="&#x137;" horiz-adv-x="1026" 
d="M785 1078h212l-471 -466l485 -612h-202l-405 505l-102 -96v-409h-174v1506h174v-910zM415 -541l91 369h153l-118 -369h-126z" />
    <glyph glyph-name="Lacute" unicode="&#x139;" horiz-adv-x="1074" 
d="M1016 0h-876v1443h180v-1281h696v-162zM159 1550l231 299h198l-281 -299h-148z" />
    <glyph glyph-name="lacute" unicode="&#x13a;" horiz-adv-x="430" 
d="M128 1506h174v-1506h-174v1506zM144 1613l231 299h198l-281 -299h-148z" />
    <glyph glyph-name="Lcommaaccent" unicode="&#x13b;" horiz-adv-x="1074" 
d="M1016 0h-876v1443h180v-1281h696v-162zM437 -541l91 369h153l-118 -369h-126z" />
    <glyph glyph-name="lcommaaccent" unicode="&#x13c;" horiz-adv-x="430" 
d="M128 1506h174v-1506h-174v1506zM74 -541l91 369h153l-118 -369h-126z" />
    <glyph glyph-name="Lcaron" unicode="&#x13d;" horiz-adv-x="1074" 
d="M759 1443l-50 -488h-120v488h170zM1016 0h-876v1443h180v-1281h696v-162z" />
    <glyph glyph-name="lcaron" unicode="&#x13e;" horiz-adv-x="565" 
d="M593 1506l-30 -488h-110v488h140zM128 1506h174v-1506h-174v1506z" />
    <glyph glyph-name="Lslash" unicode="&#x141;" horiz-adv-x="1074" 
d="M1016 162v-162h-876v699l-122 -56v143l122 56v601h180v-519l336 153v-143l-336 -153v-619h696z" />
    <glyph glyph-name="lslash" unicode="&#x142;" horiz-adv-x="468" 
d="M444 851l-142 -68v-783h-174v700l-112 -54v143l112 54v663h174v-580l142 68v-143z" />
    <glyph glyph-name="Nacute" unicode="&#x143;" horiz-adv-x="1432" 
d="M140 0v1443h175l790 -1133h9v1133h178v-1443h-175l-790 1129h-9v-1129h-178zM645 1550l231 299h198l-281 -299h-148z" />
    <glyph glyph-name="nacute" unicode="&#x144;" horiz-adv-x="1135" 
d="M118 1078h164.002v-175h4c68.667 123.333 186 185 352 185c59.333 0 112.666 -9.16699 159.999 -27.5s87.666 -44.666 120.999 -78.999s58.833 -76 76.5 -125s26.5 -104.167 26.5 -165.5v-691h-174v661c0 88.667 -22.333 156.167 -67 202.5s-109.667 69.5 -195 69.5
c-44 0 -84.167 -7.33301 -120.5 -22s-67.333 -35.334 -93 -62.001s-45.5 -59 -59.5 -97s-21 -80 -21 -126v-626h-174v1078zM496.002 1250l211 300h198l-261 -300h-148z" />
    <glyph glyph-name="Ncommaaccent" unicode="&#x145;" horiz-adv-x="1432" 
d="M140 0v1443h175l790 -1133h9v1133h178v-1443h-175l-790 1129h-9v-1129h-178zM575 -541l91 369h153l-118 -369h-126z" />
    <glyph glyph-name="ncommaaccent" unicode="&#x146;" horiz-adv-x="1135" 
d="M118 1078h164.002v-175h4c68.667 123.333 186 185 352 185c59.333 0 112.666 -9.16699 159.999 -27.5s87.666 -44.666 120.999 -78.999s58.833 -76 76.5 -125s26.5 -104.167 26.5 -165.5v-691h-174v661c0 88.667 -22.333 156.167 -67 202.5s-109.667 69.5 -195 69.5
c-44 0 -84.167 -7.33301 -120.5 -22s-67.333 -35.334 -93 -62.001s-45.5 -59 -59.5 -97s-21 -80 -21 -126v-626h-174v1078zM429.002 -541l91 369h153l-118 -369h-126z" />
    <glyph glyph-name="Ncaron" unicode="&#x147;" horiz-adv-x="1432" 
d="M140 0v1443h175l790 -1133h9v1133h178v-1443h-175l-790 1129h-9v-1129h-178zM353 1849h168l194 -201h2l194 201h168l-292 -299h-142z" />
    <glyph glyph-name="ncaron" unicode="&#x148;" horiz-adv-x="1135" 
d="M118 1078h164.002v-175h4c68.667 123.333 186 185 352 185c59.333 0 112.666 -9.16699 159.999 -27.5s87.666 -44.666 120.999 -78.999s58.833 -76 76.5 -125s26.5 -104.167 26.5 -165.5v-691h-174v661c0 88.667 -22.333 156.167 -67 202.5s-109.667 69.5 -195 69.5
c-44 0 -84.167 -7.33301 -120.5 -22s-67.333 -35.334 -93 -62.001s-45.5 -59 -59.5 -97s-21 -80 -21 -126v-626h-174v1078zM508.002 1250l-277 300h163l173 -197h6l173 197h163l-277 -300h-124z" />
    <glyph glyph-name="Omacron" unicode="&#x14c;" horiz-adv-x="1498" 
d="M749 1467c102 0 194.167 -17.333 276.5 -52s152.166 -84.334 209.499 -149.001s101.5 -143 132.5 -235s46.5 -195.333 46.5 -310s-15.5 -218 -46.5 -310s-75.167 -170.167 -132.5 -234.5s-127.166 -113.833 -209.499 -148.5s-174.5 -52 -276.5 -52
s-194.167 17.333 -276.5 52s-152.166 84.167 -209.499 148.5s-101.5 142.5 -132.5 234.5s-46.5 195.333 -46.5 310s15.5 218 46.5 310s75.167 170.333 132.5 235s127.166 114.334 209.499 149.001s174.5 52 276.5 52zM749 1301c-74 0 -140.5 -13.5 -199.5 -40.5
s-109.333 -65.667 -151 -116s-73.667 -111.333 -96 -183s-33.5 -151.834 -33.5 -240.501s11.167 -168.667 33.5 -240s54.333 -132.166 96 -182.499s92 -89 151 -116s125.5 -40.5 199.5 -40.5s140.5 13.5 199.5 40.5s109.333 65.667 151 116s73.667 111.166 96 182.499
s33.5 151.333 33.5 240s-11.167 168.834 -33.5 240.501s-54.333 132.667 -96 183s-92 89 -151 116s-125.5 40.5 -199.5 40.5zM1066 1642h-634v106h634v-106z" />
    <glyph glyph-name="omacron" unicode="&#x14d;" horiz-adv-x="1124" 
d="M562 -10c-76 0 -144.5 13 -205.5 39s-113.167 62.833 -156.5 110.5s-76.666 105.334 -99.999 173.001s-35 143.167 -35 226.5c0 84 11.667 159.833 35 227.5s56.666 125.334 99.999 173.001s95.5 84.334 156.5 110.001s129.5 38.5 205.5 38.5s144.5 -12.833 205.5 -38.5
s113.167 -62.334 156.5 -110.001s76.666 -105.334 99.999 -173.001s35 -143.5 35 -227.5c0 -83.333 -11.667 -158.833 -35 -226.5s-56.666 -125.334 -99.999 -173.001s-95.5 -84.5 -156.5 -110.5s-129.5 -39 -205.5 -39zM562 145c50 0 94.834 9.00098 134.501 27.001
s73.334 43.833 101.001 77.5s48.667 74.834 63 123.501s21.5 104 21.5 166s-7.16699 117.333 -21.5 166s-35.333 90 -63 124s-61.334 59.833 -101.001 77.5s-84.5 26.5 -134.5 26.5s-94.833 -9 -134.5 -27s-73.334 -43.833 -101.001 -77.5s-48.667 -74.834 -63 -123.501
s-21.5 -104 -21.5 -166s7.33301 -117.333 22 -166s35.667 -89.834 63 -123.501s60.833 -59.5 100.5 -77.5s84.5 -27 134.5 -27zM879.001 1320h-634v106h634v-106z" />
    <glyph glyph-name="Obreve" unicode="&#x14e;" horiz-adv-x="1498" 
d="M749 1467c102 0 194.167 -17.333 276.5 -52s152.166 -84.334 209.499 -149.001s101.5 -143 132.5 -235s46.5 -195.333 46.5 -310s-15.5 -218 -46.5 -310s-75.167 -170.167 -132.5 -234.5s-127.166 -113.833 -209.499 -148.5s-174.5 -52 -276.5 -52
s-194.167 17.333 -276.5 52s-152.166 84.167 -209.499 148.5s-101.5 142.5 -132.5 234.5s-46.5 195.333 -46.5 310s15.5 218 46.5 310s75.167 170.333 132.5 235s127.166 114.334 209.499 149.001s174.5 52 276.5 52zM749 1301c-74 0 -140.5 -13.5 -199.5 -40.5
s-109.333 -65.667 -151 -116s-73.667 -111.333 -96 -183s-33.5 -151.834 -33.5 -240.501s11.167 -168.667 33.5 -240s54.333 -132.166 96 -182.499s92 -89 151 -116s125.5 -40.5 199.5 -40.5s140.5 13.5 199.5 40.5s109.333 65.667 151 116s73.667 111.166 96 182.499
s33.5 151.333 33.5 240s-11.167 168.834 -33.5 240.501s-54.333 132.667 -96 183s-92 89 -151 116s-125.5 40.5 -199.5 40.5zM558 1849c0 -27.333 4.83398 -53 14.501 -77s23.167 -44.833 40.5 -62.5s37.5 -31.5 60.5 -41.5s48.167 -15 75.5 -15c26.667 0 51.667 5 75 15
s43.666 23.833 60.999 41.5s30.833 38.5 40.5 62.5s14.5 49.667 14.5 77h119c0 -44 -7.5 -84.333 -22.5 -121s-36.167 -68.167 -63.5 -94.5s-60 -46.833 -98 -61.5s-80 -22 -126 -22s-88 7.33301 -126 22s-70.667 35.167 -98 61.5s-48.5 57.833 -63.5 94.5
s-22.5 77 -22.5 121h119z" />
    <glyph glyph-name="obreve" unicode="&#x14f;" horiz-adv-x="1124" 
d="M562 -10c-76 0 -144.5 13 -205.5 39s-113.167 62.833 -156.5 110.5s-76.666 105.334 -99.999 173.001s-35 143.167 -35 226.5c0 84 11.667 159.833 35 227.5s56.666 125.334 99.999 173.001s95.5 84.334 156.5 110.001s129.5 38.5 205.5 38.5s144.5 -12.833 205.5 -38.5
s113.167 -62.334 156.5 -110.001s76.666 -105.334 99.999 -173.001s35 -143.5 35 -227.5c0 -83.333 -11.667 -158.833 -35 -226.5s-56.666 -125.334 -99.999 -173.001s-95.5 -84.5 -156.5 -110.5s-129.5 -39 -205.5 -39zM562 145c50 0 94.834 9.00098 134.501 27.001
s73.334 43.833 101.001 77.5s48.667 74.834 63 123.501s21.5 104 21.5 166s-7.16699 117.333 -21.5 166s-35.333 90 -63 124s-61.334 59.833 -101.001 77.5s-84.5 26.5 -134.5 26.5s-94.833 -9 -134.5 -27s-73.334 -43.833 -101.001 -77.5s-48.667 -74.834 -63 -123.501
s-21.5 -104 -21.5 -166s7.33301 -117.333 22 -166s35.667 -89.834 63 -123.501s60.833 -59.5 100.5 -77.5s84.5 -27 134.5 -27zM362.001 1550c0 -28.667 5.16504 -55.334 15.498 -80.001s24.333 -46.167 42 -64.5s38.667 -32.666 63 -42.999s50.5 -15.5 78.5 -15.5
s54.167 5.16699 78.5 15.5s45.333 24.666 63 42.999s31.667 39.833 42 64.5s15.5 51.334 15.5 80.001h123c0 -46 -7.83301 -88 -23.5 -126s-37.667 -70.667 -66 -98s-62.166 -48.5 -101.499 -63.5s-83 -22.5 -131 -22.5s-91.667 7.5 -131 22.5s-73.166 36.167 -101.499 63.5
s-50.333 60 -66 98s-23.5 80 -23.5 126h123z" />
    <glyph glyph-name="Ohungarumlaut" unicode="&#x150;" horiz-adv-x="1498" 
d="M749 1467c102 0 194.167 -17.333 276.5 -52s152.166 -84.334 209.499 -149.001s101.5 -143 132.5 -235s46.5 -195.333 46.5 -310s-15.5 -218 -46.5 -310s-75.167 -170.167 -132.5 -234.5s-127.166 -113.833 -209.499 -148.5s-174.5 -52 -276.5 -52
s-194.167 17.333 -276.5 52s-152.166 84.167 -209.499 148.5s-101.5 142.5 -132.5 234.5s-46.5 195.333 -46.5 310s15.5 218 46.5 310s75.167 170.333 132.5 235s127.166 114.334 209.499 149.001s174.5 52 276.5 52zM749 1301c-74 0 -140.5 -13.5 -199.5 -40.5
s-109.333 -65.667 -151 -116s-73.667 -111.333 -96 -183s-33.5 -151.834 -33.5 -240.501s11.167 -168.667 33.5 -240s54.333 -132.166 96 -182.499s92 -89 151 -116s125.5 -40.5 199.5 -40.5s140.5 13.5 199.5 40.5s109.333 65.667 151 116s73.667 111.166 96 182.499
s33.5 151.333 33.5 240s-11.167 168.834 -33.5 240.501s-54.333 132.667 -96 183s-92 89 -151 116s-125.5 40.5 -199.5 40.5zM835 1550l231 299h188l-281 -299h-138zM525 1550l231 299h188l-281 -299h-138z" />
    <glyph glyph-name="ohungarumlaut" unicode="&#x151;" horiz-adv-x="1124" 
d="M562 -10c-76 0 -144.5 13 -205.5 39s-113.167 62.833 -156.5 110.5s-76.666 105.334 -99.999 173.001s-35 143.167 -35 226.5c0 84 11.667 159.833 35 227.5s56.666 125.334 99.999 173.001s95.5 84.334 156.5 110.001s129.5 38.5 205.5 38.5s144.5 -12.833 205.5 -38.5
s113.167 -62.334 156.5 -110.001s76.666 -105.334 99.999 -173.001s35 -143.5 35 -227.5c0 -83.333 -11.667 -158.833 -35 -226.5s-56.666 -125.334 -99.999 -173.001s-95.5 -84.5 -156.5 -110.5s-129.5 -39 -205.5 -39zM562 145c50 0 94.834 9.00098 134.501 27.001
s73.334 43.833 101.001 77.5s48.667 74.834 63 123.501s21.5 104 21.5 166s-7.16699 117.333 -21.5 166s-35.333 90 -63 124s-61.334 59.833 -101.001 77.5s-84.5 26.5 -134.5 26.5s-94.833 -9 -134.5 -27s-73.334 -43.833 -101.001 -77.5s-48.667 -74.834 -63 -123.501
s-21.5 -104 -21.5 -166s7.33301 -117.333 22 -166s35.667 -89.834 63 -123.501s60.833 -59.5 100.5 -77.5s84.5 -27 134.5 -27zM848.001 1550h195l-255 -300h-136zM532.001 1550h195l-255 -300h-136z" />
    <glyph glyph-name="OE" unicode="&#x152;" horiz-adv-x="2216" 
d="M756 1301c-74.667 0 -142 -13.5 -202 -40.5s-111.167 -65.667 -153.5 -116s-74.833 -111.333 -97.5 -183s-34 -151.834 -34 -240.501s11.333 -168.667 34 -240s55.167 -132.166 97.5 -182.499s93.5 -89 153.5 -116s127.333 -40.5 202 -40.5s142 13.5 202 40.5
s111 65.667 153 116s74.333 111.166 97 182.499s34 151.333 34 240s-11.333 168.834 -34 240.501s-55.167 132.667 -97.5 183s-93.5 89 -153.5 116s-127 40.5 -201 40.5zM1245 228c-25.333 -40 -55 -75.6699 -89 -107.003s-71.833 -57.666 -113.5 -78.999
s-86.667 -37.666 -135 -48.999s-98.833 -17 -151.5 -17c-103.333 0 -196.5 17.333 -279.5 52s-153.5 84.167 -211.5 148.5s-102.667 142.5 -134 234.5s-47 195.333 -47 310s15.667 218 47 310s76 170.333 134 235s128.5 114.334 211.5 149.001s176.167 52 279.5 52
c108 0 204 -21.333 288 -64s151 -104 201 -184v224h874v-162h-694v-463h656v-160h-656v-496h694v-162h-874v228z" />
    <glyph glyph-name="oe" unicode="&#x153;" horiz-adv-x="1901" 
d="M1376 -10c-44 0 -86.0029 4.83008 -126.003 14.4971s-77.167 23.5 -111.5 41.5s-65.666 40.167 -93.999 66.5s-52.5 56.5 -72.5 90.5h-8c-47.333 -73.333 -103.333 -127.166 -168 -161.499s-142.667 -51.5 -234 -51.5c-76 0 -144.5 13 -205.5 39
s-113.167 62.833 -156.5 110.5s-76.666 105.334 -99.999 173.001s-35 143.167 -35 226.5c0 84 11.667 159.833 35 227.5s56.666 125.334 99.999 173.001s95.5 84.334 156.5 110.001s129.5 38.5 205.5 38.5c90.667 0 168.5 -17.333 233.5 -52s121.167 -89.334 168.5 -164.001
h8c20 34 43.833 64.333 71.5 91s58.5 49.334 92.5 68.001s70.5 32.834 109.5 42.501s79.833 14.5 122.5 14.5c72 0 136.833 -12.333 194.5 -37s106.834 -59.834 147.501 -105.501s71.834 -101.167 93.501 -166.5s32.5 -138.666 32.5 -219.999v-68h-774v-10
c0 -51.333 7.5 -97.833 22.5 -139.5s36.5 -77.167 64.5 -106.5s61.5 -52 100.5 -68s82.5 -24 130.5 -24c34 0 65.667 3.83301 95 11.5s55.833 18.667 79.5 33s43.667 31.666 60 51.999s28.5 43.166 36.5 68.499h172c-7.33301 -46 -24 -88.5 -50 -127.5
s-58.833 -72.667 -98.5 -101s-85 -50.333 -136 -66s-105.167 -23.5 -162.5 -23.5zM1655 629.997c-1.33301 46 -9.16895 87.668 -23.502 125.001s-34.166 69.333 -59.499 96s-55.5 47.334 -90.5 62.001s-73.833 22 -116.5 22c-42 0 -81 -7.33301 -117 -22
s-67.167 -35.334 -93.5 -62.001s-47.666 -58.834 -63.999 -96.501s-25.833 -79.167 -28.5 -124.5h593zM241.994 538.998c0 -62 7.33398 -117.332 22.001 -165.999s35.667 -89.834 63 -123.501s60.833 -59.5 100.5 -77.5s84.5 -27 134.5 -27s94.833 9 134.5 27
s73.334 43.833 101.001 77.5s48.667 74.834 63 123.501s21.5 104 21.5 166s-7.16699 117.333 -21.5 166s-35.333 90 -63 124s-61.334 59.833 -101.001 77.5s-84.5 26.5 -134.5 26.5s-94.833 -9 -134.5 -27s-73.334 -43.833 -101.001 -77.5s-48.667 -74.834 -63 -123.501
s-21.5 -104 -21.5 -166z" />
    <glyph glyph-name="Racute" unicode="&#x154;" horiz-adv-x="1237" 
d="M320 730l355.003 -0.000976562c93.333 0 165 23.833 215 71.5s75 116.167 75 205.5c0 43.333 -6.83301 82 -20.5 116s-33.334 62.833 -59.001 86.5s-56.834 41.834 -93.501 54.501s-78.334 19 -125.001 19h-347v-553zM320.003 -0.000976562l-180 -0.00195312v1443h551
c69.333 0 132.333 -10.167 189 -30.5s105 -49.333 145 -87s71 -83 93 -136s33 -111.833 33 -176.5c0 -50 -6.66699 -97.167 -20 -141.5s-32.5 -84.166 -57.5 -119.499s-55.333 -66.166 -91 -92.499s-76.167 -46.5 -121.5 -60.5l334 -599h-211l-309 571h-355v-571z
M464.003 1550l231 299h198l-281 -299h-148z" />
    <glyph glyph-name="racute" unicode="&#x155;" horiz-adv-x="649" 
d="M118 1078l164 0.000976562v-175h4c8 28 20.167 53.5 36.5 76.5s35.833 42.5 58.5 58.5s48.167 28.333 76.5 37s58.166 13 89.499 13c10.667 0 22.667 -0.666992 36 -2s23.666 -3 30.999 -5v-172c-7.33301 3.33301 -20.333 6.16602 -39 8.49902s-35.667 3.5 -51 3.5
c-35.333 0 -67.166 -6.16699 -95.499 -18.5s-52.666 -29.5 -72.999 -51.5s-36 -48.667 -47 -80s-16.5 -66 -16.5 -104v-667h-174v1078zM292 1250l211 300h198l-261 -300h-148z" />
    <glyph glyph-name="Rcommaaccent" unicode="&#x156;" horiz-adv-x="1237" 
d="M320 730l355.003 -0.000976562c93.333 0 165 23.833 215 71.5s75 116.167 75 205.5c0 43.333 -6.83301 82 -20.5 116s-33.334 62.833 -59.001 86.5s-56.834 41.834 -93.501 54.501s-78.334 19 -125.001 19h-347v-553zM320.003 -0.000976562l-180 -0.00195312v1443h551
c69.333 0 132.333 -10.167 189 -30.5s105 -49.333 145 -87s71 -83 93 -136s33 -111.833 33 -176.5c0 -50 -6.66699 -97.167 -20 -141.5s-32.5 -84.166 -57.5 -119.499s-55.333 -66.166 -91 -92.499s-76.167 -46.5 -121.5 -60.5l334 -599h-211l-309 571h-355v-571z
M394.003 -541.003l91 369h153l-118 -369h-126z" />
    <glyph glyph-name="rcommaaccent" unicode="&#x157;" horiz-adv-x="649" 
d="M118 1078l164 0.000976562v-175h4c8 28 20.167 53.5 36.5 76.5s35.833 42.5 58.5 58.5s48.167 28.333 76.5 37s58.166 13 89.499 13c10.667 0 22.667 -0.666992 36 -2s23.666 -3 30.999 -5v-172c-7.33301 3.33301 -20.333 6.16602 -39 8.49902s-35.667 3.5 -51 3.5
c-35.333 0 -67.166 -6.16699 -95.499 -18.5s-52.666 -29.5 -72.999 -51.5s-36 -48.667 -47 -80s-16.5 -66 -16.5 -104v-667h-174v1078zM64 -540.999l91 369h153l-118 -369h-126z" />
    <glyph glyph-name="Rcaron" unicode="&#x158;" horiz-adv-x="1237" 
d="M320 730l355.003 -0.000976562c93.333 0 165 23.833 215 71.5s75 116.167 75 205.5c0 43.333 -6.83301 82 -20.5 116s-33.334 62.833 -59.001 86.5s-56.834 41.834 -93.501 54.501s-78.334 19 -125.001 19h-347v-553zM320.003 -0.000976562l-180 -0.00195312v1443h551
c69.333 0 132.333 -10.167 189 -30.5s105 -49.333 145 -87s71 -83 93 -136s33 -111.833 33 -176.5c0 -50 -6.66699 -97.167 -20 -141.5s-32.5 -84.166 -57.5 -119.499s-55.333 -66.166 -91 -92.499s-76.167 -46.5 -121.5 -60.5l334 -599h-211l-309 571h-355v-571z
M172.003 1849h168l194 -201h2l194 201h168l-292 -299h-142z" />
    <glyph glyph-name="rcaron" unicode="&#x159;" horiz-adv-x="649" 
d="M118 1078l164 0.000976562v-175h4c8 28 20.167 53.5 36.5 76.5s35.833 42.5 58.5 58.5s48.167 28.333 76.5 37s58.166 13 89.499 13c10.667 0 22.667 -0.666992 36 -2s23.666 -3 30.999 -5v-172c-7.33301 3.33301 -20.333 6.16602 -39 8.49902s-35.667 3.5 -51 3.5
c-35.333 0 -67.166 -6.16699 -95.499 -18.5s-52.666 -29.5 -72.999 -51.5s-36 -48.667 -47 -80s-16.5 -66 -16.5 -104v-667h-174v1078zM304 1250l-277 300h163l173 -197h6l173 197h163l-277 -300h-124z" />
    <glyph glyph-name="Sacute" unicode="&#x15a;" horiz-adv-x="1216" 
d="M252 397c4 -39.333 16.0068 -74.834 36.0068 -106.501s46.167 -58.834 78.5 -81.501s70.333 -40.167 114 -52.5s91.167 -18.5 142.5 -18.5c48.667 0 93.667 6.16699 135 18.5s77 29.333 107 51s53.333 47.5 70 77.5s25 62.667 25 98c0 60.667 -22.333 110.667 -67 150
s-115.334 71.666 -212.001 96.999l-185 48c-66.667 16.667 -124.167 36.834 -172.5 60.501s-88.166 51 -119.499 82s-54.5 66.167 -69.5 105.5s-22.5 83.666 -22.5 132.999c0 60 12.5 115 37.5 165s60 93 105 129s98.667 64 161 84s131.166 30 206.499 30
c72 0 138.167 -10.167 198.5 -30.5s112.833 -48.666 157.5 -84.999s79.834 -79.666 105.501 -129.999s39.5 -105.833 41.5 -166.5h-180c-4 38.667 -14.5 73.5 -31.5 104.5s-39.833 57.167 -68.5 78.5s-62.334 37.833 -101.001 49.5s-81.334 17.5 -128.001 17.5
s-89.5 -5.83301 -128.5 -17.5s-72.5 -28 -100.5 -49s-49.667 -46 -65 -75s-23 -61.167 -23 -96.5c0 -27.333 5.16699 -52 15.5 -74s26.666 -42 48.999 -60s50.833 -34.5 85.5 -49.5s76.667 -28.833 126 -41.5l151 -40c74.667 -18.667 138.5 -40.167 191.5 -64.5
s96.5 -52.5 130.5 -84.5s58.833 -68.333 74.5 -109s23.5 -87 23.5 -139c0 -66 -12.5 -125.5 -37.5 -178.5s-61 -98 -108 -135s-103.833 -65.5 -170.5 -85.5s-141.334 -30 -224.001 -30c-76.667 0 -146.834 10 -210.501 30s-118.834 48.333 -165.501 85
s-83.834 80.834 -111.501 132.501s-43.5 109.5 -47.5 173.5h181zM551.007 1550l231 299h198l-281 -299h-148z" />
    <glyph glyph-name="sacute" unicode="&#x15b;" horiz-adv-x="984" 
d="M100 777c0 45.333 9.82617 87.002 29.4932 125.002s47.167 70.667 82.5 98s77.333 48.666 126 63.999s102.334 23 161.001 23c54.667 0 105.5 -7.66699 152.5 -23s88 -36.833 123 -64.5s62.667 -60.334 83 -98.001s31.5 -78.5 33.5 -122.5h-167
c-5.33301 50.667 -28.666 90.667 -69.999 120s-95 44 -161 44c-33.333 0 -63.666 -3.83301 -90.999 -11.5s-50.666 -18.334 -69.999 -32.001s-34.333 -30.167 -45 -49.5s-16 -40.666 -16 -63.999c0 -36.667 14.667 -67.5 44 -92.5s75.333 -45.167 138 -60.5l164 -41
c54.667 -14 100.834 -29.5 138.501 -46.5s68.167 -36.833 91.5 -59.5s40.166 -48.834 50.499 -78.501s15.5 -64.167 15.5 -103.5c0 -46 -10.5 -88.167 -31.5 -126.5s-50.333 -71.5 -88 -99.5s-82.667 -49.667 -135 -65s-109.5 -23 -171.5 -23c-58 0 -111.5 7.5 -160.5 22.5
s-91.833 36.333 -128.5 64s-66.167 60.667 -88.5 99s-35.5 80.833 -39.5 127.5h175c9.33301 -55.333 35.5 -97.333 78.5 -126s101.5 -43 175.5 -43c36.667 0 69.834 3.66699 99.501 11s54.834 17.833 75.501 31.5s36.5 30.334 47.5 50.001s16.5 41.5 16.5 65.5
c0 38 -12.667 68.167 -38 90.5s-68.666 41.5 -129.999 57.5l-189 49c-187.333 48.667 -281 144.667 -281 288zM424.993 1250l211 300h198l-261 -300h-148z" />
    <glyph glyph-name="Scircumflex" unicode="&#x15c;" horiz-adv-x="1216" 
d="M252 397c4 -39.333 16.0068 -74.834 36.0068 -106.501s46.167 -58.834 78.5 -81.501s70.333 -40.167 114 -52.5s91.167 -18.5 142.5 -18.5c48.667 0 93.667 6.16699 135 18.5s77 29.333 107 51s53.333 47.5 70 77.5s25 62.667 25 98c0 60.667 -22.333 110.667 -67 150
s-115.334 71.666 -212.001 96.999l-185 48c-66.667 16.667 -124.167 36.834 -172.5 60.501s-88.166 51 -119.499 82s-54.5 66.167 -69.5 105.5s-22.5 83.666 -22.5 132.999c0 60 12.5 115 37.5 165s60 93 105 129s98.667 64 161 84s131.166 30 206.499 30
c72 0 138.167 -10.167 198.5 -30.5s112.833 -48.666 157.5 -84.999s79.834 -79.666 105.501 -129.999s39.5 -105.833 41.5 -166.5h-180c-4 38.667 -14.5 73.5 -31.5 104.5s-39.833 57.167 -68.5 78.5s-62.334 37.833 -101.001 49.5s-81.334 17.5 -128.001 17.5
s-89.5 -5.83301 -128.5 -17.5s-72.5 -28 -100.5 -49s-49.667 -46 -65 -75s-23 -61.167 -23 -96.5c0 -27.333 5.16699 -52 15.5 -74s26.666 -42 48.999 -60s50.833 -34.5 85.5 -49.5s76.667 -28.833 126 -41.5l151 -40c74.667 -18.667 138.5 -40.167 191.5 -64.5
s96.5 -52.5 130.5 -84.5s58.833 -68.333 74.5 -109s23.5 -87 23.5 -139c0 -66 -12.5 -125.5 -37.5 -178.5s-61 -98 -108 -135s-103.833 -65.5 -170.5 -85.5s-141.334 -30 -224.001 -30c-76.667 0 -146.834 10 -210.501 30s-118.834 48.333 -165.501 85
s-83.834 80.834 -111.501 132.501s-43.5 109.5 -47.5 173.5h181zM693.007 1849l292 -299h-168l-194 201h-2l-194 -201h-168l292 299h142z" />
    <glyph glyph-name="scircumflex" unicode="&#x15d;" horiz-adv-x="984" 
d="M100 777c0 45.333 9.82617 87.002 29.4932 125.002s47.167 70.667 82.5 98s77.333 48.666 126 63.999s102.334 23 161.001 23c54.667 0 105.5 -7.66699 152.5 -23s88 -36.833 123 -64.5s62.667 -60.334 83 -98.001s31.5 -78.5 33.5 -122.5h-167
c-5.33301 50.667 -28.666 90.667 -69.999 120s-95 44 -161 44c-33.333 0 -63.666 -3.83301 -90.999 -11.5s-50.666 -18.334 -69.999 -32.001s-34.333 -30.167 -45 -49.5s-16 -40.666 -16 -63.999c0 -36.667 14.667 -67.5 44 -92.5s75.333 -45.167 138 -60.5l164 -41
c54.667 -14 100.834 -29.5 138.501 -46.5s68.167 -36.833 91.5 -59.5s40.166 -48.834 50.499 -78.501s15.5 -64.167 15.5 -103.5c0 -46 -10.5 -88.167 -31.5 -126.5s-50.333 -71.5 -88 -99.5s-82.667 -49.667 -135 -65s-109.5 -23 -171.5 -23c-58 0 -111.5 7.5 -160.5 22.5
s-91.833 36.333 -128.5 64s-66.167 60.667 -88.5 99s-35.5 80.833 -39.5 127.5h175c9.33301 -55.333 35.5 -97.333 78.5 -126s101.5 -43 175.5 -43c36.667 0 69.834 3.66699 99.501 11s54.834 17.833 75.501 31.5s36.5 30.334 47.5 50.001s16.5 41.5 16.5 65.5
c0 38 -12.667 68.167 -38 90.5s-68.666 41.5 -129.999 57.5l-189 49c-187.333 48.667 -281 144.667 -281 288zM837.993 1250h-163l-173 197h-6l-173 -197h-163l277 300h124z" />
    <glyph glyph-name="Scedilla" unicode="&#x15e;" horiz-adv-x="1216" 
d="M726 802c74.667 -18.667 138.505 -40.1641 191.505 -64.4971s96.5 -52.5 130.5 -84.5s58.833 -68.333 74.5 -109s23.5 -87 23.5 -139c0 -62 -11 -118.167 -33 -168.5s-53.833 -93.833 -95.5 -130.5s-92.167 -66 -151.5 -88s-126 -35.333 -200 -40l-44 -120
c139.333 0 209 -50 209 -150c0 -25.333 -5.5 -48.833 -16.5 -70.5s-26.167 -40.334 -45.5 -56.001s-42.333 -28 -69 -37s-56 -13.5 -88 -13.5c-28 -0.666992 -53.833 0.333008 -77.5 3s-46.834 7.33398 -69.501 14.001v98c4.66699 -2 11.667 -3.83301 21 -5.5
s19.666 -3.33398 30.999 -5.00098s23.166 -2.83398 35.499 -3.50098s23.833 -1 34.5 -1c39.333 0 69.166 6.16699 89.499 18.5s30.5 30.5 30.5 54.5c0 23.333 -11.667 40.166 -35 50.499s-61.666 15.5 -114.999 15.5h-55v74l51 134
c-69.333 4.66699 -132.666 17.834 -189.999 39.501s-107 50.667 -149 87s-75.333 79.166 -100 128.499s-39 104 -43 164h181c4 -39.333 16 -74.833 36 -106.5s46.167 -58.834 78.5 -81.501s70.333 -40.167 114 -52.5s91.167 -18.5 142.5 -18.5
c48.667 0 93.667 6.16699 135 18.5s77 29.333 107 51s53.333 47.5 70 77.5s25 62.667 25 98c0 60.667 -22.333 110.667 -67 150s-115.334 71.666 -212.001 96.999l-185 48c-66.667 16.667 -124.167 36.834 -172.5 60.501s-88.166 51 -119.499 82s-54.5 66.167 -69.5 105.5
s-22.5 83.666 -22.5 132.999c0 60 12.5 115 37.5 165s60 93 105 129s98.667 64 161 84s131.166 30 206.499 30c72 0 138.167 -10.167 198.5 -30.5s112.833 -48.666 157.5 -84.999s79.834 -79.666 105.501 -129.999s39.5 -105.833 41.5 -166.5h-180
c-4 38.667 -14.5 73.5 -31.5 104.5s-39.833 57.167 -68.5 78.5s-62.334 37.833 -101.001 49.5s-81.334 17.5 -128.001 17.5s-89.5 -5.83301 -128.5 -17.5s-72.5 -28 -100.5 -49s-49.667 -46 -65 -75s-23 -61.167 -23 -96.5c0 -27.333 5.16699 -52 15.5 -74
s26.666 -42 48.999 -60s50.833 -34.5 85.5 -49.5s76.667 -28.833 126 -41.5z" />
    <glyph glyph-name="scedilla" unicode="&#x15f;" horiz-adv-x="984" 
d="M617 592c54.667 -14 100.83 -29.4951 138.497 -46.4951s68.167 -36.833 91.5 -59.5s40.166 -48.834 50.499 -78.501s15.5 -64.167 15.5 -103.5c0 -42 -8.83301 -80.833 -26.5 -116.5s-42.334 -67 -74.001 -94s-69.667 -49.167 -114 -66.5
s-93.166 -28.666 -146.499 -33.999l-49 -135c139.333 0 209 -50 209 -150c0 -25.333 -5.5 -48.833 -16.5 -70.5s-26.167 -40.334 -45.5 -56.001s-42.333 -28 -69 -37s-56 -13.5 -88 -13.5c-28 -0.666992 -53.833 0.333008 -77.5 3s-46.834 7.33398 -69.501 14.001v98
c4.66699 -2 11.667 -3.83301 21 -5.5s19.666 -3.33398 30.999 -5.00098s23.166 -2.83398 35.499 -3.50098s23.833 -1 34.5 -1c39.333 0 69.166 6.16699 89.499 18.5s30.5 30.5 30.5 54.5c0 23.333 -11.667 40.166 -35 50.499s-61.666 15.5 -114.999 15.5h-55v74l57 148
c-52 4 -99.833 14.333 -143.5 31s-81.5 38.5 -113.5 65.5s-57.833 58.667 -77.5 95s-31.5 76.166 -35.5 119.499h175c9.33301 -55.333 35.5 -97.333 78.5 -126s101.5 -43 175.5 -43c36.667 0 69.834 3.66699 99.501 11s54.834 17.833 75.501 31.5s36.5 30.334 47.5 50.001
s16.5 41.5 16.5 65.5c0 38 -12.667 68.167 -38 90.5s-68.666 41.5 -129.999 57.5l-189 49c-187.333 48.667 -281 144.667 -281 288c0 45.333 9.83301 87 29.5 125s47.167 70.667 82.5 98s77.333 48.666 126 63.999s102.334 23 161.001 23c54.667 0 105.5 -7.66699 152.5 -23
s88 -36.833 123 -64.5s62.667 -60.334 83 -98.001s31.5 -78.5 33.5 -122.5h-167c-5.33301 50.667 -28.666 90.667 -69.999 120s-95 44 -161 44c-33.333 0 -63.666 -3.83301 -90.999 -11.5s-50.666 -18.334 -69.999 -32.001s-34.333 -30.167 -45 -49.5
s-16 -40.666 -16 -63.999c0 -36.667 14.667 -67.5 44 -92.5s75.333 -45.167 138 -60.5z" />
    <glyph glyph-name="Scaron" unicode="&#x160;" horiz-adv-x="1216" 
d="M252 397c4 -39.333 16.0068 -74.834 36.0068 -106.501s46.167 -58.834 78.5 -81.501s70.333 -40.167 114 -52.5s91.167 -18.5 142.5 -18.5c48.667 0 93.667 6.16699 135 18.5s77 29.333 107 51s53.333 47.5 70 77.5s25 62.667 25 98c0 60.667 -22.333 110.667 -67 150
s-115.334 71.666 -212.001 96.999l-185 48c-66.667 16.667 -124.167 36.834 -172.5 60.501s-88.166 51 -119.499 82s-54.5 66.167 -69.5 105.5s-22.5 83.666 -22.5 132.999c0 60 12.5 115 37.5 165s60 93 105 129s98.667 64 161 84s131.166 30 206.499 30
c72 0 138.167 -10.167 198.5 -30.5s112.833 -48.666 157.5 -84.999s79.834 -79.666 105.501 -129.999s39.5 -105.833 41.5 -166.5h-180c-4 38.667 -14.5 73.5 -31.5 104.5s-39.833 57.167 -68.5 78.5s-62.334 37.833 -101.001 49.5s-81.334 17.5 -128.001 17.5
s-89.5 -5.83301 -128.5 -17.5s-72.5 -28 -100.5 -49s-49.667 -46 -65 -75s-23 -61.167 -23 -96.5c0 -27.333 5.16699 -52 15.5 -74s26.666 -42 48.999 -60s50.833 -34.5 85.5 -49.5s76.667 -28.833 126 -41.5l151 -40c74.667 -18.667 138.5 -40.167 191.5 -64.5
s96.5 -52.5 130.5 -84.5s58.833 -68.333 74.5 -109s23.5 -87 23.5 -139c0 -66 -12.5 -125.5 -37.5 -178.5s-61 -98 -108 -135s-103.833 -65.5 -170.5 -85.5s-141.334 -30 -224.001 -30c-76.667 0 -146.834 10 -210.501 30s-118.834 48.333 -165.501 85
s-83.834 80.834 -111.501 132.501s-43.5 109.5 -47.5 173.5h181zM259.007 1849h168l194 -201h2l194 201h168l-292 -299h-142z" />
    <glyph glyph-name="scaron" unicode="&#x161;" horiz-adv-x="984" 
d="M100 777c0 45.333 9.82617 87.002 29.4932 125.002s47.167 70.667 82.5 98s77.333 48.666 126 63.999s102.334 23 161.001 23c54.667 0 105.5 -7.66699 152.5 -23s88 -36.833 123 -64.5s62.667 -60.334 83 -98.001s31.5 -78.5 33.5 -122.5h-167
c-5.33301 50.667 -28.666 90.667 -69.999 120s-95 44 -161 44c-33.333 0 -63.666 -3.83301 -90.999 -11.5s-50.666 -18.334 -69.999 -32.001s-34.333 -30.167 -45 -49.5s-16 -40.666 -16 -63.999c0 -36.667 14.667 -67.5 44 -92.5s75.333 -45.167 138 -60.5l164 -41
c54.667 -14 100.834 -29.5 138.501 -46.5s68.167 -36.833 91.5 -59.5s40.166 -48.834 50.499 -78.501s15.5 -64.167 15.5 -103.5c0 -46 -10.5 -88.167 -31.5 -126.5s-50.333 -71.5 -88 -99.5s-82.667 -49.667 -135 -65s-109.5 -23 -171.5 -23c-58 0 -111.5 7.5 -160.5 22.5
s-91.833 36.333 -128.5 64s-66.167 60.667 -88.5 99s-35.5 80.833 -39.5 127.5h175c9.33301 -55.333 35.5 -97.333 78.5 -126s101.5 -43 175.5 -43c36.667 0 69.834 3.66699 99.501 11s54.834 17.833 75.501 31.5s36.5 30.334 47.5 50.001s16.5 41.5 16.5 65.5
c0 38 -12.667 68.167 -38 90.5s-68.666 41.5 -129.999 57.5l-189 49c-187.333 48.667 -281 144.667 -281 288zM436.993 1250l-277 300h163l173 -197h6l173 197h163l-277 -300h-124z" />
    <glyph glyph-name="Tcedilla" unicode="&#x162;" horiz-adv-x="1210" 
d="M673 0l-51.9971 -141.997c139.333 0 209 -50 209 -150c0 -25.333 -5.5 -48.833 -16.5 -70.5s-26.167 -40.334 -45.5 -56.001s-42.333 -28 -69 -37s-56 -13.5 -88 -13.5c-28 -0.666992 -53.833 0.333008 -77.5 3s-46.834 7.33398 -69.501 14.001v98
c4.66699 -2 11.667 -3.83301 21 -5.5s19.666 -3.33398 30.999 -5.00098s23.166 -2.83398 35.499 -3.50098s23.833 -1 34.5 -1c39.333 0 69.166 6.16699 89.499 18.5s30.5 30.5 30.5 54.5c0 23.333 -11.667 40.166 -35 50.499s-61.666 15.5 -114.999 15.5h-55v74l60 156h-46
v1281h-465v162h1110v-162h-465v-1281h-22z" />
    <glyph glyph-name="tcedilla" unicode="&#x163;" horiz-adv-x="634" 
d="M383 -142c139.333 0 209.005 -49.9971 209.005 -149.997c0 -25.333 -5.5 -48.833 -16.5 -70.5s-26.167 -40.334 -45.5 -56.001s-42.333 -28 -69 -37s-56 -13.5 -88 -13.5c-28 -0.666992 -53.833 0.333008 -77.5 3s-46.834 7.33398 -69.501 14.001v98
c4.66699 -2 11.667 -3.83301 21 -5.5s19.666 -3.33398 30.999 -5.00098s23.166 -2.83398 35.499 -3.50098s23.833 -1 34.5 -1c39.333 0 69.166 6.16699 89.499 18.5s30.5 30.5 30.5 54.5c0 23.333 -11.667 40.166 -35 50.499s-61.666 15.5 -114.999 15.5h-55v74l62 163
c-53.333 15.333 -91.666 45 -114.999 89s-35 105.333 -35 184v654h-150v144h150v243h174v-243h210v-144h-210v-647c0 -50 10.833 -86.5 32.5 -109.5s55.5 -34.5 101.5 -34.5c5.33301 0 11.666 0.166992 18.999 0.5l22 1c7.33301 0.333008 14 0.833008 20 1.5
s10.667 1.33398 14 2.00098v-147c-10.667 -2.66699 -26.834 -4.83398 -48.501 -6.50098s-42.834 -2.5 -63.501 -2.5h-14z" />
    <glyph glyph-name="Tcaron" unicode="&#x164;" horiz-adv-x="1210" 
d="M515 0v1281h-465v162h1110v-162h-465v-1281h-180zM242 1849h168l194 -201h2l194 201h168l-292 -299h-142z" />
    <glyph glyph-name="tcaron" unicode="&#x165;" horiz-adv-x="723" 
d="M640 1720l-30 -488h-110v488h140zM349 1321l0.00292969 -243h210v-144h-210v-647c0 -50 10.833 -86.5 32.5 -109.5s55.5 -34.5 101.5 -34.5c5.33301 0 11.666 0.166992 18.999 0.5l22 1c7.33301 0.333008 14 0.833008 20 1.5s10.667 1.33398 14 2.00098v-147
c-10.667 -2.66699 -26.834 -4.83398 -48.501 -6.50098s-42.834 -2.5 -63.501 -2.5c-48.667 0 -90.167 5.33301 -124.5 16s-62.333 27.5 -84 50.5s-37.5 52.667 -47.5 89s-15 80.5 -15 132.5v654h-150v144h150v243h174z" />
    <glyph glyph-name="Tbar" unicode="&#x166;" horiz-adv-x="1250" 
d="M695 1281v-488h325v-143h-325v-650h-180v650h-285v143h285v488h-465v162h1110v-162h-465z" />
    <glyph glyph-name="tbar" unicode="&#x167;" horiz-adv-x="636" 
d="M349 495l0.00292969 -208c0 -50 10.833 -86.5 32.5 -109.5s55.5 -34.5 101.5 -34.5c5.33301 0 11.666 0.166992 18.999 0.5l22 1c7.33301 0.333008 14 0.833008 20 1.5s10.667 1.33398 14 2.00098v-147c-10.667 -2.66699 -26.834 -4.83398 -48.501 -6.50098
s-42.834 -2.5 -63.501 -2.5c-48.667 0 -90.167 5.33301 -124.5 16s-62.333 27.5 -84 50.5s-37.5 52.667 -47.5 89s-15 80.5 -15 132.5v215h-150v144h150v295h-150v144h150v243h174v-243h210v-144h-210v-295h212v-144h-212z" />
    </font>
</defs>
</svg>
